<?xml version="1.0" encoding="UTF-8" standalone="no"?><!DOCTYPE svg PUBLIC "-//W3C//DTD SVG 1.1//EN" "http://www.w3.org/Graphics/SVG/1.1/DTD/svg11.dtd"><svg width="100%" height="100%" viewBox="0 0 199 70" version="1.1" xmlns="http://www.w3.org/2000/svg" xmlns:xlink="http://www.w3.org/1999/xlink" xml:space="preserve" xmlns:serif="http://www.serif.com/" style="fill-rule:evenodd;clip-rule:evenodd;stroke-linejoin:round;stroke-miterlimit:1.41421;"><g><rect x="0" y="0" width="198.424" height="54.565" style="fill:#d52132;"/><path d="M67.946,23.444c-0.048,0.116 -0.104,0.246 -0.104,0.246c0,0 -0.064,0.01 -0.121,0.015l0,0.897l-0.153,0.012c-0.051,0 -0.07,0.031 -0.09,0.282c-0.012,0.18 -0.025,0.387 -0.174,0.507l-0.777,0.182l0.328,-0.375c0.082,-0.113 0.12,-0.251 0.12,-0.426c0,-0.03 -0.002,-0.068 -0.004,-0.099c-0.062,-0.045 -0.107,-0.124 -0.128,-0.249c-0.318,-0.052 -0.589,-0.321 -0.784,-0.55c0,0 -0.102,-0.111 -0.144,-0.156l-0.003,0.005c-0.308,0.109 -0.435,0.091 -0.595,-0.007l0,0.424c0.26,0.074 0.35,0.326 0.401,0.494l0.117,0.264l0.046,0.116l0.071,0.271c0.041,0.104 0.097,0.226 0.097,0.403c0,0.007 -0.004,0.02 -0.006,0.027c0.041,0.01 0.084,0.01 0.122,0.036c0.134,0.097 0.152,0.266 0.164,0.405l0.028,0.158l0.07,0.055l0.022,0.106l-0.011,0.349c-0.016,0.617 -0.047,1.241 -0.404,1.575c0.038,0.137 0.071,0.279 0.071,0.426c0,0.217 -0.04,0.439 -0.122,0.62c-0.106,0.26 -0.277,0.438 -0.491,0.521l-0.193,0.074c0,0 -0.016,-0.13 -0.025,-0.184c-0.012,0.01 -0.032,0.023 -0.032,0.023c-0.111,0.075 -0.243,0.168 -0.388,0.097c-0.137,-0.072 -0.153,-0.245 -0.156,-0.303l-0.005,-0.074l0.199,-0.222c0.213,-0.232 0.4,-0.44 0.4,-0.852c0,-0.053 -0.009,-0.121 -0.014,-0.185c-0.548,-0.218 -0.899,0.14 -1.25,0.531l-0.491,0.509l-0.097,-0.221c-0.35,-0.714 -0.354,-1.639 -0.008,-2.75l0.039,-0.124l0.129,0.007c0.105,0.008 0.175,-0.036 0.251,-0.085l0,-0.895l0.125,-0.034c0.097,-0.021 0.135,-0.115 0.201,-0.316c0.069,-0.215 0.182,-0.514 0.533,-0.549c0.009,-0.154 0.026,-0.351 0.026,-0.351c0,0 -0.019,-0.327 -0.028,-0.489c-0.409,-0.022 -0.703,0.053 -0.844,0.236c-0.089,0.104 -0.212,0.082 -0.312,0.065c0,-0.034 -0.161,0.219 -0.161,0.219l-0.092,0.148l-0.302,0.316l-0.12,0.118c0.009,-0.022 0.025,0.107 0.025,0.107l-0.007,0.294l-0.319,0.345c0.005,-0.004 -0.106,0.099 -0.117,0.112c0.02,0.04 0.047,0.077 0.047,0.108l0,0.031c-0.011,0.127 -0.117,0.196 -0.215,0.269l-0.138,0.115l0.138,0.236l-0.242,0.05c-0.166,0.017 -0.264,0.05 -0.329,0.088c0.077,0.075 0.138,0.162 0.179,0.242l0.145,0.285l-0.55,-0.059c0.008,0 0.008,0.21 0.008,0.21l-0.019,0.426l-0.187,0.219c-0.062,0.044 -0.086,0.059 -0.086,0.163l0,0.09c0,0.562 0.083,0.656 0.086,0.658c0.049,0.02 0.303,0.165 0.303,0.165c0.011,0.011 0.035,0.362 0.035,0.362c0,0 -0.005,0.043 -0.01,0.077c0.459,0.146 0.726,0.452 0.726,0.962l0,0.022c0.043,0.017 0.094,0.026 0.094,0.026c0.214,0.046 0.458,0.095 0.582,0.31l0.03,0.052l-0.008,0.059c-0.005,0.058 -0.005,0.102 -0.005,0.144c0,0.118 0.022,0.17 0.041,0.195c0,0 0.018,0.012 0.024,0.012c0.108,-0.153 0.262,-0.26 0.485,-0.255l0.504,0.032c0.708,0.046 1.313,0.093 1.802,-0.286l0.072,-0.061l0.047,0.027c0,0 0.056,0.021 0.106,0.041c-0.004,-0.015 -0.021,-0.027 -0.021,-0.041c0,-0.034 0.008,-0.065 0.024,-0.098c0.067,-0.126 0.214,-0.124 0.362,-0.102c-0.005,-0.012 -0.121,-0.473 -0.121,-0.473l0.091,-0.016c0.182,-0.155 0.293,-0.178 0.45,-0.087c0,0 0.037,0.01 0.059,0.016l0,-0.044c0,-0.192 0.022,-0.439 0.265,-0.502l0.263,-0.061l-0.058,0.264c-0.008,0.032 -0.013,0.053 -0.013,0.073c0,0.043 0.033,0.058 0.164,0.089c0.143,0.037 0.375,0.097 0.418,0.362l0.005,0.033l-0.013,0.035c-0.005,0.032 -0.012,0.057 -0.012,0.077c0,0.035 0.023,0.052 0.074,0.093c0.063,0.037 0.131,0.117 0.181,0.225c0.187,0.073 0.278,0.068 0.439,0.034l0.59,-0.093l0.01,0.218l0.007,0.09c0.034,0.045 0.19,0.056 0.3,0.062c0,0 0.133,0.036 0.262,0.074c0.118,-0.308 0.341,-0.37 0.532,-0.413l0.184,-0.065c0,-0.124 0.052,-0.268 0.144,-0.337c0,-0.004 0.28,-0.037 0.28,-0.037l0.07,0.004c0,-0.002 0.136,-0.104 0.136,-0.104c0.065,-0.089 0.157,-0.161 0.299,-0.184c-0.008,-0.129 -0.053,-0.221 -0.121,-0.33c0,0 -0.048,-0.109 -0.097,-0.21c-0.637,-0.021 -1.286,-0.038 -1.444,0.338l-0.044,0.101l-1.171,0l0.049,-0.211c0.01,-0.035 0.015,-0.074 0.015,-0.118c0,-0.232 -0.116,-0.532 -0.191,-0.744l-0.108,-0.446c0.028,-0.121 0.143,-0.146 0.227,-0.159l0.115,-0.034c-0.112,-0.082 -0.162,-0.159 -0.162,-0.249c0,-0.048 0.018,-0.104 0.052,-0.163c0,0 0.008,-0.044 0.015,-0.08c-0.07,-0.024 -0.145,-0.059 -0.196,-0.13c-0.044,-0.063 -0.064,-0.132 -0.064,-0.217c0,-0.036 0.007,-0.082 0.012,-0.126l0,-0.006c0,-0.175 0.138,-0.268 0.22,-0.327c0.057,-0.037 0.08,-0.052 0.08,-0.092c0,-0.016 -0.005,-0.039 -0.015,-0.072c-0.007,-0.053 -0.109,-0.458 -0.109,-0.458c-0.062,-0.177 -0.116,-0.334 -0.116,-0.469c0,-0.058 0.008,-0.11 0.032,-0.16c0,0 0.064,-0.053 0.114,-0.095c-0.028,-0.05 -0.058,-0.104 -0.058,-0.104c0,0 0.077,0.016 0.147,0.027c0.041,-0.038 0.121,-0.103 0.121,-0.103c0,0 0,0.073 -0.003,0.122c0.006,0 0.035,0.003 0.035,0.003l0.135,0c0.022,-0.224 0.066,-0.667 0.066,-0.667c0.041,-0.189 0.077,-0.372 0.077,-0.593c0,-0.054 -0.006,-0.115 -0.011,-0.175c-0.11,-0.022 -0.312,-0.067 -0.312,-0.067c-0.241,-0.037 -0.473,-0.115 -0.643,-0.271c-0.05,0.041 -0.112,0.068 -0.196,0.077Z" style="fill:#fff;fill-rule:nonzero;"/><path d="M85.775,23.151c-0.047,0.07 -0.122,0.124 -0.261,0.139c-0.018,0.058 -0.04,0.112 -0.04,0.112l-0.401,0.932l-0.102,-0.011l-0.397,0c-0.009,0.234 -0.097,0.391 -0.175,0.512c0,0 -0.034,0.066 -0.065,0.124c0.036,0.028 0.077,0.052 0.077,0.052l0.542,0.455l-0.134,0.103c-0.183,0.225 -0.187,0.538 -0.192,0.871l-0.061,0.663l-0.155,0.301l-0.123,0.255c0,0.006 -0.002,0.497 -0.002,0.497l0.002,0.514c-0.475,0.934 -0.578,2.21 -0.666,3.442c0,0 -0.025,0.256 -0.032,0.382c0.143,0.084 0.254,0.202 0.334,0.351c0.166,-0.005 0.294,-0.037 0.371,-0.109l0.312,-0.275l-0.033,0.422c-0.008,0.067 0.003,0.096 0.01,0.102c0,0 0.043,0.037 0.214,0.004c0,0 0.004,-0.047 0.087,-0.064l0,-0.004l0.119,-0.29l0.272,-0.079c-0.06,0.004 0.079,-0.102 0.079,-0.102c0.089,-0.09 0.218,-0.219 0.466,-0.212c0.043,-0.149 0.147,-0.231 0.222,-0.271c0.054,-0.027 0.079,-0.039 0.079,-0.076c0,-0.029 -0.013,-0.063 -0.031,-0.124l-0.182,-0.502c0,0 0.491,0.339 0.499,0.348c0,-0.004 -0.005,-0.004 -0.005,-0.004c0,-0.037 0.059,-0.155 0.059,-0.155c0.096,-0.208 0.268,-0.56 0.684,-0.517c0.117,-0.369 0.36,-0.627 0.77,-0.71c-0.051,0.022 -0.028,-0.125 -0.028,-0.125c0.016,-0.152 0.042,-0.432 0.326,-0.455l0,-0.002c0,-0.013 0.172,-0.156 0.172,-0.156c0.103,-0.129 0.237,-0.3 0.526,-0.3l0,-0.697l0.189,-0.006l0.164,-0.004l0.041,-0.146l0.04,-0.188l0.444,-0.481l0.159,-0.147c-0.003,0.003 0.19,-0.173 0.19,-0.173c0.178,-0.146 0.238,-0.205 0.194,-0.393l-0.134,-0.542l0.419,0.382c0.046,-0.099 0.143,-0.302 0.143,-0.302c0,0 0.12,-0.012 0.218,-0.026c0.006,-0.012 0.028,-0.142 0.028,-0.142c0.011,-0.15 0.039,-0.43 0.322,-0.456l0.212,-0.019l-0.037,0.218c-0.215,1.35 -0.42,2.822 -0.42,4.478l0,0.082l-0.064,0.048c-0.193,0.164 -0.227,0.56 -0.259,0.945c0,0 -0.062,0.396 -0.087,0.577c0.123,0.075 0.363,0.075 0.589,0.069c0,0 0.066,-0.002 0.124,-0.002c-0.014,-0.053 -0.064,-0.248 -0.064,-0.248l0.043,-0.138c0.06,-0.069 0.141,-0.063 0.255,-0.05c0.048,-0.287 0.056,-0.643 0.061,-1.037l0.063,-1.288l0.072,-0.35c0.065,-0.292 0.144,-0.619 0.069,-0.887l-0.033,-0.145l0.125,-0.06c0.141,-0.063 0.141,-0.129 0.079,-0.339l-0.017,-0.295c0.045,-0.14 0.199,-0.118 0.303,-0.104l0.016,0c0.005,-0.032 0.011,-0.057 0.011,-0.107c0,-0.16 -0.027,-0.381 -0.039,-0.51l-0.021,-0.399l0.141,-0.808c0.082,-0.417 0.165,-0.816 0.165,-1.237c0,-0.087 -0.006,-0.179 -0.014,-0.267c-0.056,-0.005 -0.074,0.016 -0.108,0.08l-0.429,0.399l-0.03,-0.268c0,0 -0.02,-0.051 -0.044,-0.096c-0.012,0.01 -0.027,0.016 -0.027,0.016c-0.096,0.085 -0.251,0.208 -0.464,0.218c-0.032,0.372 -0.245,0.6 -0.382,0.719l-0.075,0.071c-0.228,0.268 -0.345,0.456 -0.384,0.783l-0.013,0.086l-0.097,0.054l-0.255,0.132c0,0 -0.141,0.07 -0.225,0.115c-0.079,0.301 -0.352,1.025 -0.685,1.059c-0.033,0.056 -0.063,0.121 -0.063,0.121c-0.118,0.087 -0.146,0.178 -0.184,0.297l-0.225,0.413c-0.089,0.089 -0.204,0.064 -0.292,0.05c-0.021,0.029 -0.218,0.305 -0.218,0.305c0,0 -0.079,-0.006 -0.143,-0.013c-0.021,0.382 -0.255,0.538 -0.401,0.623l-0.084,0.058l-0.179,0.222c-0.115,0.17 -0.271,0.376 -0.508,0.4c-0.015,0.214 -0.048,0.405 -0.146,0.524l-0.053,0.059l-0.069,0.003c-0.194,0.006 -0.348,0.151 -0.493,0.289l-0.273,0.3c-0.185,0.243 -0.586,0.415 -0.586,0.415l-0.023,0.155c-0.016,0.133 -0.033,0.307 -0.168,0.398c-0.091,0.065 -0.204,0.079 -0.351,0.034l-0.132,-0.036l0.116,-1.473l0.044,-0.818l0.105,-0.035c0.135,-0.047 0.187,-0.208 0.251,-0.466c0.065,-0.219 0.158,-0.446 0.344,-0.589c-0.009,-0.065 -0.014,-0.129 -0.014,-0.19c0,-0.266 0.047,-0.489 0.091,-0.701c0.045,-0.206 0.089,-0.395 0.089,-0.634c0,-0.087 -0.007,-0.181 -0.021,-0.287l-0.027,-0.177l0.179,-0.014c0.032,-0.005 0.047,-0.027 0.072,-0.216c0.024,-0.153 0.051,-0.339 0.194,-0.445c0,0 0.074,-0.015 0.143,-0.028c0,-0.392 0.082,-0.707 0.162,-1.007c0.071,-0.301 0.148,-0.583 0.148,-0.947c0,-0.086 -0.006,-0.188 -0.016,-0.289c-0.115,-0.058 -0.193,-0.173 -0.235,-0.344c-0.196,0.009 -0.314,-0.055 -0.403,-0.113c-0.08,-0.044 -0.138,-0.075 -0.24,-0.056Z" style="fill:#fff;fill-rule:nonzero;"/><path d="M139.181,21.757c-0.082,0.103 -0.176,0.221 -0.33,0.204c-0.038,0 -0.066,-0.032 -0.1,-0.053c0.088,0.11 0.193,0.249 0.193,0.469l0,0.042l-0.011,0.17l-0.17,-0.011c-0.128,-0.01 -0.161,0.031 -0.232,0.273l-0.215,0.415l-0.27,-0.17c0.037,-0.149 0.017,-0.218 0,-0.23c-0.008,-0.011 -0.033,-0.018 -0.082,-0.018c0,0.021 0.008,0.048 0.008,0.067c0,0.226 -0.056,0.402 -0.097,0.558c-0.045,0.146 -0.083,0.28 -0.083,0.449c0,0.063 0.006,0.126 0.015,0.199l0.009,0.062l-0.024,0.052c-0.074,0.133 -0.23,0.154 -0.354,0.168c0,0 -0.08,0.015 -0.099,0.018c0.024,0.012 0.03,0.129 0.03,0.129c0.01,0.06 0.018,0.125 0.018,0.189c0,0.108 -0.021,0.207 -0.107,0.282c-0.051,0.042 -0.114,0.055 -0.176,0.055l0,1.431l-0.172,-0.006c-0.094,-0.001 -0.153,0.04 -0.212,0.072c0.011,0.051 0.048,0.111 0.048,0.148c0,0.166 -0.096,0.266 -0.157,0.332l-0.05,0.057c0,-0.003 0.082,0.127 0.082,0.127l0.151,0.259l-0.281,0.022c-0.179,0 -0.405,0.251 -0.467,0.446c0.087,0.01 0.178,0.067 0.206,0.222l0.014,0.068l-0.082,0.106l-0.125,0.208c-0.032,0.074 -0.073,0.155 -0.128,0.225c0.105,0.107 0.182,0.241 0.182,0.425l-0.005,0.118l-0.111,0.067c-0.177,0.112 -0.271,0.198 -0.378,0.359c0.041,0.055 0.07,0.123 0.07,0.193c0,0.01 0,0.02 -0.002,0.033c-0.006,0.027 -0.217,0.194 -0.217,0.194c0,0 -0.053,0.021 -0.09,0.039c-0.015,0.069 -0.118,0.568 -0.118,0.568c0,0 -0.086,0.372 -0.127,0.555c0.082,0.054 0.161,0.104 0.161,0.104l0.116,0.087c0.394,0.106 0.43,0.299 0.437,0.476c0.005,0.078 0.005,0.099 0.055,0.142c0,-0.005 0.177,-0.015 0.177,-0.015c0.148,-0.025 0.334,-0.051 0.443,0.091c0.037,0.05 0.046,0.105 0.048,0.168c0.1,-0.017 0.185,-0.049 0.271,-0.106c0.129,-0.089 0.28,-0.189 0.536,-0.186c0.059,-0.273 0.171,-0.54 0.452,-0.674c-0.013,-0.024 -0.028,-0.071 -0.028,-0.071c0,0 0.069,0.007 0.135,0.014c0.09,-0.03 0.32,-0.118 0.32,-0.118c0,0 -0.037,0.08 -0.07,0.145c0.197,0.019 0.266,-0.077 0.368,-0.242l0.272,-0.324c0.005,0 0.328,-0.165 0.328,-0.165c0.1,-0.041 0.152,-0.089 0.215,-0.137c-0.008,-0.023 -0.029,-0.073 -0.029,-0.073l0.076,-0.116c0.059,-0.064 0.172,-0.087 0.282,-0.102c-0.014,-0.054 -0.041,-0.118 -0.041,-0.167c0,-0.085 0.025,-0.157 0.086,-0.208c0.054,-0.05 0.122,-0.05 0.191,-0.042c-0.003,-0.008 -0.014,-0.043 -0.014,-0.043l0.259,-0.222c0.09,0.11 0.096,0.105 0.233,-0.01c0.071,-0.056 0.222,-0.148 0.391,-0.114c0.07,-0.201 0.164,-0.375 0.262,-0.539l0.243,-0.395c0,0 0.029,0.037 0.044,0.067c0.053,-0.158 0.128,-0.331 0.311,-0.408c0.07,-0.026 0.149,-0.023 0.234,-0.011c0.078,-0.456 0.455,-0.883 0.805,-0.971c0.01,-0.004 0.016,0 0.023,-0.004c0,-0.019 -0.017,-0.023 -0.017,-0.046c0,-0.028 0.004,-0.064 0.009,-0.099l0.019,-0.143l0.094,0.006l0.434,-0.003c0.056,0.006 0.143,0.016 0.212,0.016c-0.01,-0.03 -0.021,-0.06 -0.021,-0.091c0,-0.097 0.057,-0.196 0.109,-0.302c-0.095,0.01 -0.183,0.015 -0.264,-0.028c-0.126,-0.069 -0.189,-0.199 -0.157,-0.335c0.037,-0.262 0.289,-0.291 0.486,-0.286c0.178,-0.492 0.599,-0.713 0.953,-0.831c0.036,-0.095 0.071,-0.186 0.071,-0.252c0,-0.122 -0.071,-0.21 -0.202,-0.378l-0.135,-0.166l0.261,-0.114l0.076,-0.04l0.619,-0.17l-0.098,0.246l-0.057,0.403c-0.014,0.075 -0.018,0.128 -0.025,0.187c0.094,-0.017 0.399,-0.069 0.399,-0.069l-0.038,0.176c0.009,0.045 0.011,0.087 0.011,0.126c0,0.255 -0.102,0.431 -0.168,0.556l-0.063,0.128c0.007,-0.005 0.127,0.071 0.127,0.071l0.153,0.106l-0.125,0.189l-0.245,0.323c0,0 -0.062,0.092 -0.104,0.158c0.024,0.068 0.06,0.134 0.06,0.205c0,0.207 -0.084,0.434 -0.173,0.664c-0.096,0.261 -0.194,0.528 -0.194,0.795c0,0.058 0.003,0.105 0.01,0.16l0.023,0.106l-0.158,0.091l-0.136,0.098c0,0 -0.07,0.051 -0.137,0.097c0.013,0.053 0.176,0.71 0.176,0.71l-0.194,-0.033c-0.109,0.014 -0.133,0.016 -0.122,0.273l-0.017,0.32l-0.154,0.248l-0.129,0.203c0,0.037 -0.086,1.125 -0.086,1.125c0,0 -0.039,0.74 -0.049,0.917c0.071,0.055 0.131,0.14 0.139,0.3c0.025,0.004 0.125,0.026 0.125,0.026c0.148,0.013 0.414,0.042 0.438,0.326c0,-0.008 0.024,0.159 0.024,0.159l0,0.624c0.038,-0.017 0.092,-0.017 0.113,-0.045c0.071,-0.083 0.105,-0.215 0.105,-0.395c0,-0.052 -0.002,-0.108 -0.004,-0.164l-0.025,-0.25l0.232,0.064c0.102,0.03 0.106,0.024 0.159,-0.063c0.038,-0.054 0.106,-0.122 0.193,-0.172c-0.012,-0.106 -0.018,-0.215 -0.018,-0.32c0,-0.547 0.107,-1.062 0.203,-1.528c0.081,-0.403 0.163,-0.798 0.163,-1.159c0,-0.161 -0.011,-0.322 -0.052,-0.468l-0.035,-0.121l0.101,-0.067c0.33,-0.217 0.439,-0.691 0.555,-1.192c0.094,-0.382 0.187,-0.78 0.388,-1.084c-0.095,-0.156 -0.168,-0.332 -0.168,-0.466c0,-0.017 0,-0.029 0.001,-0.045c-0.001,0.023 0.141,-0.192 0.141,-0.192l0.161,-0.162l0,-0.005c0,-0.041 0.068,-0.446 0.068,-0.446l0.067,-0.396l0.041,-0.116c0.258,-0.702 0.431,-1.175 0.235,-1.806l-0.029,-0.104l0.076,-0.072c0.099,-0.094 0.097,-0.384 0.091,-0.643l-0.005,-0.249c-0.015,0.001 -0.187,-0.145 -0.306,-0.15c0.021,0.043 0.051,0.081 0.055,0.132l0,0.022c0,0.158 -0.106,0.282 -0.257,0.31l-0.13,0.024l-0.065,-0.15l-0.053,-0.127c-0.046,-0.079 -0.091,-0.187 -0.097,-0.338c-0.352,-0.002 -0.647,0.123 -0.705,0.238c-0.008,0.012 -0.02,0.031 0.019,0.075l0.226,0.292l-0.364,-0.011c-0.186,-0.008 -0.305,0.034 -0.391,0.087l0,0.459l-0.133,0.029c-0.159,0.041 -0.25,0.154 -0.362,0.3c-0.112,0.145 -0.268,0.294 -0.497,0.368l0,0.609l-0.187,0.036c0,0 -0.29,0.076 -0.381,0.101l0,0.654c0,0 -0.391,-0.062 -0.405,-0.066c0.009,0.006 0.012,0.042 0.012,0.064l0,0.02l-0.057,0.306l-0.328,0.162l-0.077,0.021c0.009,0.041 0.016,0.086 0.016,0.131c0,0.052 -0.012,0.106 -0.057,0.153c-0.061,0.063 -0.138,0.066 -0.216,0.06c0.001,0.006 0,0.006 0.004,0.018c0.026,0.042 0.064,0.11 0.064,0.182c0,0.027 -0.004,0.058 -0.023,0.086c-0.045,0.112 -0.164,0.131 -0.204,0.142c-0.035,0.001 -0.36,-0.066 -0.36,-0.066c0,0 -0.043,-0.018 -0.057,-0.022l0,0.002c0.008,0.014 0.033,0.02 0.036,0.026c0.013,0.028 0.015,0.057 0.015,0.081c0,0.092 -0.058,0.171 -0.114,0.243c-0.043,0.055 -0.114,0.149 -0.114,0.199l0,0.01l0.474,0.472l-0.504,-0.076c-0.46,-0.082 -0.557,0.143 -0.7,0.483c0,0 -0.303,0.514 -0.305,0.519c0.008,0.018 0.032,0.029 0.032,0.051c0,0.015 0,0.034 -0.002,0.05c-0.03,0.127 -0.148,0.174 -0.202,0.192c-0.007,0.011 -0.03,0.059 -0.03,0.059c0,0 -0.002,-0.033 -0.005,-0.04c-0.019,0.002 -0.031,0.007 -0.031,0.007l-0.048,-0.017c-0.141,-0.041 -0.18,-0.013 -0.256,0.045c0,0 -0.168,0.039 -0.297,0.068c-0.266,0.4 -0.594,0.84 -0.994,1.169c-0.091,0.07 -0.2,0.046 -0.281,0.03l0,0.037c0,0.063 -0.029,0.181 -0.192,0.245c0,0 -0.204,0.009 -0.264,0.009c0.021,0.058 0.025,0.119 0.059,0.17l0.216,0.323l-0.375,-0.055c-0.277,-0.042 -0.32,0.021 -0.399,0.166l-0.176,0.231l-0.38,0.229l-0.659,0.402l0.061,-0.365c0.039,-0.204 0.004,-0.294 -0.052,-0.421l-0.15,-0.633l0.241,0.048c0,0 0.031,0.003 0.068,0.003c-0.01,-0.027 -0.025,-0.055 -0.025,-0.055l-0.08,-0.408l0,-0.008c0,-0.059 0.072,-0.095 0.196,-0.151l0.141,-0.07c0.069,-0.075 0.084,-0.231 0.084,-0.398c0,-0.082 -0.004,-0.165 -0.005,-0.248l0,-0.567l0.164,0.015l0.369,0c-0.006,-0.062 -0.029,-0.124 -0.029,-0.182c0,-0.338 0.151,-0.596 0.303,-0.85c0.166,-0.277 0.332,-0.556 0.332,-0.972c0,-0.043 -0.004,-0.089 -0.004,-0.135l-0.018,-0.192l0.289,0.012c-0.004,-0.015 -0.005,-0.042 -0.005,-0.067c0,-0.098 0.023,-0.255 0.023,-0.255l0.165,-0.192c0,0 0.11,-0.099 0.117,-0.108c-0.016,-0.005 -0.086,-0.221 -0.086,-0.221l-0.177,-0.311l0.27,-0.016c0.064,-0.005 0.085,-0.031 0.143,-0.182c0.046,-0.13 0.152,-0.321 0.385,-0.373c-0.014,-0.09 -0.046,-0.179 -0.046,-0.268c0,-0.423 0.229,-0.792 0.624,-1.095c-0.023,-0.082 -0.053,-0.167 -0.053,-0.247c0,-0.136 0.02,-0.262 0.044,-0.385l0.027,-0.431c-0.003,0.006 -0.131,-0.116 -0.131,-0.116c-0.104,-0.083 -0.204,-0.178 -0.231,-0.316c-0.073,0.035 -0.136,0.089 -0.205,0.175Z" style="fill:#fff;fill-rule:nonzero;"/><path d="M161.902,20.812l-0.024,-0.014c-0.016,0.068 -0.022,0.143 -0.083,0.191c-0.04,0.03 -0.076,0.024 -0.112,0.039c0.008,0.004 0.01,0.011 0.01,0.011l0.01,0.044c0,0.02 0.004,0.03 0.004,0.046c0,0.106 -0.051,0.182 -0.138,0.225c-0.12,0.058 -0.221,0.016 -0.32,-0.029c-0.013,0.016 -0.218,0.345 -0.218,0.345c0,0 -0.038,0.005 -0.062,0.008c0,0.021 -0.004,0.048 -0.004,0.065c0,0.172 0.049,0.306 0.153,0.41l0.241,0.253l-0.436,0.026l-0.123,0.008c-0.059,0.034 -0.075,0.172 -0.087,0.278c-0.025,0.182 -0.053,0.387 -0.245,0.509c0,0 -0.115,0.019 -0.228,0.039c-0.01,0.049 -0.022,0.104 -0.022,0.145c0,0.172 0.081,0.276 0.172,0.398l0.366,0.744l-0.373,-0.091c-0.208,-0.022 -0.362,-0.009 -0.425,0.051c-0.048,0.037 -0.066,0.107 -0.066,0.197c0,0.006 0.003,0.022 0.003,0.031c0.041,-0.002 0.088,-0.022 0.179,-0.073c0.089,-0.054 0.217,-0.125 0.366,-0.068c0.16,0.054 0.174,0.204 0.186,0.259l0.021,0.181l-0.226,0.01c-0.089,0.003 -0.122,0.033 -0.181,0.263c0,0 -0.043,0.087 -0.092,0.166c0.132,0.032 0.287,0.082 0.293,0.263l0.018,0.22l-0.198,-0.044l-0.508,-0.09c0,0 -0.041,-0.013 -0.069,-0.017l0,0.021c0,0.139 0.083,0.195 0.212,0.285l0.194,0.142l-0.004,0.071l0,1.044l-0.319,0c0.011,0.052 0.038,0.124 0.038,0.169c0,0.119 -0.036,0.204 -0.057,0.272c0.067,0.023 0.144,0.06 0.172,0.139l0.038,0.085l-0.094,0.137c-0.059,0.064 -0.143,0.078 -0.254,0.073l0.007,0.028l0.145,0.295l-0.092,0.053l-0.124,0.193c0,0.005 -0.005,0.204 -0.005,0.204c0,0.041 0.005,0.087 0.005,0.131c0,0.128 -0.031,0.267 -0.092,0.401c0.13,0.031 0.262,0.081 0.267,0.257c0.046,0.081 0.06,0.152 0.06,0.214c0,0.136 -0.082,0.216 -0.171,0.274c0.011,0.011 0.037,0 0.05,0.016c0.024,0.038 0.039,0.072 0.039,0.107c0,0.011 -0.015,0.021 -0.015,0.034c0.18,0.043 0.337,0.195 0.39,0.323l0.072,0.177l-0.221,0.044c-0.28,0.062 -0.647,0.229 -0.717,0.918c0.046,0.036 0.067,0.098 0.102,0.164c0.072,-0.011 0.307,-0.06 0.307,-0.06l0.171,0.188c0,0 0.023,0.04 0.048,0.075c0.089,0.028 0.205,0.072 0.296,0.128c0.016,-0.003 0.208,-0.047 0.208,-0.047l0.516,-0.128l0.095,0.088l0.188,0.08c0,0 0.643,0.097 0.656,0.101c-0.021,-0.097 -0.058,-0.188 -0.131,-0.276l-0.292,-0.489l0.2,-0.044c0.135,-0.055 0.169,-0.117 0.18,-0.157c0.007,-0.02 0.01,-0.044 0.01,-0.067c0,-0.188 -0.193,-0.445 -0.27,-0.548l-0.133,-0.172l0.423,-0.141c-0.056,-0.003 -0.139,-0.386 -0.139,-0.386l0.116,-0.167c0,0 0.025,-0.035 0.046,-0.066c-0.107,-0.126 -0.162,-0.283 -0.162,-0.305c-0.03,-0.112 -0.039,-0.212 -0.039,-0.309c0,-0.221 0.052,-0.388 0.094,-0.529c0.034,-0.109 0.054,-0.194 0.054,-0.28c0,-0.086 -0.02,-0.167 -0.091,-0.272l-0.271,-0.412l0.713,0.228c0.038,0.017 0.058,0.002 0.085,-0.007l-0.093,-0.047c-0.115,-0.048 -0.336,-0.129 -0.336,-0.367c0,-0.071 0.025,-0.162 0.073,-0.263l0.044,-0.094l0.616,-0.071c0.171,-0.031 0.335,-0.027 0.511,-0.005c-0.005,-0.043 -0.037,-0.108 -0.037,-0.14c0,-0.075 0.032,-0.125 0.11,-0.162c0.167,-0.069 0.284,0.037 0.359,0.098c0,0 0.06,0.048 0.119,0.087c0.052,-0.104 0.119,-0.205 0.119,-0.205c0.031,-0.021 0.366,-0.054 0.366,-0.054c0.051,0.019 0.185,-0.081 0.185,-0.081c0.111,-0.101 0.303,-0.247 0.562,-0.268c-0.018,-0.047 -0.04,-0.119 -0.04,-0.119l0.267,-0.214c0,0 0.023,0.013 0.028,0.017c-0.039,-0.053 -0.084,-0.122 -0.13,-0.22l-0.557,-0.082c-0.176,-0.002 -0.282,0.053 -0.414,0.118l-0.321,0.167l-0.006,-0.308l0,-0.067c-0.127,0.048 -0.228,0.116 -0.338,0.244c-0.133,0.151 -0.336,0.291 -0.629,0.364c0,0.011 0.006,0.017 0.006,0.024c0,0.08 -0.038,0.159 -0.107,0.224c-0.158,0.139 -0.488,0.18 -0.705,0.093c-0.133,-0.056 -0.206,-0.156 -0.206,-0.269c0,-0.022 0.003,-0.046 0.009,-0.068l0.037,-0.137l0.28,0c-0.015,-0.087 -0.058,-0.186 -0.058,-0.267c0,-0.156 0.036,-0.287 0.058,-0.405l0.038,-0.305l-0.029,-0.132c-0.021,-0.107 -0.044,-0.224 -0.044,-0.336c0,-0.134 0.035,-0.266 0.16,-0.355c0.07,-0.057 0.171,-0.077 0.283,-0.087c-0.016,-0.131 -0.109,-0.211 -0.224,-0.29l-0.219,-0.292l0.132,-0.242c0.176,-0.138 0.22,-0.198 0.22,-0.253c0,-0.026 -0.008,-0.05 -0.025,-0.076l-0.075,-0.448l0.131,-0.17c0,0 0.014,-0.028 0.027,-0.051c-0.07,-0.052 -0.161,-0.134 -0.161,-0.291c0,-0.022 0.001,-0.042 0.003,-0.061l0.014,-0.135l0.026,0c-0.022,-0.067 -0.04,-0.163 -0.04,-0.163l0.158,-0.183c0.001,-0.007 0.008,-0.018 0.008,-0.024c0,-0.059 -0.05,-0.129 -0.05,-0.129l-0.208,-0.314l0.208,-0.059c0.116,-0.045 0.178,-0.178 0.248,-0.324c0,0 0.048,-0.087 0.105,-0.168c-0.072,0.044 -0.154,0.086 -0.259,0.05c-0.09,-0.03 -0.131,-0.08 -0.161,-0.134c-0.031,0.01 -0.324,0.153 -0.324,0.153Zm2.857,4.451c-0.151,0.05 -0.343,0.102 -0.595,0.092c0,0.039 0.026,0.054 0.106,0.085c0,0 0.626,0.546 0.638,0.557c-0.012,-0.022 0.03,-0.051 0.018,-0.081c-0.107,-0.094 -0.268,-0.11 -0.268,-0.221c0,-0.048 0.015,-0.104 0.051,-0.16l0.062,-0.114l0.155,0.013c0.064,0.004 0.102,-0.003 0.11,-0.013c0,0 0.029,-0.021 0.029,-0.103c0,-0.018 -0.006,-0.037 -0.006,-0.055c-0.076,-0.046 -0.133,-0.049 -0.3,0Z" style="fill:#fff;fill-rule:nonzero;"/><path d="M167.033,20.387c-0.003,0.026 -0.019,0.049 -0.019,0.078c0,0.071 0.019,0.15 0.036,0.237l0.038,0.419l-0.174,0.558l-0.18,0.602l0,0.442c0.003,0.108 0.01,0.21 0.01,0.305c0,0.261 -0.041,0.468 -0.232,0.563c-0.02,0.011 -0.059,0.015 -0.089,0.02c0.015,0.018 0.01,0.027 0.037,0.041c0.111,0.062 0.286,0.163 0.286,0.387c0,0.048 -0.005,0.098 -0.018,0.151l-0.016,0.042l-0.216,0.198c-0.165,0.137 -0.297,0.244 -0.305,0.451l0.065,0.313c0.029,0.12 0.059,0.237 0.059,0.351c0,0.108 -0.03,0.21 -0.109,0.302c-0.073,0.082 -0.228,0.105 -0.366,0.139c0.022,0.191 0.078,0.716 0.078,0.716l0.112,0.801l-0.265,0.013c-0.102,-0.013 -0.118,0.003 -0.187,0.092c0,0 -0.049,0.045 -0.103,0.086c0.046,0.123 0.081,0.25 0.081,0.427c0,0.231 -0.027,0.497 -0.051,0.801c-0.031,0.327 -0.065,0.696 -0.065,1.047c0,0.531 0.077,1.037 0.354,1.349l0.034,0.042l0,0.876l0.012,-0.005c0.875,-0.097 1.776,-0.208 2.599,-0.371c-0.039,-0.47 -0.154,-0.911 -0.278,-1.333l-0.24,-0.981l0.101,-0.49c0,0 0.03,-0.097 0.053,-0.175c-0.049,-0.021 -0.102,-0.045 -0.102,-0.045l-0.087,-0.399c0,0 0.076,0.006 0.154,0.008c-0.03,-0.045 -0.06,-0.079 -0.102,-0.162c-0.088,-0.06 -0.239,-0.183 -0.239,-0.365c0,-0.061 0.019,-0.129 0.063,-0.206c0.004,-0.006 0.18,-0.222 0.18,-0.222c0.11,-0.113 0.193,-0.201 0.193,-0.362c0,-0.046 -0.007,-0.108 -0.031,-0.179l-0.088,-0.317l0.558,0.178c0.019,0.009 0.03,0.005 0.05,0c-0.008,-0.016 -0.013,-0.027 -0.07,-0.053l-0.263,-0.23l-0.098,-0.283l-0.307,-0.349l0.221,-0.168l-0.017,0.005l0.017,-0.432l0.206,-0.015l0.363,0c0.026,-0.129 0.068,-0.353 0.068,-0.353l0.122,-0.748c0,0 0.139,0.077 0.147,0.084c0.016,-0.078 0.056,-0.148 0.098,-0.21c0.072,-0.083 0.108,-0.14 0.113,-0.191c-0.128,-0.014 -0.406,-0.049 -0.406,-0.296l0,-0.185c0,0 0.269,0.016 0.278,0.016c-0.041,-0.075 -0.106,-0.188 -0.106,-0.188l-0.354,-0.774c0,0 0.096,0.053 0.182,0.095l0.015,-0.082l0.259,-0.138c0.202,-0.111 0.312,-0.208 0.38,-0.338c-0.188,-0.006 -0.443,-0.042 -0.467,-0.279l-0.025,-0.161c0,0 0.528,-0.072 0.544,-0.072c-0.032,-0.006 -0.068,-0.192 -0.068,-0.192c0,0 -0.037,-0.168 -0.066,-0.296c-0.237,-0.031 -0.354,-0.156 -0.419,-0.271c-0.033,0.007 -0.161,0.064 -0.161,0.064c-0.138,0.042 -0.392,0.028 -0.535,-0.115c-0.04,-0.038 -0.073,-0.101 -0.082,-0.181c-0.032,0.015 -0.079,0.015 -0.116,0.035c-0.149,0.094 -0.34,0.204 -0.681,0.179l-0.208,-0.016l0.015,-0.167c0.004,-0.056 -0.005,-0.088 -0.015,-0.096c-0.008,-0.004 -0.043,-0.022 -0.155,-0.022Z" style="fill:#fff;fill-rule:nonzero;"/><path d="M172.954,20.387c-0.055,0.062 -0.08,0.149 -0.08,0.245c0,0.115 0.041,0.246 0.124,0.396l0.107,0.194l-0.258,0.047c-0.163,0.025 -0.213,0.133 -0.213,0.362c0,0.074 0.004,0.161 0.012,0.266l0.009,0.384l-0.185,0.593c-0.077,0.198 -0.156,0.415 -0.156,0.556c0,0.066 0.015,0.115 0.061,0.139l0.325,0.161l-0.342,0.139c-0.112,0.045 -0.21,0.121 -0.21,0.311c0,0.114 0.037,0.272 0.131,0.494l0.063,0.131l-0.199,0.093l-0.211,0.099c-0.017,0.029 -0.02,0.06 -0.02,0.101c0,0.099 0.043,0.238 0.094,0.363l0.112,0.433l-0.11,0.41l-0.07,0.432l0.063,0.109l0.176,0.549l-0.23,-0.025c-0.043,0.008 -0.173,0.029 -0.209,0.236c-0.008,0.038 -0.008,0.078 -0.008,0.117c0,0.286 0.169,0.588 0.276,0.638l0.417,0.18l-0.445,0.13c-0.378,0.112 -0.499,0.26 -0.499,0.49c0,0.146 0.043,0.319 0.108,0.537c0.07,0.236 0.15,0.489 0.15,0.746c0,0.133 -0.074,0.271 -0.12,0.408c0.249,0.043 0.514,0.113 0.656,0.342l0.095,0.157l-0.305,0.121c0.016,0.007 0.105,0.082 0.259,0.194l0.362,0.267l-0.353,0.084c-0.124,0.031 -0.197,0.085 -0.206,0.215c0.137,0.167 0.396,0.256 0.68,0.351c0.293,0.091 0.577,0.209 0.789,0.404c0.177,-0.009 0.747,-0.037 0.747,-0.037c0.261,0.008 0.449,-0.007 0.667,-0.12l0,-0.014c0,-0.07 0.034,-0.162 0.195,-0.236l0.124,-0.061l0.185,0.143l0.002,0.006c0.007,-0.073 0.028,-0.163 0.13,-0.223c0.047,-0.028 0.139,-0.061 0.269,-0.031l0.089,0.02l0.041,0.068c0.061,0.093 0.072,0.115 0.395,0.006c0.126,-0.043 0.276,-0.074 0.43,-0.094c-0.004,-0.01 -0.01,-0.03 -0.01,-0.03c-0.033,-0.062 -0.063,-0.121 -0.063,-0.188c0,-0.041 0.014,-0.081 0.047,-0.124c0.03,-0.034 0.111,-0.06 0.209,-0.078c-0.035,-0.063 -0.091,-0.126 -0.091,-0.187c0,-0.025 0.006,-0.053 0.014,-0.08c0.026,-0.058 0.085,-0.136 0.245,-0.18c0.038,-0.01 0.062,-0.01 0.086,-0.013c0,-0.01 -0.008,-0.021 -0.008,-0.026c0,-0.201 0.128,-0.348 0.229,-0.457l0.109,-0.137l0.386,0.137c0.006,-0.002 0.006,-0.01 0.006,-0.018c0,-0.026 -0.007,-0.064 -0.053,-0.099l-0.143,-0.039l0.161,-0.107c0.007,-0.021 0.009,-0.051 0.009,-0.08c0,-0.126 -0.082,-0.247 -0.17,-0.364l-0.074,-0.102l0.13,-0.128l0.315,-0.326c0,0 0.01,-0.011 0.01,-0.014c-0.178,-0.059 -0.33,-0.158 -0.403,-0.339l-0.082,-0.219l0.281,-0.005c0.252,-0.008 0.541,-0.016 0.642,-0.102c0,0 0,-0.006 0.004,-0.011c-0.275,-0.014 -0.53,-0.045 -0.699,-0.192l-0.391,-1.03c0,0 0.22,0.186 0.394,0.34c-0.044,-0.067 -0.257,-0.392 -0.257,-0.392l0.494,0.222c0,0 0.083,0.031 0.161,0.06c0.063,-0.189 0.2,-0.316 0.319,-0.391c0.068,-0.039 0.064,-0.071 0.091,-0.104c-0.12,-0.035 -0.248,-0.09 -0.248,-0.263l0.132,-0.278l0.046,-0.124c-0.003,0.009 -0.203,-0.081 -0.203,-0.081l-0.246,-0.107c-0.098,-0.051 -0.102,-0.119 -0.107,-0.181c-0.084,0.049 -0.166,0.098 -0.166,0.098l-0.496,-0.121l0.142,-0.083c0,0 0.045,-0.093 0.084,-0.176c-0.035,0.014 -0.074,0.014 -0.111,0.032l-0.001,0c-0.032,0.083 -0.11,0.159 -0.269,0.173l-0.032,0.005l-1.658,-0.236l-0.82,-0.068l-0.036,-0.07l-0.104,-0.186c-0.065,-0.126 -0.103,-0.175 -0.202,-0.183c0.031,0.096 0.074,0.16 0.131,0.22c0.092,0.094 0.173,0.189 0.173,0.323c0,0.063 -0.067,0.155 -0.102,0.236c0.056,0 0.117,0.003 0.117,0.003l0.489,0.1c0.018,0.009 0.052,0.214 0.059,0.261c0.058,0 0.122,0.002 0.122,0.002c0.171,-0.01 0.562,-0.035 0.607,0.279c0,0 0.014,0.102 0.022,0.124c0.068,0.05 0.131,0.1 0.131,0.1c0.011,0.011 0.028,0.335 0.028,0.335c0,0 -0.013,0.114 -0.013,0.12c0.008,0.002 0.07,0.038 0.07,0.038l0.29,0.254c0.001,0.006 0.165,0.647 0.165,0.647l0.02,0.114c0.082,0.38 0.11,0.652 0.11,0.852c0,0.364 -0.1,0.458 -0.18,0.488c0.004,0.029 0.03,0.062 0.03,0.086c0,0.184 -0.087,0.327 -0.151,0.441c-0.053,0.088 -0.088,0.154 -0.088,0.222c0,0.049 0.02,0.105 0.076,0.171l0.189,0.253l-0.358,0.012c-0.373,0.014 -0.406,0.086 -0.468,0.227c-0.075,0.166 -0.184,0.413 -0.767,0.498l-0.309,0.038l0.068,-0.248c0.094,-0.345 -0.052,-0.651 -0.192,-0.955l-0.17,-0.423c0,0.002 0.111,-0.324 0.111,-0.324l0.067,-0.138c-0.015,-0.207 -0.115,-0.266 -0.345,-0.406l-0.307,-0.204l0.139,-0.297c0,0 0.119,0.031 0.208,0.057c-0.026,-0.041 -0.026,-0.093 -0.059,-0.128c-0.075,-0.085 -0.13,-0.193 -0.16,-0.311c-0.053,0.019 -0.099,0.043 -0.159,0.033c-0.199,-0.021 -0.303,-0.165 -0.375,-0.278l-0.16,-0.262l0.362,0.017c0.164,0.012 0.2,-0.035 0.308,-0.222c0,0 0.043,-0.055 0.074,-0.09c-0.117,-0.018 -0.239,-0.027 -0.358,-0.014c-0.217,0.014 -0.479,0.035 -0.584,-0.161l-0.094,-0.159l0.415,-0.137c0.249,-0.076 0.481,-0.149 0.586,-0.294c0,0 0.191,-0.277 0.25,-0.365c-0.283,-0.162 -0.512,-0.41 -0.573,-0.807c-0.014,-0.075 -0.016,-0.153 -0.016,-0.235c0,-0.453 0.201,-0.898 0.645,-0.998l0.179,-0.042c0,0 0.024,0.076 0.053,0.135c0.019,-0.19 0.044,-0.382 0.044,-0.572c0,-0.459 -0.102,-0.884 -0.313,-1.257c-0.023,0.004 -0.037,0.021 -0.058,0.023c-0.207,0.01 -0.376,-0.095 -0.415,-0.269l-0.036,-0.124l0.19,-0.076l0.261,-0.106c0.114,-0.062 0.269,-0.139 0.439,-0.14c-0.022,-0.03 -0.025,-0.066 -0.066,-0.104c0,0 -0.094,-0.111 -0.164,-0.203c-0.022,0.046 -0.054,0.1 -0.109,0.132l-0.082,0.046l-0.367,-0.065c-0.289,-0.047 -0.609,-0.094 -0.764,-0.326l-0.19,-0.272l0.387,0.021c0.221,0.006 0.366,-0.032 0.476,-0.088c-0.018,-0.119 -0.11,-0.179 -0.32,-0.261c-0.208,-0.086 -0.475,-0.192 -0.551,-0.458l-0.072,-0.235l0.297,0.026c0.255,0.018 0.481,0.166 0.701,0.31c0.056,0.038 0.126,0.081 0.192,0.122c0.045,-0.062 0.113,-0.115 0.181,-0.154c0,0 0.03,-0.023 0.057,-0.041c-0.119,-0.071 -0.213,-0.155 -0.221,-0.263l0,-0.012c0,-0.094 0.072,-0.207 0.271,-0.254l0.114,-0.021l0,0.021l0.324,0.244c0.039,0.068 0.069,0.09 0.127,0.084c-0.005,-0.219 -0.118,-0.341 -0.26,-0.484c0,0 -0.096,-0.123 -0.177,-0.218c-0.886,0.011 -1.512,0.148 -1.719,0.412Zm1.654,6.846c0.065,-0.077 0.103,-0.147 0.116,-0.243c-0.058,-0.013 -0.122,-0.041 -0.174,-0.07c0.014,0.091 0.041,0.233 0.058,0.313Zm4.135,1.269c0.14,0.006 0.275,-0.001 0.371,-0.033c0.034,-0.013 0.019,-0.019 0.039,-0.029c-0.085,-0.036 -0.151,-0.08 -0.224,-0.13c-0.051,0.072 -0.117,0.135 -0.186,0.192Z" style="fill:#fff;fill-rule:nonzero;"/><path d="M153.389,17.852c-0.166,0.058 -0.36,0.115 -0.566,-0.007c-0.066,0.092 -0.109,0.227 -0.141,0.386c-0.059,0.259 -0.12,0.557 -0.378,0.695l-0.193,0.108l-0.08,-0.389l0.057,-0.076l-0.468,0.516c-0.258,0.223 -0.423,0.384 -0.423,0.583c0,0.062 0.016,0.125 0.05,0.194c0,0 -0.219,0.161 -0.25,0.182c-0.008,0.154 -0.018,0.355 -0.171,0.462c-0.031,0.023 -0.074,0.026 -0.118,0.036c0.022,0.197 0.08,0.36 0.155,0.528c0,0 0.059,0.144 0.086,0.211c0.014,-0.005 0.024,-0.012 0.033,-0.013c-0.003,-0.022 -0.092,-0.295 -0.092,-0.295l0.212,-0.043c0.181,0.007 0.302,-0.032 0.395,-0.091c-0.009,-0.006 -0.064,-0.04 -0.064,-0.04c-0.094,-0.048 -0.265,-0.138 -0.265,-0.371c0,-0.071 0.019,-0.156 0.056,-0.262l0.041,-0.11l0.117,0.003c0.377,0.006 0.639,-0.109 0.859,-0.376l0.077,-0.094l0.156,0.069l0.297,0.117c0,0 0.078,0.034 0.143,0.058l0,-0.003c0,-0.191 0.024,-0.434 0.266,-0.494l0.13,-0.035l0.061,0.124c0.061,0.132 0.184,0.203 0.284,0.299c0.032,-0.119 0.092,-0.226 0.252,-0.246l0.213,-0.031c0,0 -0.057,0.464 -0.057,0.468c0,-0.014 0.204,-0.014 0.204,-0.014l0.421,0.02l0.319,0.297l0.241,0.278l-0.092,0.163l-0.05,0.047l0.022,0.071c0.015,0.058 0.038,0.133 0.038,0.226c0,0.019 -0.017,0.043 -0.023,0.067c0.064,0 0.142,-0.008 0.142,-0.008l0.203,0.34c0,0 0.005,0.019 0.009,0.035c0.032,-0.019 0.06,-0.047 0.099,-0.051c0.157,-0.016 0.306,0.094 0.336,0.261l0.033,0.174l-0.173,0.03c-0.124,0.023 -0.203,0.102 -0.295,0.21l-0.458,0.445l0,-0.013c-0.041,0.169 -0.075,0.291 -0.092,0.353c0.036,0.338 0.152,0.582 0.349,0.728l-0.11,0.312l-0.443,-0.104c-0.096,-0.026 -0.238,-0.058 -0.353,-0.086c-0.012,0.089 -0.054,0.165 -0.095,0.223c0.005,-0.001 0.033,-0.011 0.033,-0.011c0.166,-0.067 0.36,-0.147 0.535,-0.067l0.514,0.605l-0.484,-0.125c-0.2,-0.031 -0.256,0.004 -0.273,0.022c-0.044,0.036 -0.033,0.188 -0.023,0.297c0.007,0.182 0.026,0.414 -0.158,0.526l-0.252,0.16l0,-0.348c-0.097,0.009 -0.186,0 -0.257,-0.036c-0.003,0.149 -0.152,0.199 -0.364,0.266c0,0 -0.095,0.031 -0.161,0.056c0.014,0.062 0.2,0.782 0.2,0.782l-0.321,-0.145l-0.201,-0.059c-0.052,0 -0.093,-0.018 -0.139,-0.031c0.035,0.038 0.077,0.079 0.114,0.109l0.573,0.583l-0.621,-0.161l-0.154,-0.038c0,0 0.002,0 0.002,0.003c0,0.019 -0.025,0.113 -0.025,0.113l-0.182,0.342l-0.592,0.048l0.143,-0.197c0,0 0.025,-0.056 0.046,-0.114c-0.296,0.172 -0.58,0.425 -0.592,0.582c0,0.004 -0.004,0.005 -0.004,0.011c0,0.02 0.012,0.056 0.088,0.105l-0.088,0.323c-0.086,-0.004 -0.124,0.033 -0.196,0.115l-0.271,0.174c0,0 -0.07,-0.036 -0.116,-0.065c-0.072,0.15 -0.212,0.232 -0.302,0.255c0,0 -0.027,0.013 -0.056,0.02c0.004,0.029 0.019,0.064 0.019,0.089c0,0.241 -0.161,0.341 -0.256,0.403c-0.066,0.042 -0.093,0.06 -0.093,0.11c0,0.032 0.008,0.069 0.025,0.124c0,0 0.044,0.144 0.086,0.28c0.009,0.002 0.027,0.027 0.027,0.027c-0.002,0.009 -0.002,0.015 -0.012,0.022c0.048,0.14 0.081,0.253 0.094,0.283c0.018,0.024 0.027,0.04 0.055,0.069c0.111,0.133 0.259,0.314 0.271,0.538c0.079,-0.111 0.203,-0.235 0.491,-0.172l0.036,0.016l0.029,0.021c0.145,0.118 0.207,0.118 0.358,-0.001l0.121,-0.096l0.103,0.115c0.162,0.174 0.194,0.433 0.194,0.721l0,0.056c0.013,-0.001 0.554,-0.147 0.554,-0.147l-0.014,0.133l0.155,0.453c0.054,0.209 0.104,0.411 0.218,0.498c0.017,-0.006 0.019,-0.026 0.043,-0.026c0.339,0.098 0.639,0.261 0.852,0.517c0.021,-0.006 0.03,-0.024 0.045,-0.03c0.109,-0.011 0.231,0.052 0.265,0.234l0.022,0.125l-0.06,0.021c0,0 -0.106,0.054 -0.193,0.099c0.08,0.021 0.162,0.047 0.214,0.139l0.067,0.075c0.022,-0.07 0.108,-0.144 0.22,-0.103c0.118,0.042 0.144,0.174 0.153,0.222l0.035,0.173c0,0 -0.106,0.017 -0.162,0.023l0,0.047l-0.026,0.297c0,0.002 -0.01,0.01 -0.015,0.016c0.077,0.037 0.151,0.095 0.22,0.156c0.077,0.076 0.18,0.18 0.248,0.176l0.549,-0.424l-0.149,0.496c-0.009,0.039 0.041,0.145 0.079,0.207c0.059,0.124 0.137,0.271 0.075,0.431c-0.043,0.092 -0.131,0.164 -0.265,0.201l-0.24,0.07l0.036,-0.29l0.015,-0.175c-0.014,-0.029 -0.117,-0.052 -0.183,-0.063c0,0 -0.034,-0.021 -0.047,-0.028c-0.014,0.126 -0.038,0.251 -0.07,0.343c0.025,0.004 0.046,0.009 0.076,0.033c0.05,0.035 0.067,0.081 0.067,0.129c0,0.067 -0.036,0.146 -0.073,0.217c-0.062,0.123 -0.062,0.162 -0.096,0.238c0.124,-0.02 0.235,-0.025 0.326,0.047c0.175,0.129 0.182,0.397 0.17,0.632l-0.014,0.235l-0.162,-0.076c0,0 -0.028,-0.008 -0.035,-0.011c0.014,0.011 0.213,0.198 0.213,0.198l-0.249,0.093l-0.131,0.075l0,0.014c0,0.059 -0.02,0.217 -0.04,0.353c0.012,0.007 0.031,0.008 0.04,0.015c0.091,0.083 0.105,0.207 0.105,0.311l0,0.039c0,0 0,0.027 0.002,0.051c0.014,-0.006 0.052,-0.015 0.052,-0.015c0,0 0.029,-0.006 0.038,-0.009c-0.003,-0.004 -0.004,-0.01 -0.004,-0.027c0,-0.02 0.004,-0.047 0.004,-0.047c0.018,-0.104 0.052,-0.327 0.268,-0.363l0.149,-0.024l0.041,0.147c0.024,0.085 0.029,0.158 0.029,0.228c0,0.235 -0.119,0.348 -0.208,0.434c-0.069,0.061 -0.096,0.095 -0.098,0.162c0.032,0.011 0.077,0.029 0.077,0.029c0.117,0.037 0.361,0.104 0.361,0.391c0,0.044 -0.003,0.097 -0.019,0.154l-0.057,0.227l-0.143,-0.104l-0.309,-0.201c-0.07,-0.072 -0.116,-0.115 -0.213,-0.109c-0.069,0.511 -0.138,1.052 -0.138,1.658c0,0.144 0.005,0.293 0.013,0.446c0.061,0.058 0.949,0.97 0.949,0.97l-1.523,0c0,0.038 -0.003,0.076 -0.003,0.113c0,0.447 0.125,0.767 0.282,1.097l0.153,0.333l-0.347,-0.096c-0.188,-0.047 -0.212,-0.002 -0.292,0.143c-0.073,0.146 -0.21,0.369 -0.562,0.32c-0.045,0.106 -0.092,0.22 -0.092,0.22c0,0 -0.066,0.008 -0.118,0.019l0,0.314c0.182,0.044 0.336,0.148 0.41,0.357l0.017,0.046l-0.022,0.091l-0.047,0.282c0.007,0.027 0.011,0.06 0.011,0.095c0,0.089 -0.029,0.195 -0.176,0.279l-0.104,0.056l-0.087,-0.082c-0.116,-0.107 -0.138,-0.244 -0.138,-0.361c0,-0.035 0.003,-0.069 0.003,-0.106c0,-0.032 0.008,-0.059 0.008,-0.081c0,-0.071 -0.041,-0.094 -0.104,-0.115c-0.057,0.109 -0.211,0.391 -0.211,0.391l-0.465,0.816c0,0 -0.065,-0.153 -0.093,-0.238c-0.055,0.156 -0.135,0.354 -0.332,0.318l-0.038,-0.005l-0.039,-0.026c-0.136,-0.104 -0.223,-0.091 -0.475,-0.04c0,0 -0.237,0.031 -0.395,0.056c-0.004,0.148 -0.015,0.423 -0.283,0.458c-0.233,0 -0.325,-0.148 -0.382,-0.232c-0.025,-0.04 -0.039,-0.04 -0.053,-0.054c-0.017,0.085 -0.051,0.167 -0.124,0.22c-0.144,0.1 -0.308,0.029 -0.466,-0.034c-0.169,-0.064 -0.336,-0.132 -0.477,-0.064c0.029,0.082 0.058,0.153 0.058,0.221c0,0.042 -0.007,0.075 -0.033,0.115c-0.043,0.071 -0.14,0.073 -0.222,0.085c-0.005,0.021 -0.007,0.049 -0.007,0.075c0,0.161 0.036,0.24 0.076,0.31l0.11,0.509l-0.133,0c-0.046,0.02 -0.096,0.026 -0.198,-0.022c0.003,0.026 0.006,0.061 0.006,0.061c0,0 -0.003,0.096 -0.006,0.176c0.032,-0.01 0.511,-0.137 0.511,-0.137l0.009,0.057c0.219,0.176 0.38,0.176 0.618,0.174c0,0 0.276,0.034 0.494,0.058c-0.022,-0.101 -0.026,-0.22 -0.068,-0.279l-0.36,-0.449c0,0 0.573,0.192 0.591,0.195c0,-0.021 0.002,-0.043 0.002,-0.043c0,-0.013 -0.002,-0.021 -0.002,-0.035c0,-0.108 0.013,-0.23 0.106,-0.318c0.043,-0.042 0.123,-0.082 0.24,-0.064l0.13,0.021l0.013,0.139c0.003,0.054 0.005,0.111 0.005,0.16c0,0.593 -0.252,0.932 -0.481,1.24c0.111,0.085 0.201,0.232 0.201,0.508l0,0.006c0.087,0.021 0.174,0.044 0.174,0.044c0.16,0.054 0.302,0.092 0.503,0.076c0.015,-0.11 0.054,-0.295 0.276,-0.301c0.316,0.077 0.38,0.003 0.5,-0.135l0.418,-0.473c0,0 -0.015,0.206 -0.025,0.35c0.063,-0.19 0.245,-0.289 0.411,-0.377c0.197,-0.102 0.31,-0.18 0.346,-0.321c-0.104,-0.132 -0.209,-0.186 -0.326,-0.231c-0.173,-0.057 -0.374,-0.128 -0.487,-0.481l0,-0.007c0,-0.039 -0.008,-0.358 -0.008,-0.358c0,0 0.002,-0.069 0.002,-0.129c-0.089,-0.006 -0.199,-0.02 -0.264,-0.124c-0.014,-0.023 -0.028,-0.068 -0.028,-0.118c0,-0.031 0.004,-0.072 0.019,-0.111c0.148,-0.166 0.283,-0.215 0.423,-0.196c0.167,0.017 0.328,0.132 0.438,0.318l0.106,0.174l-0.2,0.082c0.009,0.016 0.019,0.035 0.019,0.035c0.044,0.075 0.089,0.191 0.114,0.314c0.011,-0.02 0.023,-0.013 0.04,-0.055c0.044,-0.118 0.109,-0.294 0.314,-0.335c0.336,0.01 0.419,0.253 0.47,0.396c0.013,0.028 0.019,0.036 0.025,0.056c0.033,-0.114 0.072,-0.197 0.172,-0.302l0.094,-0.097c0.212,-0.234 0.289,-0.569 0.342,-0.897c-0.146,-0.004 -0.363,-0.032 -0.384,-0.278c0.049,-0.298 0.238,-0.392 0.375,-0.463l0.267,-0.138l-0.03,0.306c-0.004,0.025 -0.004,0.047 -0.004,0.065c0,0.071 0.02,0.121 0.041,0.147c0.012,0.01 0.039,0.01 0.056,0.012c0,-0.038 -0.003,-0.088 -0.003,-0.088c-0.007,-0.071 -0.014,-0.142 -0.014,-0.215c0,-0.134 0.027,-0.266 0.126,-0.347c0.054,-0.045 0.121,-0.062 0.198,-0.065c-0.006,-0.072 -0.038,-0.112 -0.101,-0.168c-0.087,-0.086 -0.211,-0.201 -0.211,-0.436c0,-0.028 0.002,-0.07 0.009,-0.107l0.03,-0.203l0.186,0.066c0.158,0.048 0.168,0.031 0.227,-0.075c0.064,-0.097 0.163,-0.259 0.401,-0.258c0,-0.037 0.013,-0.058 0.027,-0.092c-0.048,0.021 -0.091,0.041 -0.173,0.03l-0.114,-0.023l-0.019,-0.116c-0.058,-0.352 -0.011,-0.611 0.148,-0.776c0.131,-0.131 0.322,-0.182 0.577,-0.165c-0.01,-0.113 -0.065,-0.163 -0.157,-0.242c-0.12,-0.093 -0.289,-0.232 -0.289,-0.521c0,-0.028 0,-0.059 0.005,-0.087l0.036,-0.341l0.179,0.192l0.252,0.244c0.039,0.073 0.064,0.087 0.125,0.074c0.003,-0.01 0.012,-0.031 0.012,-0.04c0,-0.041 -0.025,-0.058 -0.084,-0.088l-0.417,-0.482l0.302,0c0.115,-0.033 0.19,-0.081 0.233,-0.153c0.095,-0.172 0.015,-0.476 -0.043,-0.7l-0.092,-0.359l0.253,0.047c0.079,0.015 0.087,0.005 0.142,-0.085c0,0 0.04,-0.04 0.077,-0.083c-0.025,-0.1 -0.052,-0.199 -0.052,-0.276c0,-0.103 0.015,-0.187 0.027,-0.264c0.003,-0.012 0.003,-0.019 0.004,-0.035c-0.102,0.114 -0.223,0.211 -0.359,0.215c-0.064,0 -0.228,-0.024 -0.306,-0.265l-0.055,-0.176l0.223,-0.049l0.151,-0.041c0.059,-0.061 0.078,-0.204 0.086,-0.366c-0.038,0.128 -0.115,0.348 -0.41,0.312l-0.157,-0.018l0.013,-0.168l0,-0.042c0,-0.114 -0.046,-0.18 -0.113,-0.269c-0.077,-0.11 -0.174,-0.248 -0.174,-0.48c0,-0.024 0,-0.051 0.001,-0.079l0.019,-0.158l0.149,0c0.025,0 0.034,0 0.082,-0.076c0.054,-0.08 0.149,-0.212 0.348,-0.224c0,-0.064 -0.041,-0.484 -0.041,-0.484l0.179,0.06l0.248,0c-0.018,-0.239 -0.123,-0.375 -0.264,-0.537l-0.296,-0.405l0.003,-0.065l-0.138,-0.433c-0.056,-0.142 -0.102,-0.258 -0.102,-0.352c0,-0.065 0.017,-0.117 0.077,-0.158c0.03,-0.03 0.065,-0.037 0.104,-0.04c-0.039,-0.049 -0.082,-0.094 -0.14,-0.142l-0.238,-0.266l0.01,-0.04c-0.001,-0.028 -0.001,-0.058 -0.001,-0.09c0,-0.177 0.07,-0.294 0.13,-0.419c-0.371,-0.21 -0.452,-0.684 -0.515,-1.117c0,0 -0.006,-0.04 -0.009,-0.058c-0.063,0.004 -0.118,0 -0.179,-0.042c-0.12,-0.08 -0.126,-0.218 -0.126,-0.335c0,-0.008 0,-0.018 0.002,-0.026c-0.019,0.007 -0.029,0.024 -0.044,0.024c-0.098,0.008 -0.22,-0.058 -0.248,-0.245c-0.112,-0.667 -0.414,-0.98 -0.976,-1.014l-0.144,-0.011l0.012,-0.07l-0.018,-0.335c0,0 0,-0.016 0.004,-0.022c-0.101,0.013 -0.191,0.011 -0.25,-0.055c-0.045,-0.041 -0.061,-0.094 -0.061,-0.152c0,-0.047 0.011,-0.095 0.022,-0.138c-0.052,0 -0.172,-0.011 -0.265,-0.174c0,-0.009 -0.067,-0.216 -0.115,-0.365c-0.181,-0.022 -0.476,-0.091 -0.602,-0.379l-0.074,-0.165l0.423,-0.166c0.475,-0.17 0.777,-0.304 0.777,-0.781c0,-0.035 -0.003,-0.071 -0.005,-0.106l-0.016,-0.218l0.205,0.034c0.117,0.018 0.149,-0.012 0.227,-0.101c0.083,-0.097 0.215,-0.232 0.472,-0.213c0.021,-0.092 0.048,-0.195 0.048,-0.195c0.025,-0.222 0.069,-0.463 0.257,-0.608c-0.004,-0.025 -0.006,-0.046 -0.006,-0.067c0,-0.143 0.03,-0.292 0.156,-0.383c0,0 0.177,-0.022 0.216,-0.027c-0.016,-0.108 -0.063,-0.223 -0.107,-0.298l-0.299,-0.545l0.555,0.3c0.077,0.051 0.134,0.077 0.176,0.095c-0.002,-0.008 -0.002,-0.023 -0.002,-0.034c0,-0.106 0.086,-0.174 0.157,-0.225c-0.086,-0.093 -0.14,-0.191 -0.14,-0.29c0,-0.07 0.013,-0.145 0.037,-0.222c0,0 0.013,-0.121 0.028,-0.225c-0.111,-0.02 -0.263,-0.064 -0.263,-0.278l0,-0.187c0,0 0.304,0.024 0.316,0.029c-0.027,-0.008 -0.074,-0.241 -0.074,-0.241c-0.031,-0.097 -0.059,-0.185 -0.059,-0.271c0,-0.058 0.015,-0.116 0.06,-0.162c0.034,-0.039 0.11,-0.098 0.243,-0.065l0.208,0.092c0.069,0.043 0.119,0.069 0.202,0.063c0.033,-0.078 0.072,-0.171 0.072,-0.171c0.074,-0.175 0.11,-0.275 0.11,-0.336c0,-0.031 -0.006,-0.058 -0.03,-0.071l-0.111,-0.097l0.054,-0.174c0.062,-0.102 0.195,-0.125 0.32,-0.117c0.034,-0.229 0.101,-0.635 0.101,-0.635l-0.171,-0.503l0.066,-0.018c0.021,-0.039 0.062,-0.129 0.099,-0.22c-0.032,0.008 -0.051,0.037 -0.084,0.043c-0.16,0.007 -0.302,-0.1 -0.331,-0.27l-0.023,-0.125c0,0 0.147,-0.063 0.165,-0.075c0.05,-0.097 0.128,-0.2 0.249,-0.261c-0.037,-0.379 -0.213,-0.615 -0.441,-0.858l-0.239,-0.253c0,0 0.099,-0.026 0.191,-0.048c-0.003,-0.002 -0.008,0 -0.01,-0.002c-0.077,-0.042 -0.098,-0.133 -0.103,-0.227c-0.026,0.035 -0.058,0.064 -0.109,0.074c0.007,0.038 0.023,0.084 0.023,0.128c0,0.093 -0.023,0.184 -0.075,0.265c-0.085,0.122 -0.23,0.192 -0.441,0.213l-0.269,0.025l0.1,-0.259c0.132,-0.353 0.162,-0.601 0.187,-0.853c-0.046,0.033 -0.096,0.05 -0.125,0.057l-0.222,0.077c0,0 0.005,-0.132 0.012,-0.218c-0.048,0.002 -0.1,0.011 -0.1,0.011c-0.147,0.021 -0.316,0.049 -0.42,-0.074c-0.031,-0.036 -0.064,-0.094 -0.064,-0.181c0,-0.031 0.003,-0.069 0.016,-0.106l0.03,-0.096c0,0 -0.088,0.047 -0.246,0.046c0.02,0.097 0.064,0.199 0.165,0.337l0.339,0.648c0,0 -0.095,0.004 -0.174,0.005c0.024,0.029 0.05,0.059 0.05,0.059c0.076,0.076 0.219,0.216 0.219,0.38c0,0.07 -0.026,0.146 -0.095,0.227l-0.068,0.084l-0.106,-0.032c-0.204,-0.059 -0.312,-0.212 -0.361,-0.408c-0.029,0.007 -0.062,0.014 -0.062,0.014c-0.062,0.031 -0.158,0.079 -0.256,0.034c-0.102,-0.046 -0.133,-0.157 -0.142,-0.192l-0.027,-0.097l0.07,-0.07c0.075,-0.085 0.112,-0.172 0.112,-0.27c0,-0.185 -0.112,-0.4 -0.262,-0.654c0,0 -0.057,-0.117 -0.113,-0.225c-0.095,0.016 -0.299,0.056 -0.299,0.056Zm2.079,0.149c0.037,0.034 0.055,0.092 0.089,0.142c0.012,-0.112 0.017,-0.162 0.028,-0.261c-0.099,-0.024 -0.196,-0.049 -0.196,-0.049c0,0 -0.026,-0.004 -0.039,-0.008c0.013,0.052 0.039,0.099 0.118,0.176Zm-5.242,3.251c-0.005,0.056 -0.019,0.173 -0.019,0.173c0.003,0.031 0.003,0.062 0.003,0.099c0,0.129 -0.017,0.272 -0.117,0.409c0.005,-0.004 -0.338,0.144 -0.338,0.144c0,0 -0.024,0.008 -0.047,0.015c0.009,0.022 0.009,0.037 0.039,0.079l0.143,0.339l-0.124,0.057c-0.058,0.059 -0.066,0.085 -0.076,0.116c0.176,0.036 0.263,0.164 0.302,0.247l0.045,0.072c0,0 0.02,0 0.026,-0.002c-0.017,-0.107 -0.031,-0.227 -0.031,-0.227c-0.016,-0.068 -0.029,-0.128 -0.029,-0.189c0,-0.096 0.023,-0.203 0.087,-0.382l0.048,-0.141l0.144,0.035c0.128,0.028 0.137,0.011 0.198,-0.135c0.057,-0.115 0.157,-0.303 0.404,-0.325l-0.005,-0.001c-0.037,-0.032 -0.104,-0.075 -0.104,-0.075l-0.31,-0.204c-0.073,-0.08 -0.124,-0.12 -0.239,-0.104Zm6.556,15.594c0,0.039 0.005,0.057 0.015,0.061c0,0 0.031,0.023 0.111,0.02c0.007,-0.035 0.014,-0.066 0.014,-0.066c-0.001,0.004 -0.108,-0.024 -0.108,-0.024c0,0 -0.027,-0.012 -0.03,-0.016c-0.002,0.005 -0.002,0.013 -0.002,0.025Z" style="fill:#fff;fill-rule:nonzero;"/><path d="M125.763,17.393c-0.013,0.13 -0.034,0.304 -0.034,0.304c-0.065,0.201 -0.122,0.388 -0.122,0.543c0,0.109 0.031,0.194 0.102,0.249l-0.106,0.313c0,0 -0.159,-0.064 -0.224,-0.09c-0.005,0.189 -0.075,0.333 -0.127,0.42c0.022,0.017 0.059,0.035 0.059,0.035l0.036,0.227c0,0.007 -0.179,0.221 -0.179,0.221l-0.12,0.118c-0.064,0.157 -0.104,0.374 -0.104,0.569c0,0.1 0.035,0.17 0.061,0.251c0.081,0.011 0.174,0.064 0.204,0.225l0.029,0.162l-0.158,0.037c-0.312,0.074 -0.439,0.365 -0.439,1.015c0,0.085 0.001,0.171 0.005,0.261l0,0.083l-0.058,0.056c-0.237,0.213 -0.303,0.475 -0.303,0.77c0,0.156 0.02,0.328 0.036,0.505l0.055,0.832l-0.223,-0.036l-0.076,-0.01l0,0.007c0,0.036 -0.024,0.205 -0.024,0.205c0,0.163 -0.009,0.351 -0.144,0.463c0,0 -0.05,0.009 -0.088,0.018c0.021,0.093 0.038,0.188 0.038,0.188c0,0.237 -0.188,0.341 -0.27,0.392l-0.03,0.011l-0.089,0l-0.308,0.039l-0.108,-0.095l-0.049,-0.059c-0.199,-0.053 -0.288,-0.005 -0.405,0.053l-0.403,0.101l-0.43,-0.166l-0.291,-0.126c-0.015,0.027 -0.265,0.144 -0.265,0.144l-0.072,0.037l-0.018,-0.07l-0.211,-0.111c-0.933,-0.129 -2.071,-0.23 -2.332,-0.153l-0.357,0.014l-0.114,-0.009l-0.39,-0.03c0.001,-0.006 -0.139,0.025 -0.139,0.025c-0.378,0.101 -1.042,0.029 -1.194,0.005l-0.271,-0.047c-0.048,-0.009 -0.077,0 -0.077,0l-0.157,0.042c-0.192,0.055 -0.657,0.098 -0.842,-0.092c-0.066,-0.069 -0.095,-0.166 -0.066,-0.261c0,0.007 0.097,-0.386 0.097,-0.386c0.101,-0.352 0.147,-0.511 -0.083,-0.94l-0.19,-0.35l0.476,0.131c-0.021,-0.046 0.146,-0.323 0.146,-0.323c0,0 0.051,0.003 0.066,0.003l-0.001,-0.016l-0.09,-0.541c0,0.004 0.141,-0.353 0.141,-0.353c-0.077,-0.038 -0.146,-0.113 -0.146,-0.214c0,-0.019 0.005,-0.043 0.009,-0.06c0,-0.004 0.171,-0.207 0.171,-0.207c0,0 0.112,-0.11 0.121,-0.118c-0.009,-0.001 -0.009,-0.084 -0.009,-0.084l-0.004,-0.143l0.133,-0.314c0,-0.017 -0.071,-0.285 -0.071,-0.285c0,0 -0.058,-0.299 -0.058,-0.301c0,0.002 0.164,-0.217 0.164,-0.217c0.07,-0.054 0.107,-0.079 0.114,-0.186l-0.036,-0.065c-0.046,-0.058 -0.113,-0.148 -0.113,-0.293c0,-0.033 0.003,-0.065 0.01,-0.104l0.182,-0.292c0.043,-0.05 0.05,-0.068 0.071,-0.101c-0.152,-0.003 -0.37,-0.033 -0.396,-0.279l-0.026,-0.218l0.209,0.027c0.102,0.012 0.125,0.016 0.169,-0.273c0,0 0.016,-0.077 0.038,-0.142c-0.141,-0.035 -0.252,-0.089 -0.339,-0.148c-0.083,-0.062 -0.163,-0.097 -0.265,-0.11c0,0.187 -0.054,0.327 -0.093,0.437c-0.031,0.079 -0.049,0.122 -0.049,0.164c0,0.04 0.02,0.072 0.068,0.116l-0.181,0.284c0,0 -0.02,-0.006 -0.039,-0.01c-0.002,0.026 -0.002,0.049 -0.002,0.049l0,0.04c0,0.107 -0.009,0.231 -0.102,0.311c-0.002,0.001 -0.015,0.001 -0.018,0.005c0.011,0.059 0.043,0.128 0.043,0.171c0,0.073 -0.017,0.137 -0.024,0.19c-0.008,0.042 -0.014,0.069 -0.014,0.105c0,0.051 0.018,0.103 0.075,0.189l0.108,0.15c0,0 -0.2,0.1 -0.226,0.116c-0.025,0.068 -0.066,0.136 -0.111,0.192c0.051,0.032 0.098,0.089 0.117,0.193l0.024,0.12c0,0 -0.16,0.069 -0.168,0.083c-0.051,0.092 -0.125,0.188 -0.237,0.25c0.015,0.065 0.059,0.145 0.059,0.209c0,0.172 -0.064,0.321 -0.115,0.448c-0.046,0.116 -0.089,0.215 -0.089,0.316c0,0.08 0.027,0.163 0.082,0.256l0.113,0.204l-0.267,0.063l-0.085,0.018c-0.088,0.081 -0.094,0.359 -0.101,0.581l-0.072,0.592c-0.004,0.003 -0.2,0.294 -0.238,0.353c0.059,0.057 0.113,0.135 0.113,0.26c0,0.033 -0.007,0.065 -0.012,0.102c-0.031,0.106 -0.124,0.14 -0.236,0.181c0,0 -0.017,0.005 -0.039,0.014c0.006,0.072 0.039,0.117 0.103,0.168l0.145,0.274l-0.237,0.458l-0.115,-0.116c-0.175,-0.089 -0.458,-0.077 -0.764,-0.067c-0.321,0.015 -0.687,0.026 -1.046,-0.066l-0.207,-0.182c0,0 -0.088,-0.099 -0.099,-0.113c0,0.02 -0.126,0.067 -0.126,0.067l-0.241,0.085l-0.174,-0.088c-0.047,-0.04 -0.081,-0.054 -0.112,-0.062c-0.005,0.094 -0.019,0.215 -0.121,0.275l-0.25,0.161l-0.069,-0.308l0,-0.231c-0.365,0.07 -3.648,0.693 -3.648,0.693l-0.969,0.164c0,0 -0.019,-0.053 -0.03,-0.105c-0.058,0.019 -0.112,0.031 -0.178,-0.004c-0.064,-0.035 -0.108,-0.099 -0.126,-0.193l0,-0.003c0,-0.071 0.098,-0.994 0.098,-0.994c0.046,-0.527 0.088,-1.03 0.192,-1.282c0.092,-0.235 0.126,-0.574 0.158,-0.906l0.121,-0.822c0.019,-0.094 0.103,-0.122 0.218,-0.169l0.11,-0.052c0.018,-0.057 0.09,-0.612 0.09,-0.729l0,-0.007c-0.008,-0.095 -0.072,-0.93 -0.562,-1.004c0.009,0 0.012,0.011 0.012,0.024c0,0.03 -0.016,0.076 -0.016,0.076c-0.026,0.081 -0.094,0.205 -0.221,0.275c0.005,0.051 0.018,0.111 0.018,0.161c0,0.371 -0.143,0.66 -0.268,0.907c-0.102,0.198 -0.188,0.365 -0.188,0.544c0,0.114 0.033,0.231 0.119,0.369l0.119,0.191l-0.214,0.064c-0.156,0.044 -0.236,0.34 -0.277,0.496l-0.041,0.128c-0.049,0.126 -0.065,0.211 -0.065,0.288c0,0.063 0.015,0.125 0.031,0.192l0.046,0.493l-0.077,0.504c-0.054,0.268 -0.099,0.546 -0.099,0.822c0,0.122 0.01,0.243 0.032,0.365l0.01,0.062l-0.03,0.055c-0.166,0.317 -0.53,0.359 -0.847,0.392l-0.486,0.109c0,0.007 -0.043,0.112 -0.043,0.112c-0.044,0.122 -0.106,0.314 -0.296,0.347l-0.223,0.038l0.041,-0.342c-0.032,-0.016 -0.214,0.002 -0.313,0.015c0,0 -0.088,-0.003 -0.171,-0.003c0.018,0.06 0.029,0.127 0.072,0.189c0,0 0.062,0.128 0.109,0.227c0.046,0.014 0.093,0.021 0.123,0.054c0.043,-0.04 0.088,-0.07 0.16,-0.081l0.164,-0.03l0.029,0.167c0.022,0.123 0.137,0.157 0.447,0.202c0,0 0.088,0.022 0.17,0.042c-0.015,-0.04 -0.043,-0.087 -0.043,-0.137c0,-0.031 0.005,-0.062 0.025,-0.089c0.042,-0.11 0.145,-0.141 0.18,-0.151l0.108,-0.034l0.115,0.151c0.053,-0.065 0.144,-0.123 0.251,-0.08c0.114,0.045 0.149,0.18 0.164,0.231l0.007,0.037c0,0 -0.352,1.824 -0.402,2.056c0.107,0.021 0.249,0.069 0.258,0.267l0.007,0.207l-0.199,-0.031c-0.066,-0.011 -0.1,0 -0.104,0.003c-0.007,0.006 -0.02,0.033 -0.02,0.096c0,0.193 0.114,0.463 0.141,0.504l0.063,0.098l-0.038,0.043l-0.163,0.217c-0.064,0.053 -0.105,0.085 -0.111,0.188c0,0.032 0.014,0.104 0.014,0.104l0.017,0.057l0.039,0.106l-0.101,0.259c0.009,-0.019 0.084,0.129 0.084,0.129l0.119,0.281l-0.095,0.075l-0.077,0.153c0,0.007 -0.104,0.471 -0.104,0.471l-0.044,0.144l-0.091,0.574l0.047,0.395c0,0 0.011,0.075 0.027,0.149c0.061,0.008 0.133,0.045 0.199,0.105c0.062,-0.015 0.154,-0.035 0.154,-0.035c0.107,-0.067 0.206,-0.037 0.318,0.019c0.044,-0.029 0.09,-0.04 0.143,-0.044l0,-0.028c0.027,-0.061 0.092,-0.113 0.164,-0.149c0.01,-0.083 0.023,-0.18 0.023,-0.18l0.114,-0.481c0.207,-0.563 0.224,-1.498 0.224,-2.49l0,-0.357l0.05,-1.466l0.078,-0.253l0.06,-0.187l-0.034,-0.069l-0.127,-0.387l0.042,-0.027l0.13,-0.414l0.017,-0.091c0.041,-0.186 0.089,-0.395 0.38,-0.462l0.054,-0.015l0.05,0.018c0.267,0.107 0.446,0.109 0.77,0.114c0,0 0.262,0.011 0.437,0.018c0.01,-0.099 0.035,-0.184 0.11,-0.228c0.112,-0.068 0.215,-0.008 0.28,0.032l0.169,0.051l0.448,-0.103c0,0 -0.025,0.113 -0.051,0.207c0.064,-0.031 0.113,-0.072 0.176,-0.128c0.126,-0.117 0.286,-0.264 0.574,-0.264c0.174,0.016 0.239,0.118 0.28,0.205c0.014,-0.151 0.054,-0.32 0.261,-0.347l0.075,-0.011l0.075,0.06c0,0 0.098,0.087 0.104,0.089c0,-0.016 0.071,-0.107 0.071,-0.107c0.077,-0.117 0.182,-0.279 0.373,-0.321l0.311,-0.07l-0.109,0.249l-0.103,0.263c0.235,0.006 0.764,0.017 0.764,0.017c0.579,-0.022 1.172,-0.022 1.618,0.411c0.132,0.002 0.208,-0.048 0.307,-0.119l0.325,-0.169l0.159,0.288l-0.004,0.002c0.145,0.036 0.282,0.092 0.332,0.272c0.011,0.035 0.016,0.071 0.016,0.103c0,0.153 -0.111,0.256 -0.163,0.302c-0.01,0 -0.076,0.466 -0.076,0.466l-0.068,0.532c0,0.008 -0.156,0.215 -0.156,0.215l-0.119,0.202c-0.003,0.001 -0.003,0.27 -0.003,0.27l0.003,0.372l-0.046,0.024c-0.264,0.278 -0.304,0.632 -0.304,1.043c0,0.084 0.004,0.17 0.005,0.256c0,0.094 0.001,0.185 0.001,0.276c0,0.267 -0.013,0.542 -0.084,0.818l-0.017,0.378l0.021,0.468c0,0.005 -0.142,0.582 -0.142,0.582c0,0 -0.053,0.201 -0.089,0.373c0.216,-0.017 0.346,0.192 0.399,0.28l0.037,0.062c0.108,0.007 0.167,-0.056 0.172,-0.062c0,0 0.183,0.143 0.23,0.184c0.189,0.002 0.352,-0.015 0.461,-0.078c-0.027,-0.137 -0.053,-0.278 -0.053,-0.406c0,-0.258 0.041,-0.499 0.082,-0.718c0.035,-0.202 0.066,-0.388 0.066,-0.559c0,-0.204 -0.043,-0.4 -0.191,-0.588l-0.229,-0.309l0.397,0.035c-0.008,-0.028 -0.028,-0.053 -0.028,-0.084c0,-0.038 0.009,-0.081 0.036,-0.118c0.038,-0.057 0.106,-0.061 0.176,-0.077c-0.02,-0.064 -0.034,-0.124 -0.034,-0.173c0,-0.088 0.037,-0.151 0.134,-0.245c0,0 0.034,-0.031 0.068,-0.064c-0.06,-0.147 -0.116,-0.292 -0.116,-0.433c0,-0.344 0.144,-0.672 0.28,-0.97c0.135,-0.294 0.253,-0.56 0.253,-0.829c0,-0.128 -0.03,-0.257 -0.098,-0.386l-0.132,-0.255l0.375,0c-0.015,-0.136 -0.03,-0.287 -0.03,-0.287l-0.107,-0.472l0.102,-0.093c0.495,-0.271 0.651,-0.275 1.074,-0.19c0.051,-0.194 0.22,-0.278 0.319,-0.303l0.202,-0.081l0.118,-0.01l0.206,0.153c0.174,0.135 0.197,0.147 0.304,0.033c0,0 0.253,0.089 0.275,0.096c0.008,-0.005 0.041,-0.027 0.041,-0.027c0.116,-0.055 0.189,-0.093 0.221,-0.162l0.316,0.088c0,0 -0.004,0.087 -0.004,0.119c0.018,-0.03 0.109,-0.065 0.109,-0.065c0.129,-0.054 0.29,-0.12 0.41,-0.008c0.042,0.041 0.048,0.091 0.053,0.148c0.364,-0.098 0.712,0.004 1,0.123c0.136,0.056 0.253,0.079 0.373,0.105c0,0 -0.009,-0.006 -0.009,-0.013l0,-0.147l0.142,-0.024c0.612,-0.091 0.935,0.13 1.224,0.322c0,0 0.383,0.187 0.477,0.235c0.129,-0.096 0.299,-0.096 0.426,-0.084c0,0 0.124,-0.005 0.173,-0.007c0.007,-0.111 0.019,-0.214 0.104,-0.276c0.043,-0.035 0.108,-0.067 0.214,-0.041l0.049,0.016l0.037,0.041c0.061,0.075 0.096,0.073 0.246,0.022c0.064,-0.022 0.148,-0.054 0.248,-0.054c-0.009,-0.028 -0.023,-0.044 -0.023,-0.072c0,-0.031 0.005,-0.062 0.018,-0.089c0.043,-0.11 0.148,-0.141 0.185,-0.151l0.079,-0.026l0.067,0.05c0.159,0.119 0.207,0.26 0.207,0.397c0,0.141 -0.044,0.269 -0.078,0.374c0,0 -0.036,0.145 -0.05,0.2c0.055,0.05 0.134,0.143 0.134,0.3c0,0.017 0,0.031 -0.004,0.048c0,0.002 -0.223,0.838 -0.223,0.838c0,0 -0.176,0.637 -0.192,0.703c0.065,0.055 0.139,0.13 0.139,0.276c0,0.03 -0.003,0.056 -0.007,0.084c0,0.003 -0.123,0.187 -0.123,0.187l-0.019,0.065l0.045,0.109l0.098,0.34l-0.093,0.293l0.093,0.086l-0.003,0.192c-0.024,0.043 -0.079,0.051 -0.13,0.08c0.011,0.053 0.023,0.112 0.023,0.112l0.042,0.243c0,0.16 -0.081,0.249 -0.147,0.293c-0.043,0.025 -0.443,0.004 -0.443,0.004l-0.204,-0.392c0,0 -0.005,-0.028 -0.01,-0.04c-0.017,0.233 -0.041,0.498 -0.041,0.498c-0.026,0.164 -0.051,0.337 -0.051,0.469c0,0.102 0.015,0.186 0.058,0.235c0.066,0.073 0.217,0.1 0.441,0.079l0.182,-0.016l0,0.554c0.052,-0.007 0.109,-0.025 0.159,-0.021c-0.034,-0.049 -0.071,-0.095 -0.071,-0.145c0,-0.03 0.003,-0.058 0.003,-0.076l0.01,-0.087c0,0 0.109,-0.047 0.14,-0.059c0.055,-0.129 0.108,-0.258 0.26,-0.295c0,0 0.091,0.017 0.175,0.033c0.018,-0.083 0.05,-0.167 0.089,-0.232c-0.101,-0.056 -0.26,-0.158 -0.26,-0.316c0,-0.03 0.007,-0.071 0.025,-0.11l0.028,-0.067l0.07,-0.026c0.043,-0.019 0.089,0.007 0.137,0.014c-0.023,-0.092 -0.068,-0.167 -0.205,-0.317l-0.167,-0.182l0.227,-0.095c0.117,-0.046 0.289,-0.107 0.436,-0.025c0.034,0.024 0.052,0.06 0.077,0.09c-0.018,-0.052 -0.053,-0.095 -0.053,-0.164l0,-0.045l0.028,-0.317l0.265,0.214c-0.001,-0.068 -0.003,-0.138 -0.003,-0.138l-0.039,-0.137l0.016,-0.303l0.025,-0.083l0.121,-0.9c0.014,-0.265 0.042,-0.537 0.118,-0.807c-0.109,-0.026 -0.243,-0.075 -0.243,-0.275l0,-0.175l0.165,0.002c0.054,0 0.072,0 0.12,-0.221c0.021,-0.137 0.071,-0.365 0.26,-0.457c-0.012,-0.144 -0.032,-0.281 -0.087,-0.347l-0.283,-0.362l0.443,0.08c0.134,0.025 0.149,-0.002 0.203,-0.086c0.044,-0.08 0.14,-0.248 0.364,-0.202c0,0 0.022,0.004 0.04,0.007c0.02,-0.107 0.059,-0.214 0.166,-0.281c0.107,-0.06 0.234,-0.065 0.385,-0.009l0.14,0.049l-0.048,0.238c0.026,0.037 0.237,0.052 0.361,0.003l0.076,-0.079l0.233,-0.254l0.046,0.033l0.482,0c0.288,-0.01 0.572,-0.003 0.802,0.077c0.03,-0.106 0.08,-0.214 0.254,-0.224l0.091,-0.004l0.052,0.078c0.028,0.04 0.032,0.05 0.172,0.011c0.121,-0.031 0.302,-0.034 0.49,0.041c0.099,-0.094 0.241,-0.132 0.378,-0.13c-0.017,-0.055 -0.047,-0.111 -0.047,-0.179c0,-0.023 0.007,-0.048 0.019,-0.08c0.044,-0.119 0.176,-0.154 0.227,-0.168l0.112,-0.031c0,0 0.072,0.119 0.08,0.122c0,-0.01 0.062,-0.038 0.062,-0.038c0.072,-0.039 0.17,-0.09 0.274,-0.045c0.009,0.006 0.168,0.198 0.168,0.198l0.05,0.092c0.024,-0.137 0.142,-0.342 0.446,-0.303c0.131,0.023 0.152,0.144 0.165,0.217l0.039,0.138c-0.006,-0.05 0.07,-0.087 0.07,-0.087l1.048,-0.34l-0.041,0.255l0,0.03c0,0.086 0.041,0.141 0.075,0.206c0.049,-0.013 0.109,-0.033 0.109,-0.033l0.177,-0.092l0.056,0.015l0.317,-0.001l0.041,0.017l0.111,0.176l0.06,0.144c0,0 0.008,-0.003 0.012,-0.004c0.034,-0.157 0.137,-0.696 0.137,-0.696c0.073,-0.284 0.15,-0.554 0.15,-0.896c0,-0.06 -0.012,-0.129 -0.014,-0.198c-0.55,-0.234 -1.474,-0.234 -2.308,-0.222c0,0 -1.192,-0.028 -1.312,-0.028c-0.33,0.297 -0.867,0.35 -1.399,0.39c0,0 -0.422,0.042 -0.454,0.042c-0.424,0.317 -0.901,0.383 -1.402,0.436c-0.405,0.047 -0.831,0.088 -1.255,0.279l-0.163,0.073c0,0 -0.022,-0.076 -0.044,-0.143c-0.057,0.019 -0.114,0.031 -0.177,-0.007c-0.065,-0.032 -0.108,-0.098 -0.128,-0.193l-0.017,-0.075l0.037,-0.041l0.264,-0.32c0.146,-0.144 0.263,-0.259 0.281,-0.48c-0.005,0.024 -0.16,-0.265 -0.16,-0.265c-0.131,-0.196 -0.251,-0.387 -0.198,-0.565c0.02,-0.061 0.065,-0.14 0.176,-0.188l0.131,-0.054l0.133,0.22c0.005,-0.031 0.074,-0.198 0.074,-0.327c0,-0.026 -0.003,-0.048 -0.011,-0.068c0,0.002 -0.063,-0.06 -0.063,-0.06l-0.3,-0.296l0.098,-0.069c0.25,-0.439 0.466,-0.897 0.607,-1.432c-0.056,0.022 -0.119,0.049 -0.2,0.014c-0.104,-0.05 -0.131,-0.157 -0.142,-0.193l-0.024,-0.1l0.073,-0.069c0.139,-0.138 0.22,-0.313 0.202,-0.429c-0.01,-0.022 -0.02,-0.098 -0.159,-0.162l0.109,-0.321c0.106,0.023 0.116,0.009 0.174,-0.08c0.057,-0.079 0.149,-0.176 0.31,-0.208c-0.028,-0.139 -0.059,-0.28 -0.059,-0.42c0,-0.318 0.052,-0.645 0.102,-0.978c0,0 0.071,-0.648 0.097,-0.886c-0.127,-0.016 -0.246,-0.052 -0.349,-0.095c-0.245,-0.105 -0.261,-0.084 -0.302,-0.005Zm-8.927,9.563c0,0 0.061,-0.047 0.122,-0.085c-0.061,-0.02 -0.274,-0.096 -0.274,-0.096l0.152,0.181Zm7.358,4.77l0.034,0.125l0,0.001c0,0.009 0.082,-0.089 0.082,-0.089c-0.054,-0.037 -0.096,-0.081 -0.14,-0.13c0.01,0.032 0.019,0.066 0.024,0.093Z" style="fill:#fff;fill-rule:nonzero;"/><path d="M49.857,16.942l-0.489,0.339l-0.077,-0.156c-0.074,-0.118 -0.404,-0.09 -0.678,-0.069l-0.517,0c-0.169,0.251 -0.373,0.225 -0.547,0.182c0,0 -0.136,-0.01 -0.266,-0.022c0.013,0.015 0.341,0.315 0.341,0.315l-0.233,0.09c-0.522,0.293 -0.861,0.033 -1.164,-0.193c0,0 -0.019,-0.019 -0.032,-0.029c-0.216,0.26 -0.597,0.272 -0.916,0.245l-0.36,-0.004l-0.461,0.139l-0.54,0.152l-0.302,-0.084l-0.263,-0.064l-0.887,0.157c-0.814,0.15 -0.819,0.149 -0.882,0.125l-0.152,-0.063c0,0 0.073,-0.218 0.077,-0.219c-0.007,0 -0.05,-0.004 -0.05,-0.004c-0.252,-0.067 -0.332,-0.003 -0.45,0.095c-0.113,0.094 -0.251,0.211 -0.505,0.199c-0.56,0.092 -1.157,0.008 -1.682,-0.065l-0.724,-0.077l-0.214,0.054l-0.437,0.11l-0.047,-0.117l-0.071,-0.064c-0.192,-0.046 -0.378,0.011 -0.533,0.056c-0.151,0.044 -0.293,0.09 -0.42,-0.002c-0.056,-0.043 -0.087,-0.103 -0.108,-0.17c-0.518,0.098 -0.991,0.042 -1.526,-0.044c-0.525,-0.083 -1.116,-0.176 -1.864,-0.114l-0.209,0.014l0.033,-0.216c0.005,-0.046 0.001,-0.077 -0.005,-0.087c-0.054,-0.052 -0.297,-0.027 -0.415,-0.016l-0.289,0.01l-0.986,-0.289c-0.276,-0.02 -0.544,0.051 -0.723,0.1l-0.269,0.046c-0.083,0 -0.145,-0.07 -0.175,-0.11c-0.029,-0.034 -0.032,-0.039 -0.076,-0.036c-0.744,0.076 -0.966,0.279 -1.16,0.522l-0.049,0.062l-0.016,-0.015l-0.403,0.015c0,0 -0.057,-0.006 -0.116,-0.009c0.008,0.018 0.031,0.023 0.039,0.037c0.023,0.051 0.037,0.103 0.037,0.158c0,0.048 -0.01,0.103 -0.035,0.148c-0.047,0.121 -0.168,0.118 -0.274,0.106c0.001,0.045 0.001,0.151 0.001,0.151c-0.109,0.452 -0.479,0.996 -0.678,1.29c0,0 -0.01,0.018 -0.023,0.031c0.013,0.087 0.021,0.178 0.021,0.256c0,0.266 -0.045,0.481 -0.091,0.691c0,0 -0.076,0.499 -0.078,0.506c0.089,-0.075 0.19,-0.159 0.19,-0.159l-0.044,0.422c-0.003,0.019 -0.006,0.038 -0.006,0.052c0,0.093 0.055,0.122 0.305,0.17c0,0 0.055,0.008 0.093,0.016c0.113,-0.049 0.311,-0.132 0.311,-0.132c0,0 0.139,-0.054 0.226,-0.087c-0.069,-0.291 -0.118,-0.58 -0.118,-0.86c0,-0.807 0.269,-1.52 0.757,-1.929c0.444,-0.192 0.624,-0.039 0.731,0.111c0.032,-0.073 0.076,-0.14 0.152,-0.171c0.068,-0.031 0.167,-0.04 0.306,0.044c0.01,0.008 0.341,0.429 0.341,0.429l0.287,0.449l-0.287,0.02c-0.207,0.009 -0.288,0.271 -0.369,0.583l-0.047,0.176l-0.074,0.168c-0.055,0.11 -0.084,0.174 -0.06,0.328l0.036,0.231l-0.228,-0.032c-0.082,-0.013 -0.092,0.002 -0.147,0.088c0,0 -0.046,0.049 -0.09,0.097c-0.003,0.057 -0.013,0.174 -0.013,0.174c-0.013,0.347 -0.058,0.792 -0.44,0.904c0,0.011 -0.005,0.016 -0.005,0.024c0,0.051 0.038,0.109 0.088,0.198c0.048,0.069 0.099,0.159 0.099,0.255c0,0.031 -0.005,0.06 -0.014,0.091c-0.056,0.138 -0.205,0.182 -0.253,0.202c0,0 -0.087,0.021 -0.137,0.035c-0.083,0.382 -0.123,0.751 -0.134,1.131l-0.034,0.716c-0.037,0.207 -0.162,0.301 -0.279,0.364c0.004,0.043 0.009,0.09 0.009,0.133c0,0.454 -0.14,0.838 -0.272,1.209c-0.127,0.35 -0.245,0.687 -0.245,1.065c0,0.156 0.022,0.327 0.072,0.506l0.062,0.223l-0.23,-0.005c-0.101,-0.005 -0.166,0.042 -0.239,0.084l0,0.009l-0.116,0.409l-0.044,0.104c0,0.005 -0.052,0.295 -0.052,0.295l-0.098,0.453c-0.007,0.011 -0.231,0.155 -0.231,0.155c0,0 -0.027,0.009 -0.048,0.02c-0.007,0.03 -0.008,0.065 -0.008,0.065l0.032,0.429l-0.031,0.323l-0.147,-0.021l-0.205,0c0.024,0.085 0.051,0.179 0.051,0.179l-0.126,0.448c-0.067,0.147 -0.134,0.281 -0.134,0.485l0.015,0.222l-0.246,0.266l-0.201,0.195c0.044,-0.022 0.163,0.208 0.163,0.208l0.055,0.108l-0.075,-0.026l-0.091,0.105l-0.195,0.19c0,0.002 -0.263,0.672 -0.263,0.672c-0.008,0.154 -0.137,0.23 -0.227,0.277c0.013,0.032 0.043,0.056 0.043,0.09c0,0.046 -0.02,0.197 -0.258,0.212c-0.041,0.103 -0.12,0.207 -0.248,0.261c0.003,0.026 0.015,0.055 0.015,0.077c0,0.309 -0.187,0.402 -0.392,0.453l-0.127,0.041l-0.103,0.175l-0.172,0.256c-0.33,0.314 -0.663,0.264 -0.981,0.224l-0.504,-0.039l-0.056,-0.097c-0.102,-0.254 -0.299,-0.375 -0.53,-0.511l-0.428,-0.304c-0.092,-0.076 -0.065,-0.213 -0.05,-0.305l0.002,0c0,-0.008 -0.255,-0.161 -0.255,-0.161c0,-0.006 -0.106,-0.36 -0.106,-0.36l-0.05,-0.251c-0.003,0.005 -0.073,-0.085 -0.073,-0.085l-0.221,-0.384l0.003,-0.395l0.002,-0.317l-0.096,-0.129c-0.087,-0.098 -0.21,-0.242 -0.21,-0.42c0,-0.043 0.009,-0.087 0.029,-0.142c0,0 -0.012,-0.591 -0.015,-0.726c-0.093,-0.076 -0.245,-0.183 -0.245,-0.183c-0.098,-0.102 -0.149,-0.12 -0.27,-0.066c-0.016,0.161 -0.023,0.321 -0.023,0.474c0,0.451 0.04,0.855 0.084,1.279c0,0 0.064,1.233 0.075,1.472c0.098,0.016 0.286,0.057 0.291,0.278c-0.002,0.031 -0.003,0.066 -0.003,0.099c0,0.319 0.189,0.504 0.393,0.708c0.184,0.178 0.398,0.388 0.398,0.674c0,0 -0.004,0.009 -0.004,0.014c0.026,-0.017 0.059,-0.014 0.092,-0.033l0.313,-0.211l-0.061,0.38c-0.005,0.036 -0.005,0.069 -0.005,0.095c0,0.184 0.105,0.234 0.324,0.321c0.173,0.07 0.364,0.192 0.458,0.42c0.382,0.037 0.695,0.137 1,0.236c0,0 0.443,0.128 0.566,0.166c0.346,-0.369 0.77,-0.72 1.292,-1.06l0,-0.626l0.196,-0.037l0.187,-0.052c0.069,-0.053 0.168,-0.101 0.302,-0.11c0.01,-0.144 0.063,-0.242 0.113,-0.316l0.073,-0.261l0.047,-0.1l0.248,-0.168c0,0 0.142,-0.118 0.221,-0.181l-0.004,-0.012c0,-0.087 0.021,-0.179 0.033,-0.206c0.056,-0.168 0.169,-0.257 0.299,-0.305c0.002,-0.083 0.012,-0.236 0.012,-0.236c0,-0.046 -0.003,-0.091 -0.003,-0.134c0,-0.236 0.022,-0.474 0.162,-0.629c0.06,-0.076 0.153,-0.066 0.261,-0.053c0.016,-0.133 0.044,-0.389 0.044,-0.389l0.083,-0.655l0.141,-0.223l0.141,-0.206c0.077,-0.322 0.189,-0.489 0.414,-0.615c-0.006,-0.047 -0.009,-0.093 -0.009,-0.131c0,-0.234 0.045,-0.42 0.094,-0.601c0.041,-0.161 0.079,-0.321 0.079,-0.52c0,-0.073 -0.002,-0.151 -0.02,-0.238l-0.033,-0.227l0.327,0.04l-0.005,-0.002c0,-0.029 0.022,-0.141 0.022,-0.141l0.159,-0.386c0,0 0.06,-0.015 0.118,-0.029c0.022,-0.147 0.069,-0.415 0.069,-0.415c0.036,-0.156 0.073,-0.301 0.073,-0.487c0,-0.075 -0.004,-0.154 -0.02,-0.24l-0.035,-0.223l0.343,0.036c-0.016,-0.003 -0.028,-0.207 -0.028,-0.207l0.018,-0.437c0.046,-0.108 0.155,-0.127 0.24,-0.139c0,0 0.023,-0.007 0.042,-0.01c-0.003,-0.025 -0.016,-0.07 -0.016,-0.07l0,-0.94l0.049,-0.045c0.227,-0.248 0.258,-0.516 0.294,-0.795c0.039,-0.282 0.107,-0.586 0.359,-0.866c-0.04,-0.135 -0.072,-0.262 -0.072,-0.344c0,-0.162 0.058,-0.25 0.163,-0.344l0.077,-0.081c-0.004,0 -0.014,-0.189 -0.014,-0.189l0.005,-0.376l0.139,-0.211l0.138,-0.21c0.086,-0.336 0.193,-0.506 0.439,-0.637c0.008,-0.01 0.008,-0.025 0.008,-0.04c0,-0.054 -0.029,-0.116 -0.072,-0.186c-0.03,-0.059 -0.07,-0.13 -0.07,-0.205c0,-0.038 0.007,-0.074 0.03,-0.108c0.045,-0.083 0.14,-0.097 0.24,-0.1c0.021,-0.623 0.107,-1.07 0.297,-1.387l0.053,-0.092l0.609,0.071c0.662,0.069 1.338,0.157 1.778,0.512c0.305,-0.122 0.613,-0.041 0.895,0.051l0.371,0.108l1.221,0.142c0.691,0.064 1.341,0.13 1.912,0.295l0.222,0.067l-0.106,0.146l-0.206,0.316c0,0 -0.025,0.032 -0.039,0.043c0.009,0 0.014,0.011 0.024,0.023c0.214,0.082 0.236,0.048 0.301,-0.099c0.036,-0.096 0.132,-0.226 0.289,-0.297c-0.012,-0.039 -0.02,-0.08 -0.02,-0.08c-0.023,-0.041 -0.053,-0.101 -0.053,-0.169c0,-0.029 0.005,-0.06 0.02,-0.088c0.041,-0.105 0.149,-0.14 0.182,-0.15l0.118,-0.035l0.066,0.099c0.124,0.176 0.403,0.241 0.695,0.307l0.925,0.317l-0.219,0.172c-0.287,0.312 -0.329,0.927 -0.367,1.531c-0.023,0.404 -0.051,0.827 -0.16,1.167c-0.047,0.131 -0.156,0.133 -0.281,0.126c0.002,0.109 0.002,0.248 0.002,0.248c0.013,0.09 0.02,0.186 0.02,0.282c0,0.176 -0.06,0.328 -0.202,0.414c0.031,0.062 0.042,0.128 0.043,0.171l0.005,0.042l-0.017,0.042c-0.265,0.614 -0.289,1.24 -0.289,1.851l0,0.367c0,0.443 -0.014,0.867 -0.131,1.254l-0.189,0.308c-0.077,0.093 -0.114,0.141 -0.114,0.209c0,0.028 0.003,0.06 0.016,0.093l0.015,0.035c0,0 -0.003,0.066 -0.003,0.075c0,0.133 0.05,0.211 0.118,0.314l0.211,0.427l-0.084,0.053c-0.166,0.187 -0.228,0.395 -0.228,0.616c0,0.268 0.091,0.562 0.192,0.897c0.111,0.362 0.233,0.771 0.233,1.193l0,0.008c0.352,-0.074 0.537,0.078 0.681,0.226c0.094,0.103 0.193,0.184 0.348,0.23c-0.042,-0.042 -0.08,-0.09 -0.08,-0.16c0,-0.019 0.007,-0.046 0.016,-0.075c0.049,-0.119 0.18,-0.15 0.227,-0.167l0.141,-0.034l0.07,0.175l0.087,0.002l0.128,-0.101c0.093,-0.097 0.233,-0.233 0.507,-0.207c0.026,-0.071 0.034,-0.166 0.095,-0.194c0.044,-0.027 0.119,-0.01 0.194,0.01c0.006,-0.009 0.108,-0.322 0.108,-0.322l0.245,-0.174c0,0 0.084,-0.067 0.162,-0.135c-0.066,-0.074 -0.119,-0.166 -0.15,-0.235l-0.108,-0.239l0.62,0c-0.002,-0.019 -0.158,-0.656 -0.158,-0.656l0.238,0.072c0.079,0.008 0.11,-0.024 0.183,-0.111l0.276,-0.176c0,0 0.037,0.023 0.055,0.027c-0.018,-0.125 -0.033,-0.246 -0.098,-0.341l-0.174,-0.248l0.328,-0.02c0,-0.005 -0.241,-0.377 -0.241,-0.377l0.402,0.087c0.145,0.038 0.212,0.021 0.226,0.007c0.015,-0.016 0.032,-0.085 -0.004,-0.236l-0.108,-0.504c0,0 0.405,0.359 0.416,0.365c0.043,-0.088 0.127,-0.153 0.255,-0.19l0,-0.606c-0.139,-0.083 -0.301,-0.122 -0.519,-0.095l-0.201,0.023l0.014,-0.206c0.005,-0.059 -0.007,-0.087 -0.015,-0.099c-0.004,-0.002 -0.046,-0.028 -0.16,-0.018c-0.039,0.051 -0.089,0.106 -0.089,0.106c-0.402,0.466 -0.777,0.903 -0.967,1.529l-0.022,0.067l-0.127,0.05l-0.087,0.043c0,0 -0.103,0.028 -0.204,0.058c-0.032,0.244 -0.142,0.413 -0.236,0.542c-0.105,0.133 -0.186,0.236 -0.186,0.423c0,0.054 0.005,0.115 0.019,0.185l0.028,0.159l-0.153,0.04c-0.187,0.047 -0.314,0.16 -0.456,0.293l-0.537,0.406l-0.053,-0.223c-0.185,-0.475 -0.233,-0.973 -0.233,-1.473c0,-0.346 0.022,-0.695 0.046,-1.04l0.032,-0.463l-0.062,-0.307l-0.078,-0.414l0.11,-0.278c0.038,-0.046 0.087,-0.284 0.087,-0.284c0,0 0.197,-0.661 0.227,-0.758c-0.015,-0.121 -0.025,-0.237 -0.025,-0.341c0,-0.415 0.105,-0.716 0.19,-0.974l0.118,-0.43l-0.007,-0.392l0.014,-0.497c0.034,-0.183 0.165,-0.255 0.245,-0.303c0.026,-0.032 0.036,-0.064 0.036,-0.098c0,-0.053 -0.024,-0.107 -0.064,-0.175l-0.132,-0.468l0.101,0.085l0.243,-0.05l0.011,0c0.027,-0.177 0.084,-0.663 0.084,-0.663l0.039,-0.362l0.039,-0.203c0.06,-0.307 0.106,-0.531 0.106,-0.846c0,-0.067 0,-0.137 -0.005,-0.217l-0.018,-0.293l0.26,0.132c0.2,0.104 0.416,0 0.669,-0.119l0.503,-0.189l0.544,0.075c0,0 0.165,0.035 0.256,0.052c0.066,-0.061 0.14,-0.113 0.167,-0.119c0.015,-0.004 0.209,-0.009 0.209,-0.009l0.104,0.001c0.007,0 5.383,-0.565 5.503,-0.579c0.219,-0.221 0.545,-0.304 0.878,-0.361c0.46,-0.081 0.732,-0.163 0.802,-0.455c-0.168,-0.157 -0.274,-0.356 -0.274,-0.637c0,-0.091 0.009,-0.193 0.026,-0.3l0.025,-0.139l0.398,0l0,-0.646c-0.026,0.002 -0.07,0.01 -0.07,0.01c-0.206,0.036 -0.361,0.062 -0.444,-0.073c-0.031,-0.037 -0.041,-0.082 -0.041,-0.13c0,-0.041 0.043,-0.101 0.059,-0.145c-0.418,-0.022 -0.644,0.145 -0.894,0.34Zm-23.428,4.071c-0.068,0.04 -0.063,0.145 -0.051,0.201c0.051,0.057 0.248,-0.002 0.358,-0.062c-0.033,-0.036 -0.079,-0.078 -0.079,-0.078c-0.069,-0.076 -0.172,-0.09 -0.228,-0.061Zm12.415,3.309c0,0 -0.074,0 -0.151,-0.002l0,0.282c0.007,-0.02 0.06,-0.033 0.06,-0.033l0.151,-0.032c0,0 0.024,0.052 0.042,0.098c0.033,-0.06 0.073,-0.108 0.116,-0.151c0.005,-0.041 0.025,-0.177 0.025,-0.181c0,0.019 -0.243,0.019 -0.243,0.019Z" style="fill:#fff;fill-rule:nonzero;"/><path d="M49.037,22.924l-0.292,0.089l-0.446,0.018c-0.242,-0.004 -0.474,0.017 -0.704,0.1c-0.03,0.467 -0.278,0.745 -0.692,0.838c-0.008,0.131 -0.037,0.54 -0.037,0.54c-0.022,0.451 -0.046,0.739 -0.236,1.255c0,0.031 0.051,0.345 0.051,0.345c0.018,0.099 0.041,0.203 0.041,0.303c0,0.174 -0.069,0.354 -0.322,0.501l-0.227,0.133c0,0 -0.015,-0.165 -0.02,-0.227c-0.059,0.053 -0.133,0.084 -0.218,0.106c0.011,0.084 0.029,0.173 0.029,0.243c0,0.348 -0.098,0.622 -0.191,0.869l-0.141,0.488l0.052,0.226l0.092,0.336c0,0.005 -0.116,0.39 -0.116,0.39c-0.047,0.088 -0.071,0.141 -0.071,0.18c0,0.025 0.007,0.046 0.024,0.075l-0.063,-0.064c0.258,0.16 0.391,0.418 0.391,0.768c0,0.032 -0.009,0.068 -0.013,0.104c0.379,0.036 0.517,-0.15 0.673,-0.387l0.305,0.142l-0.164,0.413c-0.077,0.169 -0.153,0.315 -0.153,0.544c0,0.072 0.012,0.155 0.03,0.249c0.08,0.102 0.276,0.349 0.276,0.349c0,0 0.051,0.077 0.087,0.132c0.228,0.04 0.331,-0.033 0.463,-0.138l0.328,-0.227l0.065,0.101l0.221,0.236c0.152,0.181 0.261,0.31 0.521,0.307c0.197,0.031 0.306,-0.12 0.428,-0.325l0.231,-0.246c0.109,-0.034 0.182,0.028 0.252,0.077l0.003,-0.012c0.042,-0.153 0.102,-0.366 0.268,-0.483c0.08,-0.047 0.16,-0.025 0.24,0c-0.042,-0.06 -0.046,-0.119 -0.046,-0.146c0,-0.123 0.087,-0.236 0.21,-0.275c0.028,-0.006 0.059,-0.01 0.094,-0.006c0,-0.067 0.005,-0.146 0.005,-0.146c0,-0.048 -0.005,-0.103 -0.005,-0.154c0,-0.355 0.025,-0.694 0.235,-0.895c0.085,-0.081 0.202,-0.099 0.322,-0.119c-0.008,-0.188 -0.02,-0.373 -0.02,-0.551c0,-0.61 0.048,-1.167 0.092,-1.715c0.043,-0.536 0.088,-1.092 0.088,-1.689c0,-0.176 -0.007,-0.359 -0.013,-0.543l-0.007,-0.186l0.177,0.004c0.096,0 0.161,-0.043 0.229,-0.078c-0.017,-0.07 -0.047,-0.144 -0.047,-0.205c0,-0.126 0.025,-0.236 0.049,-0.336l0.03,-0.329c-0.004,0.004 -0.131,-0.133 -0.131,-0.133c-0.133,-0.117 -0.332,-0.298 -0.332,-0.59c0,-0.005 0.001,-0.013 0.001,-0.018c-0.173,0.003 -0.418,0.005 -0.418,0.005l-0.698,-0.014l-0.344,-0.191l-0.19,-0.092l-0.246,0.054Zm-1.244,4.977c0,-0.369 0.168,-0.744 0.327,-1.106l0.165,-0.383l0.135,-0.548l0.369,-1.333l0.193,0.223c0.225,0.217 0.337,0.563 0.337,1.054l0,0.078c0.012,0.043 0.034,0.085 0.034,0.121c0,0.044 -0.009,0.083 -0.024,0.117c-0.052,0.109 -0.154,0.145 -0.24,0.167c0.041,0.091 0.081,0.184 0.081,0.184l-0.046,0.367c-0.046,0.246 -0.109,0.625 -0.109,0.963c0,0.241 0.031,0.462 0.129,0.605l0.148,0.223l-0.257,0.043c-0.189,0.036 -0.227,0.241 -0.246,0.716c-0.012,0.429 -0.038,1.029 -0.631,1.034l-0.192,0.005l0.027,-0.201c0.048,-0.402 -0.058,-0.57 -0.2,-0.784c-0.178,-0.281 -0.387,-0.605 -0.223,-1.408l0.046,-0.233c0,0 0.177,0.113 0.184,0.115c0,0 -0.007,-0.012 -0.007,-0.019Z" style="fill:#fff;fill-rule:nonzero;"/><path d="M77.191,22.905c-0.234,0.182 -0.527,0.407 -0.914,0.402c-0.067,0.091 -0.109,0.235 -0.145,0.389c-0.043,0.19 -0.098,0.385 -0.22,0.531c0.007,0 0.021,-0.007 0.021,-0.007l0,1.265l-0.739,0c-0.057,0.183 -0.101,0.372 -0.101,0.561c0,0.289 0.051,0.579 0.101,0.868c0.049,0.276 0.099,0.567 0.099,0.841c0,0.177 -0.022,0.35 -0.071,0.514l-0.025,0.073l-0.115,0.069l-0.015,0.008c0,0.06 -0.156,0.367 -0.156,0.367c0,0 -0.068,0.01 -0.126,0.015c-0.175,1.12 -0.242,2.276 -0.242,3.45c0,1.621 0.126,3.276 0.242,4.895c0,0 0.01,0.148 0.017,0.189c0.157,0.148 0.233,0.397 0.265,0.638c0,0 0.003,0.014 0.003,0.017c0.026,-0.039 0.271,-0.397 0.271,-0.397l0.028,0.509l0.083,2.021c0.038,0.589 0.082,1.189 0.082,1.84c0,0.223 -0.012,0.45 -0.02,0.693c0.119,0.08 0.383,0.077 0.633,0.069l0.165,0c0.008,-0.22 0.016,-0.434 0.016,-0.643c0,-0.745 -0.044,-1.445 -0.088,-2.125c-0.044,-0.688 -0.088,-1.395 -0.088,-2.145c0,-0.214 0.007,-0.429 0.015,-0.647c-0.25,-0.184 -0.297,-0.549 -0.297,-0.916c0,-0.064 0.001,-0.295 0.001,-0.354c0,-0.247 -0.011,-0.477 -0.099,-0.598l-0.09,-0.132l0.123,-0.107c0.15,-0.126 0.334,-0.415 0.363,-0.754c0.002,-0.032 0.002,-0.068 0.002,-0.104c0,-0.298 -0.098,-0.535 -0.201,-0.794l-0.075,-0.182l-0.011,-1.87l0.021,-0.018l0.176,-0.214l0.088,-0.169c0.053,-0.325 0.064,-0.705 0.064,-1.088c0,-0.133 -0.005,-0.663 -0.005,-0.8c0,-0.619 0.041,-1.179 0.222,-1.579l-0.004,0l0.01,-0.379c0.005,-0.383 0.038,-0.863 0.408,-1.027c-0.006,-0.058 -0.021,-0.127 -0.021,-0.176c0,-0.344 0.145,-0.573 0.264,-0.763c0.088,-0.138 0.153,-0.238 0.153,-0.359c0,-0.076 -0.025,-0.154 -0.08,-0.255l-0.094,-0.184l0.224,-0.072l0.398,-0.142c0.187,-0.09 0.401,-0.189 0.723,-0.168l0,-0.406l0.159,-0.013c0.332,-0.024 0.5,0.136 0.639,0.26c0.113,0.106 0.193,0.178 0.361,0.177l0.138,-0.002l0.026,0.134c0.06,0.269 0.092,0.535 0.092,0.792c0,0.567 -0.145,1.083 -0.419,1.465c-0.296,0.409 -0.756,0.64 -1.31,0.697c-0.396,0.432 -0.711,0.578 -1.323,0.478c0.025,0.111 0.049,0.22 0.049,0.307c0,0.094 -0.007,0.175 -0.019,0.246c-0.01,0.061 -0.014,0.116 -0.014,0.165c0,0.09 0.021,0.181 0.093,0.308c0.022,0.015 0.043,0.024 0.212,-0.032c0.14,-0.045 0.33,-0.098 0.575,-0.065c0.174,-0.242 0.457,-0.461 0.751,-0.527c0.178,-0.043 0.33,0.009 0.481,0.066c0.066,-0.214 0.164,-0.395 0.27,-0.562l0.424,-0.7l0,0.497c0.018,-0.044 0.044,-0.092 0.044,-0.092c0.041,-0.062 0.127,-0.076 0.207,-0.091c0.028,-0.306 0.145,-0.52 0.267,-0.695c0,0 0.099,-0.162 0.131,-0.218c-0.049,-0.164 -0.086,-0.325 -0.086,-0.46c0,-0.418 0.21,-0.695 0.447,-0.936c-0.052,-0.093 -0.077,-0.2 -0.077,-0.303l0,-0.005c-0.101,-0.028 -0.201,-0.068 -0.223,-0.181c-0.005,-0.012 -0.005,-0.03 -0.005,-0.047c0,-0.028 0.014,-0.061 0.032,-0.098c-0.068,-0.081 -0.156,-0.191 -0.156,-0.191c-0.17,-0.152 -0.373,-0.331 -0.373,-0.708c0,-0.027 0.01,-0.056 0.01,-0.08c-0.025,-0.005 -0.063,-0.009 -0.063,-0.009c-0.715,-0.084 -1.28,-0.153 -1.982,0.022c-0.096,0.047 -0.176,0.163 -0.265,0.303l-0.7,0.71l0.054,-0.455c0.006,-0.462 0.302,-0.653 0.536,-0.805c0.087,-0.057 0.145,-0.124 0.216,-0.189c-0.102,-0.038 -0.213,0.008 -0.438,0.187Zm-1.687,1.519c0,0.012 0.005,0.029 0.005,0.044c0.013,-0.042 0.073,-0.061 0.106,-0.09c-0.007,-0.1 -0.019,-0.307 -0.019,-0.335c-0.055,0.109 -0.092,0.238 -0.092,0.381Z" style="fill:#fff;fill-rule:nonzero;"/><path d="M55.413,22.797c0,0.017 0.002,0.033 0.002,0.045c0,0.465 -0.31,0.625 -0.527,0.736c-0.055,0.014 -0.456,-0.075 -0.456,-0.075l-0.063,-0.021c-0.085,0.367 -0.204,0.738 -0.531,0.915c-0.027,0.542 -0.12,0.922 -0.311,1.168l-0.145,0.187c0,0 -0.165,-0.262 -0.172,-0.277c-0.051,0.362 -0.081,0.758 -0.081,1.177c0,0.203 0.001,0.408 0.008,0.609l0,1.029l-0.042,0.047c-0.183,0.203 -0.28,0.442 -0.341,0.706c0.087,-0.061 0.178,-0.115 0.178,-0.115c0.251,-0.027 0.481,-0.035 0.569,0.137c0.016,0.029 0.023,0.06 0.026,0.094c0.058,-0.018 0.147,-0.018 0.185,-0.054l0.351,-0.309l-0.079,0.464c-0.002,0.035 -0.005,0.06 -0.005,0.082c0,0.108 0.066,0.14 0.302,0.195c0.177,0.032 0.387,0.11 0.494,0.314c0.062,-0.004 0.126,-0.023 0.183,-0.023c0,0 0.338,-0.026 0.364,-0.03l-0.005,0c0,-0.016 0.047,-0.064 0.047,-0.064l0.251,-0.224l0.332,0c0,0 0.089,0.005 0.147,0.008c0.009,-0.112 0.024,-0.211 0.105,-0.273c0.036,-0.023 0.114,-0.06 0.219,-0.028c0.124,-0.02 0.214,0.054 0.315,0.103c0.001,-0.113 0.07,-0.269 0.186,-0.361c0.058,-0.044 0.185,-0.098 0.342,-0.062c-0.009,-0.046 -0.029,-0.097 -0.029,-0.145c0,-0.203 0.077,-0.389 0.329,-0.539l0.168,-0.096c0,0 0.039,0.09 0.059,0.151c0.069,-0.112 0.151,-0.229 0.292,-0.221l0.152,0.013l0.005,0.151c0.048,1.106 -0.161,1.853 -0.384,2.641l-0.344,1.396l-0.07,0.046c-0.253,0.139 -0.443,0.322 -0.666,0.553l-0.052,0.051l-0.073,-0.004c-0.215,-0.006 -0.366,0.031 -0.452,0.107l-0.225,0.196l-0.048,-0.299c-0.021,-0.137 -0.106,-0.212 -0.211,-0.312c0,0 -0.068,-0.067 -0.119,-0.13c-0.365,-0.012 -0.62,0.051 -0.797,0.16c0.033,0.078 0.047,0.168 0.047,0.256l0,0.03c0.161,0.068 0.278,0.182 0.339,0.28l0.072,0.097c0.146,0.009 0.229,0.085 0.255,0.223c-0.007,-0.01 -0.026,-0.046 -0.065,-0.067c0.518,0.259 0.907,0.215 1.447,0.15l0.285,-0.026l0.005,-0.111l0.535,-0.072c0.129,-0.027 0.246,-0.018 0.416,0.023c0.088,-0.151 0.274,-0.47 0.274,-0.47c0.253,-0.38 0.493,-0.744 0.493,-1.353c0,-0.053 -0.002,-0.097 -0.007,-0.151l0,-0.065l0.068,-0.083l0.251,-0.324c0,0 0.056,-0.092 0.097,-0.156c-0.063,-0.146 -0.114,-0.298 -0.114,-0.446c0,-0.268 0.077,-0.531 0.148,-0.774l0.117,-0.503l-0.072,-0.305l-0.069,-0.269c0,0.01 0.08,-0.172 0.08,-0.172c0.042,-0.055 0.07,-0.097 0.07,-0.16c0,-0.012 0,-0.026 -0.001,-0.047c-0.039,-0.06 -0.085,-0.134 -0.139,-0.281c-0.013,-0.006 -0.15,-0.338 -0.15,-0.338l0.086,-0.494l0.054,-0.246l-0.064,-0.345l-0.076,-0.374c0,0.008 0.083,-0.386 0.083,-0.386l0.057,-0.207l-0.036,-0.066l-0.101,-0.394l0.1,-0.168l0.037,-0.092l-0.032,-0.314c-0.02,-0.112 -0.041,-0.232 -0.041,-0.362c0,-0.035 0.021,-0.079 0.026,-0.118l-0.63,0.167l0.116,-0.282c0.008,-0.043 0.013,-0.075 0.013,-0.106c0,-0.086 -0.042,-0.123 -0.112,-0.186c-0.096,-0.084 -0.234,-0.202 -0.234,-0.446c0,-0.043 0.02,-0.096 0.027,-0.145c-0.152,-0.072 -0.407,-0.203 -0.407,-0.203c-0.315,-0.193 -0.584,-0.358 -1.088,-0.303l-0.153,0.017l-0.062,-0.32l0,-0.013c-0.378,0.242 -0.824,0.462 -1.328,0.681Zm0.4,2.771c-0.14,-0.181 -0.201,-0.367 -0.201,-0.546c0,-0.377 0.254,-0.728 0.442,-0.99l0.212,-0.317l0.08,-0.025c0.533,-0.079 0.845,0.096 1.112,0.244l0.209,0.112l0,0.139l0.004,0.425l-0.004,0.592c0,0.003 -0.228,0.277 -0.228,0.277c0,0 -0.065,0.057 -0.077,0.066c0.004,0 0.005,0.008 0.005,0.023c0,0.038 -0.01,0.118 -0.01,0.118l-0.152,0.434c0,0 -0.125,0.028 -0.245,0.052c-0.014,0.66 -0.379,0.976 -0.706,1.248c-0.273,0.233 -0.511,0.434 -0.567,0.826l-0.031,0.2l-0.19,-0.063c-0.268,-0.093 -0.33,-0.262 -0.33,-0.407c0,-0.075 0.019,-0.145 0.029,-0.196l0.018,-0.121l-0.188,-0.127l0.133,-0.172c0.422,-0.365 0.564,-1.048 0.689,-1.791l-0.004,-0.001Z" style="fill:#fff;fill-rule:nonzero;"/><g><path d="M0,59.12l5.205,0l0,0.947l-4.143,0l0,2.474l1.916,0c0.708,0 1.27,0.068 1.688,0.203c0.418,0.135 0.753,0.389 1.005,0.763c0.251,0.374 0.377,0.809 0.377,1.306c0,0.405 -0.09,0.783 -0.271,1.135c-0.18,0.353 -0.449,0.64 -0.807,0.863c-0.358,0.222 -0.967,0.333 -1.828,0.333l-3.142,0l0,-8.024Zm1.062,7.121l2.124,0c0.573,0 1.002,-0.116 1.289,-0.35c0.286,-0.234 0.429,-0.584 0.429,-1.051c0,-0.332 -0.082,-0.609 -0.246,-0.832c-0.164,-0.223 -0.392,-0.37 -0.684,-0.443c-0.292,-0.073 -0.79,-0.11 -1.494,-0.11l-1.418,0l0,2.786Z" style="fill:#232323;fill-rule:nonzero;"/><path d="M9.294,59.12l5.025,0l0,8.024l-1.062,0l0,-7.077l-2.901,0l0,4.133c0,0.839 -0.039,1.454 -0.118,1.844c-0.078,0.391 -0.243,0.694 -0.495,0.912c-0.252,0.217 -0.571,0.325 -0.958,0.325c-0.233,0 -0.514,-0.044 -0.843,-0.131l0.181,-0.942c0.175,0.073 0.325,0.11 0.449,0.11c0.241,0 0.421,-0.09 0.542,-0.271c0.12,-0.181 0.18,-0.607 0.18,-1.278l0,-5.649Z" style="fill:#232323;fill-rule:nonzero;"/><path d="M16.585,67.144l3.082,-8.024l1.144,0l3.284,8.024l-1.21,0l-0.936,-2.43l-3.355,0l-0.881,2.43l-1.128,0Zm2.316,-3.295l2.72,0l-0.838,-2.222c-0.255,-0.675 -0.445,-1.23 -0.569,-1.664c-0.102,0.515 -0.246,1.025 -0.432,1.533l-0.881,2.353Z" style="fill:#232323;fill-rule:nonzero;"/><path d="M26.361,59.12l5.189,0l0,0.947l-4.127,0l0,7.077l-1.062,0l0,-8.024Z" style="fill:#232323;fill-rule:nonzero;"/><path d="M32.864,63.236c0,-1.332 0.357,-2.374 1.073,-3.128c0.715,-0.753 1.638,-1.13 2.769,-1.13c0.741,0 1.409,0.177 2.004,0.531c0.594,0.354 1.048,0.847 1.36,1.48c0.312,0.633 0.468,1.351 0.468,2.154c0,0.814 -0.164,1.542 -0.493,2.184c-0.328,0.642 -0.793,1.129 -1.396,1.459c-0.602,0.33 -1.251,0.495 -1.948,0.495c-0.756,0 -1.431,-0.182 -2.025,-0.547c-0.595,-0.365 -1.046,-0.863 -1.352,-1.494c-0.307,-0.632 -0.46,-1.299 -0.46,-2.004Zm1.095,0.017c0,0.967 0.26,1.728 0.78,2.285c0.52,0.556 1.172,0.835 1.956,0.835c0.8,0 1.457,-0.281 1.974,-0.843c0.516,-0.562 0.774,-1.36 0.774,-2.392c0,-0.653 -0.11,-1.224 -0.331,-1.711c-0.221,-0.487 -0.544,-0.865 -0.969,-1.133c-0.425,-0.268 -0.902,-0.402 -1.431,-0.402c-0.752,0 -1.399,0.258 -1.941,0.774c-0.542,0.517 -0.812,1.379 -0.812,2.587Z" style="fill:#232323;fill-rule:nonzero;"/><path d="M45.349,67.144l0,-7.077l-2.644,0l0,-0.947l6.361,0l0,0.947l-2.655,0l0,7.077l-1.062,0Z" style="fill:#232323;fill-rule:nonzero;"/><path d="M51.513,67.144l0,-8.024l3.01,0c0.613,0 1.105,0.081 1.475,0.244c0.371,0.162 0.661,0.412 0.871,0.75c0.209,0.337 0.314,0.69 0.314,1.059c0,0.343 -0.093,0.666 -0.279,0.969c-0.186,0.302 -0.467,0.547 -0.843,0.733c0.485,0.142 0.859,0.385 1.12,0.728c0.26,0.343 0.391,0.748 0.391,1.215c0,0.376 -0.079,0.725 -0.238,1.048c-0.159,0.323 -0.355,0.572 -0.589,0.747c-0.233,0.176 -0.526,0.308 -0.878,0.397c-0.352,0.09 -0.784,0.134 -1.295,0.134l-3.059,0Zm1.061,-4.652l1.736,0c0.47,0 0.808,-0.031 1.012,-0.093c0.27,-0.081 0.474,-0.214 0.611,-0.4c0.136,-0.186 0.205,-0.419 0.205,-0.7c0,-0.267 -0.064,-0.501 -0.192,-0.704c-0.128,-0.202 -0.31,-0.341 -0.547,-0.416c-0.237,-0.075 -0.644,-0.112 -1.221,-0.112l-1.604,0l0,2.425Zm0,3.705l1.998,0c0.343,0 0.584,-0.012 0.723,-0.038c0.244,-0.044 0.449,-0.117 0.613,-0.219c0.164,-0.102 0.299,-0.251 0.405,-0.446c0.106,-0.195 0.159,-0.42 0.159,-0.676c0,-0.299 -0.077,-0.559 -0.23,-0.78c-0.153,-0.221 -0.366,-0.376 -0.638,-0.465c-0.272,-0.09 -0.663,-0.134 -1.174,-0.134l-1.856,0l0,2.758Z" style="fill:#232323;fill-rule:nonzero;"/><path d="M59.739,63.236c0,-1.332 0.358,-2.374 1.073,-3.128c0.716,-0.753 1.639,-1.13 2.77,-1.13c0.741,0 1.409,0.177 2.003,0.531c0.595,0.354 1.049,0.847 1.361,1.48c0.312,0.633 0.468,1.351 0.468,2.154c0,0.814 -0.165,1.542 -0.493,2.184c-0.329,0.642 -0.794,1.129 -1.396,1.459c-0.602,0.33 -1.252,0.495 -1.949,0.495c-0.755,0 -1.43,-0.182 -2.025,-0.547c-0.595,-0.365 -1.045,-0.863 -1.352,-1.494c-0.306,-0.632 -0.46,-1.299 -0.46,-2.004Zm1.095,0.017c0,0.967 0.26,1.728 0.78,2.285c0.52,0.556 1.172,0.835 1.957,0.835c0.799,0 1.457,-0.281 1.973,-0.843c0.517,-0.562 0.775,-1.36 0.775,-2.392c0,-0.653 -0.111,-1.224 -0.331,-1.711c-0.221,-0.487 -0.544,-0.865 -0.969,-1.133c-0.425,-0.268 -0.902,-0.402 -1.432,-0.402c-0.751,0 -1.398,0.258 -1.94,0.774c-0.542,0.517 -0.813,1.379 -0.813,2.587Z" style="fill:#232323;fill-rule:nonzero;"/><path d="M70.183,67.144l0,-8.024l3.027,0c0.533,0 0.94,0.026 1.221,0.077c0.394,0.065 0.724,0.19 0.99,0.375c0.267,0.184 0.481,0.442 0.644,0.774c0.162,0.332 0.243,0.697 0.243,1.095c0,0.682 -0.217,1.26 -0.651,1.732c-0.434,0.473 -1.219,0.709 -2.354,0.709l-2.058,0l0,3.262l-1.062,0Zm1.062,-4.209l2.075,0c0.686,0 1.173,-0.128 1.461,-0.383c0.288,-0.255 0.432,-0.615 0.432,-1.078c0,-0.336 -0.084,-0.623 -0.254,-0.862c-0.17,-0.239 -0.393,-0.397 -0.671,-0.474c-0.178,-0.047 -0.509,-0.071 -0.99,-0.071l-2.053,0l0,2.868Z" style="fill:#232323;fill-rule:nonzero;"/><path d="M79.078,59.12l0.963,0l0,6.355l4.27,-6.355l1.067,0l0,8.024l-0.963,0l0,-6.338l-4.275,6.338l-1.062,0l0,-8.024Z" style="fill:#232323;fill-rule:nonzero;"/><path d="M90.562,67.144l0,-7.077l-2.644,0l0,-0.947l6.36,0l0,0.947l-2.655,0l0,7.077l-1.061,0Z" style="fill:#232323;fill-rule:nonzero;"/><path d="M96.791,67.144l0,-8.024l5.802,0l0,0.947l-4.741,0l0,2.458l4.44,0l0,0.941l-4.44,0l0,2.731l4.927,0l0,0.947l-5.988,0Z" style="fill:#232323;fill-rule:nonzero;"/><path d="M106.233,59.12l5.024,0l0,8.024l-1.061,0l0,-7.077l-2.901,0l0,4.133c0,0.839 -0.04,1.454 -0.118,1.844c-0.079,0.391 -0.244,0.694 -0.496,0.912c-0.251,0.217 -0.571,0.325 -0.957,0.325c-0.234,0 -0.515,-0.044 -0.843,-0.131l0.18,-0.942c0.175,0.073 0.325,0.11 0.449,0.11c0.241,0 0.422,-0.09 0.542,-0.271c0.12,-0.181 0.181,-0.607 0.181,-1.278l0,-5.649Z" style="fill:#232323;fill-rule:nonzero;"/><path d="M114.443,59.12l1.062,0l0,3.427l1.916,0c0.894,0 1.542,0.104 1.943,0.312c0.401,0.208 0.69,0.49 0.865,0.848c0.175,0.358 0.263,0.726 0.263,1.106c0,0.62 -0.212,1.164 -0.635,1.631c-0.424,0.467 -1.212,0.7 -2.365,0.7l-3.049,0l0,-8.024Zm1.062,7.121l1.943,0c0.788,0 1.302,-0.139 1.541,-0.418c0.239,-0.28 0.359,-0.616 0.359,-1.01c0,-0.321 -0.087,-0.594 -0.26,-0.819c-0.174,-0.224 -0.405,-0.369 -0.693,-0.435c-0.288,-0.065 -0.777,-0.098 -1.467,-0.098l-1.423,0l0,2.78Z" style="fill:#232323;fill-rule:nonzero;"/><path d="M123.196,67.144l0,-8.024l1.061,0l0,3.295l4.171,0l0,-3.295l1.062,0l0,8.024l-1.062,0l0,-3.782l-4.171,0l0,3.782l-1.061,0Z" style="fill:#232323;fill-rule:nonzero;"/><path d="M132.714,59.12l1.062,0l0,3.427l1.916,0c1.255,0 2.081,0.231 2.477,0.695c0.396,0.463 0.594,0.989 0.594,1.576c0,0.62 -0.212,1.163 -0.635,1.629c-0.424,0.465 -1.21,0.697 -2.36,0.697l-3.054,0l0,-8.024Zm1.062,7.121l1.943,0c0.668,0 1.152,-0.112 1.453,-0.336c0.302,-0.225 0.452,-0.583 0.452,-1.076c0,-0.336 -0.091,-0.617 -0.274,-0.843c-0.182,-0.226 -0.417,-0.37 -0.706,-0.432c-0.288,-0.062 -0.77,-0.093 -1.445,-0.093l-1.423,0l0,2.78Zm5.95,-7.121l1.062,0l0,8.024l-1.062,0l0,-8.024Z" style="fill:#232323;fill-rule:nonzero;"/><path d="M144.001,59.12l0.963,0l0,6.355l4.27,-6.355l1.067,0l0,8.024l-0.963,0l0,-6.338l-4.275,6.338l-1.062,0l0,-8.024Zm3.99,-1.91l0.673,0c-0.054,0.456 -0.221,0.806 -0.5,1.051c-0.28,0.244 -0.651,0.366 -1.114,0.366c-0.467,0 -0.841,-0.121 -1.12,-0.364c-0.279,-0.242 -0.446,-0.593 -0.501,-1.053l0.674,0c0.051,0.248 0.152,0.433 0.304,0.555c0.151,0.123 0.354,0.184 0.61,0.184c0.295,0 0.519,-0.06 0.67,-0.178c0.152,-0.119 0.253,-0.306 0.304,-0.561Z" style="fill:#232323;fill-rule:nonzero;"/><path d="M165.375,60.083l0,-1.029l0.997,0l0,1.029c1.021,0.055 1.828,0.363 2.419,0.923c0.591,0.56 0.887,1.256 0.887,2.088c0,0.814 -0.287,1.505 -0.86,2.074c-0.572,0.57 -1.388,0.884 -2.446,0.942l0,1.034l-0.997,0l0,-1.034c-0.948,-0.037 -1.738,-0.326 -2.37,-0.868c-0.631,-0.542 -0.947,-1.258 -0.947,-2.148c0,-0.894 0.315,-1.609 0.945,-2.146c0.629,-0.536 1.42,-0.824 2.372,-0.865Zm0.997,0.909l0,4.204c0.686,-0.033 1.226,-0.232 1.62,-0.597c0.394,-0.365 0.591,-0.866 0.591,-1.505c0,-0.628 -0.193,-1.125 -0.58,-1.492c-0.387,-0.366 -0.931,-0.57 -1.631,-0.61Zm-0.997,0.006c-0.66,0.029 -1.195,0.224 -1.603,0.585c-0.409,0.361 -0.613,0.865 -0.613,1.511c0,0.639 0.201,1.14 0.604,1.505c0.404,0.365 0.941,0.562 1.612,0.591l0,-4.192Z" style="fill:#232323;fill-rule:nonzero;"/><path d="M172.075,63.236c0,-1.332 0.358,-2.374 1.073,-3.128c0.715,-0.753 1.639,-1.13 2.77,-1.13c0.741,0 1.408,0.177 2.003,0.531c0.595,0.354 1.048,0.847 1.36,1.48c0.312,0.633 0.468,1.351 0.468,2.154c0,0.814 -0.164,1.542 -0.492,2.184c-0.329,0.642 -0.794,1.129 -1.396,1.459c-0.602,0.33 -1.252,0.495 -1.949,0.495c-0.755,0 -1.43,-0.182 -2.025,-0.547c-0.595,-0.365 -1.045,-0.863 -1.352,-1.494c-0.307,-0.632 -0.46,-1.299 -0.46,-2.004Zm1.095,0.017c0,0.967 0.26,1.728 0.78,2.285c0.52,0.556 1.172,0.835 1.957,0.835c0.799,0 1.457,-0.281 1.973,-0.843c0.516,-0.562 0.775,-1.36 0.775,-2.392c0,-0.653 -0.111,-1.224 -0.332,-1.711c-0.22,-0.487 -0.543,-0.865 -0.968,-1.133c-0.426,-0.268 -0.903,-0.402 -1.432,-0.402c-0.752,0 -1.398,0.258 -1.94,0.774c-0.542,0.517 -0.813,1.379 -0.813,2.587Z" style="fill:#232323;fill-rule:nonzero;"/><path d="M182.552,67.144l0,-8.024l1.062,0l0,3.295l4.171,0l0,-3.295l1.062,0l0,8.024l-1.062,0l0,-3.782l-4.171,0l0,3.782l-1.062,0Z" style="fill:#232323;fill-rule:nonzero;"/><path d="M192.744,59.12l4.882,0l0,7.077l0.723,0l0,2.819l-0.947,0l0,-1.872l-5.304,0l0,1.872l-0.947,0l0,-2.819l0.624,0c0.646,-0.974 0.969,-2.943 0.969,-5.906l0,-1.171Zm3.82,0.947l-2.797,0l0,0.411c0,0.682 -0.061,1.615 -0.183,2.799c-0.122,1.184 -0.362,2.158 -0.72,2.92l3.7,0l0,-6.13Z" style="fill:#232323;fill-rule:nonzero;"/></g></g></svg>