<?xml version="1.0" encoding="UTF-8" standalone="no"?><!DOCTYPE svg PUBLIC "-//W3C//DTD SVG 1.1//EN" "http://www.w3.org/Graphics/SVG/1.1/DTD/svg11.dtd"><svg width="100%" height="100%" viewBox="0 0 271 56" version="1.1" xmlns="http://www.w3.org/2000/svg" xmlns:xlink="http://www.w3.org/1999/xlink" xml:space="preserve" xmlns:serif="http://www.serif.com/" style="fill-rule:evenodd;clip-rule:evenodd;stroke-linecap:round;stroke-linejoin:round;stroke-miterlimit:1.5;"><path d="M1.5,1.5c0,0 7.536,39.918 3.596,48c-3.941,8.082 256.481,2 256.481,2l7.191,-49l-267.268,-1Z" style="fill:#fff;stroke:#1f1f1f;stroke-width:3px;"/><g><path d="M39.318,17.914c0.342,0.054 0.512,0.225 0.512,0.512l0,0.246c-3.329,7.171 -5.786,11.666 -7.372,13.484c-0.567,0.13 -0.841,-0.085 -0.82,-0.646c0.205,-0.854 1.155,-2.929 2.85,-6.224c-0.841,-0.266 -2.451,-2.3 -4.829,-6.101l-0.257,-0.256c0,-0.335 0.315,-0.55 0.944,-0.646c0.628,-0.096 1.432,0.747 2.409,2.527c0.978,1.781 1.808,2.764 2.492,2.948l0.256,0c1.361,-3.219 2.273,-4.998 2.738,-5.337c0.465,-0.338 0.824,-0.507 1.077,-0.507Z" style="fill:#1f1f1f;fill-rule:nonzero;"/><path d="M43.671,18.109c1.138,-0.37 2.271,-0.286 3.399,0.251c1.128,0.536 1.692,1.772 1.692,3.707c-0.335,1.203 -0.503,1.876 -0.503,2.02c2.201,1.148 3.341,2.378 3.42,3.691c0.078,1.312 -0.171,2.346 -0.749,3.102c-0.577,0.755 -1.587,1.157 -3.03,1.205c-1.442,0.047 -2.987,-0.224 -4.634,-0.816c-1.648,-0.591 -2.588,-1.218 -2.82,-1.881l0,-0.257c0.615,-0.875 1.153,-1.184 1.615,-0.928c0.461,0.257 0.779,0.578 0.953,0.964c0.175,0.387 0.757,0.728 1.749,1.026c0.991,0.297 2.079,0.355 3.265,0.174c1.186,-0.181 1.797,-0.812 1.831,-1.892c-0.178,-2.256 -1.802,-3.384 -4.871,-3.384l-0.256,-0.502l0,-0.246c0,-0.178 0.42,-0.516 1.261,-1.015c0.841,-0.499 1.261,-0.959 1.261,-1.379c0,-0.421 -0.294,-0.968 -0.882,-1.641c-0.587,-0.673 -1.254,-0.88 -1.999,-0.62c-0.766,1.339 -1.389,1.917 -1.871,1.733c-0.482,-0.185 -0.693,-0.691 -0.631,-1.518c0.061,-0.827 0.661,-1.425 1.8,-1.794Z" style="fill:#1f1f1f;fill-rule:nonzero;"/><path d="M52.976,18.047c0.868,-0.027 1.319,1.962 1.353,5.968l4.492,0c1.729,0 2.796,-0.072 3.199,-0.216l-0.092,-0.871c0,-0.95 -0.045,-1.957 -0.134,-3.02c-0.089,-1.063 0.144,-1.632 0.698,-1.707c0.553,-0.075 1.004,2.659 1.353,8.203l0.523,5.127c-0.178,0.417 -0.448,0.625 -0.81,0.625c-0.629,0 -1.08,-2.262 -1.354,-6.788l-0.276,0c-3.063,0.185 -5.322,0.277 -6.778,0.277l-0.277,0l-0.544,0.267c0.568,3.425 0.665,5.429 0.293,6.014c-0.373,0.584 -0.786,0.295 -1.241,-0.867c-0.455,-1.162 -0.778,-3.577 -0.969,-7.244c-0.191,-3.668 -0.003,-5.59 0.564,-5.768Z" style="fill:#1f1f1f;fill-rule:nonzero;"/><path d="M68.131,17.873l0.216,0c3.691,6.425 5.998,10.965 6.921,13.617l-0.8,0.338l-2.645,-4.327l-4.563,0.267l-1.364,4.337l-0.985,-0.072c1.463,-9.44 2.537,-14.16 3.22,-14.16Zm0.216,2.737l-0.78,5.845l3.64,-0.225l-2.86,-5.62Z" style="fill:#1f1f1f;fill-rule:nonzero;"/><path d="M78.631,18.057c5.913,-0.075 8.901,0.284 8.962,1.077l0,0.308c0,0.43 -0.184,0.646 -0.554,0.646l-4.563,-0.185c0.089,1.873 0.489,5.852 1.2,11.936l-0.789,0.317l-0.277,0c-0.677,0 -1.388,-4.108 -2.133,-12.325c-3.117,0.239 -4.713,0.007 -4.789,-0.697c0,-0.54 0.981,-0.899 2.943,-1.077Z" style="fill:#1f1f1f;fill-rule:nonzero;"/><path d="M88.188,18.047c1.135,-0.335 1.777,0.051 1.928,1.159l0.482,4.737c4.47,-0.301 6.965,1.213 7.485,4.542l0,1.159c-0.328,1.313 -3.076,2.085 -8.244,2.318c-0.698,-0.923 -1.248,-5.561 -1.651,-13.915Zm2.328,7.639c0.095,2.83 0.328,4.245 0.697,4.245c2.153,0 3.801,-0.29 4.942,-0.871l0,-0.872c-0.875,-1.928 -2.755,-2.762 -5.639,-2.502Z" style="fill:#1f1f1f;fill-rule:nonzero;"/><path d="M103.928,17.975c5.974,-0.041 9.098,-0.061 9.372,-0.061c0.259,0.376 0.806,3.917 1.64,10.623c0.335,1.845 0.503,2.953 0.503,3.322l-1.005,0c-0.622,0 -1.374,-3.825 -2.256,-11.474c0,-0.403 -0.164,-0.605 -0.492,-0.605l-7.014,0l0,0.605c0.205,1.893 0.605,5.243 1.2,10.049l0.215,1.579c-0.273,0.096 -0.577,0.143 -0.912,0.143c-0.855,0 -1.672,-4.542 -2.451,-13.627c0.301,-0.369 0.701,-0.554 1.2,-0.554Z" style="fill:#1f1f1f;fill-rule:nonzero;"/><path d="M122.692,17.985c2.372,0 4.389,1.46 6.05,4.379c0.786,2.01 0.8,3.985 0.041,5.927c-0.759,1.941 -2.369,3.23 -4.83,3.865l-1.015,0c-2.57,-0.348 -4.393,-1.244 -5.47,-2.686c-1.077,-1.443 -1.449,-3.403 -1.118,-5.881c0.332,-2.478 1.694,-4.206 4.086,-5.183c1.012,-0.28 1.764,-0.421 2.256,-0.421Zm-4.019,4.205c-0.506,0.957 -0.761,2.185 -0.764,3.686c-0.004,1.5 0.586,2.62 1.769,3.358c1.182,0.738 2.754,0.993 4.716,0.764c1.962,-0.229 3.022,-1.608 3.179,-4.138c0.157,-2.529 -0.49,-4.216 -1.943,-5.06c-1.453,-0.844 -2.849,-1.063 -4.189,-0.656c-1.34,0.407 -2.262,1.089 -2.768,2.046Z" style="fill:#1f1f1f;fill-rule:nonzero;"/><path d="M132.11,18.344c0.756,-0.116 2.077,-0.235 3.964,-0.359c1.886,-0.123 3.04,-0.008 3.46,0.344c0.421,0.352 0.713,2.709 0.877,7.07c0.868,-0.137 1.494,-0.096 1.876,0.123c0.383,0.219 0.619,1.306 0.708,3.261c0.089,1.955 -0.041,3.023 -0.39,3.204c-0.348,0.181 -0.644,0.045 -0.887,-0.41c-0.242,-0.455 -0.449,-1.974 -0.62,-4.558l-9.751,0.574l0.543,3.846l0,0.235c0,0.322 -0.304,0.513 -0.913,0.575c-0.587,-1.388 -0.96,-3.035 -1.117,-4.943c0.287,-0.854 0.74,-1.29 1.358,-1.307c0.619,-0.017 0.951,-0.159 0.995,-0.426c0.044,-0.266 -0.15,-1.509 -0.584,-3.727c-0.435,-2.218 -0.274,-3.385 0.481,-3.502Zm1.328,1.631c0.069,3.705 0.277,5.602 0.626,5.691l4.778,-0.328c-0.26,-0.315 -0.478,-2.147 -0.656,-5.497c-0.403,-0.382 -1.986,-0.338 -4.748,0.134Z" style="fill:#1f1f1f;fill-rule:nonzero;"/><path d="M144.041,17.965c5.783,-0.267 8.787,1.278 9.013,4.635l0,0.82c0,1.962 -1.548,3.056 -4.645,3.281l-1.907,0c0.362,1.566 0.543,2.564 0.543,2.994l0,1.918c0,0.362 -0.181,0.543 -0.543,0.543l-0.277,0c-0.868,0 -1.777,-4.638 -2.728,-13.914l0.544,-0.277Zm1.692,1.999l0,0.78c0,2.741 0.516,4.112 1.548,4.112l0.513,0c2.228,-0.123 3.343,-0.465 3.343,-1.026l0,-0.256c0,-1.873 -0.706,-3.006 -2.118,-3.399c-1.411,-0.393 -2.507,-0.463 -3.286,-0.211Z" style="fill:#1f1f1f;fill-rule:nonzero;"/><path d="M160.14,17.985c2.372,0 4.388,1.46 6.049,4.379c0.786,2.01 0.8,3.985 0.041,5.927c-0.758,1.941 -2.368,3.23 -4.829,3.865l-1.015,0c-2.571,-0.348 -4.394,-1.244 -5.471,-2.686c-1.076,-1.443 -1.449,-3.403 -1.118,-5.881c0.332,-2.478 1.694,-4.206 4.087,-5.183c1.011,-0.28 1.763,-0.421 2.256,-0.421Zm-4.02,4.205c-0.506,0.957 -0.761,2.185 -0.764,3.686c-0.003,1.5 0.586,2.62 1.769,3.358c1.182,0.738 2.755,0.993 4.717,0.764c1.962,-0.229 3.021,-1.608 3.178,-4.138c0.158,-2.529 -0.49,-4.216 -1.943,-5.06c-1.452,-0.844 -2.849,-1.063 -4.188,-0.656c-1.34,0.407 -2.263,1.089 -2.769,2.046Z" style="fill:#1f1f1f;fill-rule:nonzero;"/><path d="M167.379,18.139c6.084,-0.321 9.131,-0.249 9.141,0.216c0.01,0.464 -0.178,0.767 -0.564,0.907c-0.386,0.14 -2.712,0.279 -6.978,0.415l0.708,4.297c2.748,-0.075 4.674,0.295 5.778,1.112c1.104,0.817 1.666,1.74 1.687,2.769c0.02,1.029 -0.421,1.916 -1.323,2.661c-0.902,0.745 -2.987,1.292 -6.255,1.64c-1.046,-4.375 -1.777,-9.047 -2.194,-14.017Zm2.563,7.352l0.944,5.158c2.221,-0.403 3.614,-1.025 4.178,-1.866c0.564,-0.841 0.407,-1.613 -0.472,-2.318c-0.878,-0.704 -2.428,-1.028 -4.65,-0.974Z" style="fill:#1f1f1f;fill-rule:nonzero;"/><path d="M178.176,18.047c0.868,-0.027 1.319,1.962 1.354,5.968l4.491,0c1.729,0 2.796,-0.072 3.199,-0.216l-0.092,-0.871c0,-0.95 -0.045,-1.957 -0.133,-3.02c-0.089,-1.063 0.143,-1.632 0.697,-1.707c0.553,-0.075 1.005,2.659 1.353,8.203l0.523,5.127c-0.177,0.417 -0.448,0.625 -0.81,0.625c-0.629,0 -1.08,-2.262 -1.353,-6.788l-0.277,0c-3.063,0.185 -5.322,0.277 -6.778,0.277l-0.277,0l-0.543,0.267c0.567,3.425 0.664,5.429 0.292,6.014c-0.373,0.584 -0.786,0.295 -1.241,-0.867c-0.454,-1.162 -0.777,-3.577 -0.969,-7.244c-0.191,-3.668 -0.003,-5.59 0.564,-5.768Z" style="fill:#1f1f1f;fill-rule:nonzero;"/><path d="M196.818,17.985c2.372,0 4.388,1.46 6.05,4.379c0.786,2.01 0.799,3.985 0.041,5.927c-0.759,1.941 -2.369,3.23 -4.83,3.865l-1.015,0c-2.57,-0.348 -4.394,-1.244 -5.471,-2.686c-1.076,-1.443 -1.449,-3.403 -1.117,-5.881c0.331,-2.478 1.693,-4.206 4.086,-5.183c1.012,-0.28 1.764,-0.421 2.256,-0.421Zm-4.02,4.205c-0.506,0.957 -0.76,2.185 -0.764,3.686c-0.003,1.5 0.586,2.62 1.769,3.358c1.183,0.738 2.755,0.993 4.717,0.764c1.962,-0.229 3.021,-1.608 3.179,-4.138c0.157,-2.529 -0.491,-4.216 -1.944,-5.06c-1.452,-0.844 -2.848,-1.063 -4.188,-0.656c-1.34,0.407 -2.263,1.089 -2.769,2.046Z" style="fill:#1f1f1f;fill-rule:nonzero;"/><path d="M208.056,18.068c2.147,-0.069 3.709,0.543 4.686,1.835c0.978,1.292 1.42,2.228 1.328,2.81c-0.092,0.581 -0.33,0.871 -0.713,0.871c-0.383,0 -0.892,-0.513 -1.528,-1.538c-0.635,-1.025 -1.661,-1.688 -3.076,-1.989c-1.545,0.301 -2.486,1.29 -2.825,2.968c-0.338,1.678 -0.247,3.36 0.272,5.045c0.52,1.685 1.637,2.415 3.353,2.189c2.242,-0.191 4.17,-0.84 5.783,-1.948c0.376,0.062 0.564,0.26 0.564,0.595l0,0.584c-1.387,1.573 -3.413,2.489 -6.075,2.748c-2.663,0.26 -4.382,-0.873 -5.158,-3.399c-0.776,-2.526 -0.846,-4.92 -0.21,-7.183c0.636,-2.262 1.835,-3.459 3.599,-3.588Z" style="fill:#1f1f1f;fill-rule:nonzero;"/><path d="M219.315,18.057c5.913,-0.075 8.9,0.284 8.962,1.077l0,0.308c0,0.43 -0.185,0.646 -0.554,0.646l-4.563,-0.185c0.089,1.873 0.489,5.852 1.2,11.936l-0.79,0.317l-0.277,0c-0.676,0 -1.387,-4.108 -2.132,-12.325c-3.118,0.239 -4.714,0.007 -4.789,-0.697c0,-0.54 0.981,-0.899 2.943,-1.077Z" style="fill:#1f1f1f;fill-rule:nonzero;"/><path d="M229.63,18.026c0.684,0 1.364,3.531 2.041,10.593l0.512,0c4.41,-5.196 6.532,-8.128 6.368,-8.798c0.164,-0.656 0.417,-0.984 0.759,-0.984c0.731,0 1.579,4.347 2.543,13.043l-0.513,0.276c-0.977,0 -1.712,-3.093 -2.204,-9.279c-3.569,4.518 -5.536,7.104 -5.902,7.757c-0.365,0.653 -0.844,1.023 -1.435,1.112c-0.591,0.089 -1.058,-0.586 -1.4,-2.025c-0.342,-1.439 -0.753,-3.664 -1.235,-6.675c-0.482,-3.011 -0.327,-4.685 0.466,-5.02Z" style="fill:#1f1f1f;fill-rule:nonzero;"/></g></svg>