<?xml version="1.0" encoding="UTF-8" standalone="no"?><!DOCTYPE svg PUBLIC "-//W3C//DTD SVG 1.1//EN" "http://www.w3.org/Graphics/SVG/1.1/DTD/svg11.dtd"><svg width="100%" height="100%" viewBox="0 0 226 56" version="1.1" xmlns="http://www.w3.org/2000/svg" xmlns:xlink="http://www.w3.org/1999/xlink" xml:space="preserve" xmlns:serif="http://www.serif.com/" style="fill-rule:evenodd;clip-rule:evenodd;stroke-linecap:round;stroke-linejoin:round;stroke-miterlimit:1.5;"><path d="M1.5,1.5c0,0 6.288,39.918 3,48c-3.288,8.082 214,2 214,2l6,-49l-223,-1Z" style="fill:#fff;stroke:#1f1f1f;stroke-width:3px;"/><g><path d="M32.983,20.592c2.147,-0.069 3.709,0.543 4.686,1.835c0.978,1.292 1.42,2.229 1.328,2.81c-0.092,0.581 -0.33,0.871 -0.713,0.871c-0.382,0 -0.892,-0.513 -1.528,-1.538c-0.635,-1.025 -1.661,-1.688 -3.076,-1.989c-1.545,0.301 -2.486,1.29 -2.825,2.968c-0.338,1.679 -0.247,3.36 0.272,5.045c0.52,1.685 1.637,2.415 3.353,2.189c2.242,-0.191 4.17,-0.84 5.783,-1.948c0.376,0.062 0.564,0.26 0.564,0.595l0,0.584c-1.387,1.573 -3.413,2.489 -6.075,2.748c-2.663,0.26 -4.382,-0.873 -5.158,-3.399c-0.776,-2.526 -0.846,-4.92 -0.21,-7.183c0.636,-2.262 1.835,-3.459 3.599,-3.588Z" style="fill:#1f1f1f;fill-rule:nonzero;"/><path d="M41.863,20.489c0.451,0 1.059,2.246 1.825,6.737l0.226,0c3.213,-4.17 4.966,-6.255 5.26,-6.255l0.226,0c0.307,0.048 0.461,0.208 0.461,0.482l0,0.482l-4.799,6.491c2.878,1.435 5.39,3.199 7.537,5.291l0,0.246c0,0.362 -0.38,0.601 -1.138,0.717c-1.484,-1.401 -3.695,-2.843 -6.635,-4.327l-0.912,-0.728l-0.226,0.482l0.687,3.61l-0.461,0.246l-0.226,0c-0.793,0 -1.372,-1.872 -1.738,-5.614c-0.366,-3.743 -0.548,-6.124 -0.548,-7.142l0,-0.236c0.047,-0.321 0.201,-0.482 0.461,-0.482Z" style="fill:#1f1f1f;fill-rule:nonzero;"/><path d="M56.28,20.397l0.215,0c3.692,6.426 5.999,10.965 6.922,13.617l-0.8,0.338l-2.646,-4.327l-4.563,0.267l-1.363,4.337l-0.985,-0.072c1.463,-9.44 2.536,-14.16 3.22,-14.16Zm0.215,2.738l-0.779,5.844l3.64,-0.225l-2.861,-5.619Z" style="fill:#1f1f1f;fill-rule:nonzero;"/><path d="M64.668,20.489l0.287,0c0.759,0.164 1.017,0.855 0.774,2.071c-0.243,1.217 -0.005,2.595 0.713,4.133c0.717,1.538 2.56,2.372 5.526,2.502c-0.041,-2.742 -0.061,-4.717 -0.061,-5.927l0,-0.277c0.014,-1.559 0.282,-2.377 0.805,-2.456c0.523,-0.078 0.812,0.463 0.866,1.625c0.171,5.244 0.4,9.222 0.687,11.936c-0.089,0.39 -0.318,0.584 -0.687,0.584c-0.506,0 -0.97,-1.114 -1.394,-3.342c-3.261,-0.342 -5.471,-1.246 -6.629,-2.712c-1.159,-1.467 -1.699,-3.184 -1.621,-5.153c0.079,-1.969 0.323,-2.963 0.734,-2.984Z" style="fill:#1f1f1f;fill-rule:nonzero;"/><path d="M77.731,20.397l0.215,0c3.692,6.426 5.999,10.965 6.922,13.617l-0.8,0.338l-2.646,-4.327l-4.562,0.267l-1.364,4.337l-0.985,-0.072c1.463,-9.44 2.536,-14.16 3.22,-14.16Zm0.215,2.738l-0.779,5.844l3.64,-0.225l-2.861,-5.619Z" style="fill:#1f1f1f;fill-rule:nonzero;"/><path d="M88.231,20.581c5.913,-0.075 8.9,0.284 8.962,1.077l0,0.308c0,0.43 -0.185,0.646 -0.554,0.646l-4.563,-0.185c0.089,1.873 0.489,5.852 1.2,11.936l-0.79,0.317l-0.276,0c-0.677,0 -1.388,-4.108 -2.133,-12.325c-3.117,0.24 -4.714,0.007 -4.789,-0.697c0,-0.54 0.981,-0.899 2.943,-1.077Z" style="fill:#1f1f1f;fill-rule:nonzero;"/><path d="M97.788,20.571c1.134,-0.335 1.777,0.051 1.927,1.159l0.482,4.737c4.471,-0.301 6.966,1.213 7.486,4.543l0,1.158c-0.328,1.313 -3.076,2.085 -8.244,2.318c-0.698,-0.923 -1.248,-5.561 -1.651,-13.915Zm2.327,7.639c0.096,2.83 0.328,4.245 0.698,4.245c2.153,0 3.8,-0.29 4.942,-0.871l0,-0.872c-0.875,-1.928 -2.755,-2.762 -5.64,-2.502Z" style="fill:#1f1f1f;fill-rule:nonzero;"/><path d="M114.425,20.868c0.755,-0.116 2.076,-0.235 3.963,-0.358c1.887,-0.123 3.04,-0.009 3.461,0.343c0.42,0.352 0.712,2.709 0.876,7.07c0.868,-0.137 1.494,-0.096 1.877,0.123c0.383,0.219 0.618,1.306 0.707,3.261c0.089,1.955 -0.041,3.023 -0.389,3.204c-0.349,0.181 -0.645,0.045 -0.887,-0.41c-0.243,-0.454 -0.45,-1.974 -0.621,-4.558l-9.751,0.574l0.543,3.846l0,0.236c0,0.321 -0.304,0.512 -0.912,0.574c-0.588,-1.388 -0.961,-3.035 -1.118,-4.943c0.287,-0.854 0.74,-1.29 1.359,-1.307c0.618,-0.017 0.95,-0.159 0.994,-0.426c0.045,-0.266 -0.15,-1.509 -0.584,-3.727c-0.434,-2.218 -0.274,-3.385 0.482,-3.502Zm1.328,1.631c0.068,3.705 0.276,5.602 0.625,5.691l4.778,-0.328c-0.259,-0.315 -0.478,-2.147 -0.656,-5.496c-0.403,-0.383 -1.986,-0.339 -4.747,0.133Z" style="fill:#1f1f1f;fill-rule:nonzero;"/><path d="M132.425,20.51c2.372,0 4.389,1.459 6.05,4.378c0.786,2.01 0.8,3.985 0.041,5.927c-0.759,1.941 -2.368,3.23 -4.829,3.865l-1.015,0c-2.571,-0.348 -4.394,-1.244 -5.471,-2.686c-1.077,-1.442 -1.449,-3.403 -1.118,-5.881c0.332,-2.478 1.694,-4.206 4.087,-5.183c1.011,-0.28 1.763,-0.42 2.255,-0.42Zm-4.019,4.204c-0.506,0.957 -0.761,2.185 -0.764,3.686c-0.003,1.5 0.586,2.62 1.769,3.358c1.182,0.738 2.755,0.993 4.717,0.764c1.961,-0.229 3.021,-1.608 3.178,-4.137c0.158,-2.53 -0.49,-4.217 -1.943,-5.061c-1.452,-0.844 -2.849,-1.063 -4.189,-0.656c-1.339,0.407 -2.262,1.089 -2.768,2.046Z" style="fill:#1f1f1f;fill-rule:nonzero;"/><path d="M144.422,20.556c2.783,-0.004 4.124,0.283 4.025,0.861c-0.099,0.578 -2.333,0.863 -6.701,0.856c0.253,1.511 0.721,3.953 1.405,7.327c0.684,3.373 0.561,5.067 -0.369,5.08c-0.759,0 -1.613,-3.629 -2.564,-10.889l-0.441,-2.502c0.315,-0.486 1.863,-0.73 4.645,-0.733Z" style="fill:#1f1f1f;fill-rule:nonzero;"/><path d="M155.61,20.51c2.372,0 4.388,1.459 6.049,4.378c0.786,2.01 0.8,3.985 0.041,5.927c-0.758,1.941 -2.368,3.23 -4.829,3.865l-1.015,0c-2.571,-0.348 -4.394,-1.244 -5.471,-2.686c-1.077,-1.442 -1.449,-3.403 -1.118,-5.881c0.332,-2.478 1.694,-4.206 4.087,-5.183c1.011,-0.28 1.763,-0.42 2.256,-0.42Zm-4.02,4.204c-0.506,0.957 -0.761,2.185 -0.764,3.686c-0.003,1.5 0.586,2.62 1.769,3.358c1.182,0.738 2.755,0.993 4.717,0.764c1.962,-0.229 3.021,-1.608 3.178,-4.137c0.158,-2.53 -0.49,-4.217 -1.943,-5.061c-1.452,-0.844 -2.849,-1.063 -4.188,-0.656c-1.34,0.407 -2.263,1.089 -2.769,2.046Z" style="fill:#1f1f1f;fill-rule:nonzero;"/><path d="M163.126,20.438l3.004,0c2.331,0 3.681,0.919 4.05,2.758c-0.027,1.107 -0.629,2.02 -1.804,2.738l-0.554,0.338c3.534,1.497 5.301,3.466 5.301,5.906c-0.82,1.668 -2.153,2.502 -3.999,2.502c-2.994,0 -4.399,-0.28 -4.214,-0.84c-1.354,-8.436 -2.03,-12.821 -2.03,-13.156c0.164,0 0.246,-0.082 0.246,-0.246Zm1.374,1.22c0.253,2.256 0.434,3.609 0.543,4.061c1.627,0.143 2.827,-0.527 3.599,-2.01c0.021,-1.511 -1.36,-2.195 -4.142,-2.051Zm0.881,5.773c0.329,2.085 0.66,3.972 0.995,5.66l2.246,0.338c2.003,0 3.004,-0.834 3.004,-2.501c-1.955,-2.496 -4.037,-3.661 -6.245,-3.497Z" style="fill:#1f1f1f;fill-rule:nonzero;"/><path d="M180.219,20.51c2.372,0 4.389,1.459 6.05,4.378c0.786,2.01 0.799,3.985 0.041,5.927c-0.759,1.941 -2.369,3.23 -4.83,3.865l-1.015,0c-2.57,-0.348 -4.394,-1.244 -5.47,-2.686c-1.077,-1.442 -1.45,-3.403 -1.118,-5.881c0.331,-2.478 1.693,-4.206 4.086,-5.183c1.012,-0.28 1.764,-0.42 2.256,-0.42Zm-4.02,4.204c-0.506,0.957 -0.76,2.185 -0.764,3.686c-0.003,1.5 0.587,2.62 1.769,3.358c1.183,0.738 2.755,0.993 4.717,0.764c1.962,-0.229 3.022,-1.608 3.179,-4.137c0.157,-2.53 -0.491,-4.217 -1.943,-5.061c-1.453,-0.844 -2.849,-1.063 -4.189,-0.656c-1.34,0.407 -2.263,1.089 -2.769,2.046Z" style="fill:#1f1f1f;fill-rule:nonzero;"/><path d="M188.032,20.489c5.784,-0.267 8.788,1.278 9.014,4.635l0,0.82c0,1.962 -1.549,3.056 -4.645,3.281l-1.908,0c0.363,1.566 0.544,2.564 0.544,2.995l0,1.917c0,0.362 -0.181,0.543 -0.544,0.543l-0.277,0c-0.868,0 -1.777,-4.638 -2.727,-13.914l0.543,-0.277Zm1.692,2l0,0.779c0,2.741 0.516,4.112 1.549,4.112l0.512,0c2.229,-0.123 3.343,-0.465 3.343,-1.026l0,-0.256c0,-1.873 -0.706,-3.006 -2.117,-3.399c-1.412,-0.393 -2.507,-0.463 -3.287,-0.21Z" style="fill:#1f1f1f;fill-rule:nonzero;"/></g></svg>