<?xml version="1.0" encoding="UTF-8" standalone="no"?><!DOCTYPE svg PUBLIC "-//W3C//DTD SVG 1.1//EN" "http://www.w3.org/Graphics/SVG/1.1/DTD/svg11.dtd"><svg width="100%" height="100%" viewBox="0 0 320 53" version="1.1" xmlns="http://www.w3.org/2000/svg" xmlns:xlink="http://www.w3.org/1999/xlink" xml:space="preserve" xmlns:serif="http://www.serif.com/" style="fill-rule:evenodd;clip-rule:evenodd;stroke-linejoin:round;stroke-miterlimit:1.41421;"><path d="M0,0c0,0 9.003,39.918 4.295,48c-4.707,8.082 306.383,2 306.383,2l8.59,-49l-319.268,-1Z" style="fill:#d82133;"/><g><path d="M31.922,18.549c5.962,-0.041 9.079,-0.061 9.352,-0.061c0.259,0.375 0.805,3.908 1.637,10.6c0.334,1.842 0.502,2.947 0.502,3.315l-1.003,0c-0.621,0 -1.371,-3.817 -2.251,-11.449c0,-0.403 -0.164,-0.604 -0.491,-0.604l-6.999,0l0,0.604c0.205,1.889 0.604,5.231 1.197,10.027l0.215,1.575c-0.273,0.096 -0.576,0.144 -0.91,0.144c-0.853,0 -1.668,-4.533 -2.446,-13.598c0.3,-0.369 0.7,-0.553 1.197,-0.553Z" style="fill:#fff;fill-rule:nonzero;"/><path d="M44.589,18.539c5.771,-0.266 8.769,1.276 8.994,4.625l0,0.818c0,1.958 -1.545,3.049 -4.635,3.274l-1.903,0c0.361,1.562 0.542,2.558 0.542,2.988l0,1.913c0,0.362 -0.181,0.543 -0.542,0.543l-0.276,0c-0.867,0 -1.774,-4.629 -2.722,-13.885l0.542,-0.276Zm1.688,1.995l0,0.778c0,2.735 0.515,4.103 1.545,4.103l0.512,0c2.224,-0.123 3.336,-0.464 3.336,-1.023l0,-0.256c0,-1.869 -0.705,-3 -2.113,-3.392c-1.409,-0.392 -2.502,-0.462 -3.28,-0.21Z" style="fill:#fff;fill-rule:nonzero;"/><path d="M54.811,18.6c0.682,0 1.36,3.523 2.036,10.57l0.511,0c4.4,-5.184 6.518,-8.111 6.354,-8.779c0.164,-0.655 0.416,-0.982 0.757,-0.982c0.73,0 1.576,4.338 2.538,13.014l-0.512,0.277c-0.975,0 -1.708,-3.087 -2.2,-9.26c-3.56,4.509 -5.523,7.089 -5.888,7.74c-0.365,0.652 -0.842,1.022 -1.432,1.11c-0.59,0.089 -1.056,-0.585 -1.397,-2.02c-0.341,-1.436 -0.752,-3.657 -1.233,-6.661c-0.481,-3.005 -0.326,-4.674 0.466,-5.009Z" style="fill:#fff;fill-rule:nonzero;"/><path d="M71.406,18.641c2.142,-0.068 3.701,0.543 4.676,1.832c0.976,1.289 1.417,2.223 1.325,2.803c-0.092,0.58 -0.329,0.87 -0.711,0.87c-0.382,0 -0.89,-0.512 -1.524,-1.535c-0.635,-1.023 -1.658,-1.685 -3.07,-1.985c-1.541,0.3 -2.481,1.288 -2.819,2.962c-0.337,1.675 -0.247,3.353 0.271,5.034c0.519,1.682 1.634,2.41 3.346,2.185c2.238,-0.191 4.161,-0.839 5.771,-1.944c0.375,0.061 0.563,0.259 0.563,0.593l0,0.583c-1.385,1.569 -3.406,2.483 -6.063,2.742c-2.656,0.26 -4.372,-0.871 -5.146,-3.391c-0.774,-2.521 -0.844,-4.91 -0.21,-7.168c0.634,-2.257 1.832,-3.451 3.591,-3.581Z" style="fill:#fff;fill-rule:nonzero;"/><path d="M86.304,18.559c2.367,0 4.379,1.457 6.036,4.369c0.785,2.006 0.798,3.977 0.041,5.914c-0.757,1.937 -2.363,3.223 -4.819,3.858l-1.013,0c-2.564,-0.348 -4.384,-1.242 -5.458,-2.681c-1.075,-1.439 -1.446,-3.395 -1.116,-5.868c0.331,-2.473 1.69,-4.197 4.078,-5.172c1.009,-0.28 1.76,-0.42 2.251,-0.42Zm-4.011,4.195c-0.505,0.955 -0.759,2.181 -0.762,3.679c-0.004,1.497 0.585,2.614 1.765,3.351c1.18,0.736 2.749,0.99 4.706,0.762c1.958,-0.229 3.015,-1.605 3.172,-4.129c0.157,-2.523 -0.489,-4.207 -1.939,-5.049c-1.449,-0.842 -2.843,-1.061 -4.18,-0.655c-1.336,0.406 -2.257,1.086 -2.762,2.041Z" style="fill:#fff;fill-rule:nonzero;"/><path d="M93.957,19.475c0.123,-0.501 0.9,-0.794 2.333,-0.88c1.432,-0.085 3.134,-0.09 5.105,-0.015c1.972,0.075 2.76,0.411 2.364,1.008c-0.396,0.597 -3.001,0.892 -7.817,0.885l0.133,3.888c2.421,-0.109 3.639,0.14 3.653,0.747c0.013,0.607 -0.623,0.91 -1.909,0.91c-1.285,0 -1.857,0.314 -1.713,0.942c-0.137,2.789 0.17,4.147 0.92,4.072l7.285,-0.133l0.215,0.481l0,0.245c0,0.553 -0.808,0.879 -2.425,0.977c-1.616,0.099 -3.257,0.14 -4.921,0.123c-1.664,-0.017 -2.536,-0.247 -2.614,-0.69c-0.079,-0.444 -0.23,-2.523 -0.456,-6.237c-0.225,-3.714 -0.276,-5.821 -0.153,-6.323Z" style="fill:#fff;fill-rule:nonzero;"/><path d="M107.222,18.918c0.754,-0.116 2.072,-0.236 3.955,-0.359c1.883,-0.122 3.034,-0.008 3.453,0.343c0.42,0.352 0.711,2.703 0.875,7.055c0.866,-0.136 1.49,-0.096 1.872,0.123c0.382,0.218 0.618,1.303 0.706,3.253c0.089,1.951 -0.041,3.017 -0.389,3.198c-0.347,0.181 -0.642,0.044 -0.885,-0.409c-0.242,-0.454 -0.448,-1.97 -0.619,-4.548l-9.73,0.573l0.542,3.836l0,0.236c0,0.32 -0.303,0.511 -0.91,0.573c-0.587,-1.385 -0.959,-3.029 -1.116,-4.932c0.287,-0.853 0.739,-1.287 1.356,-1.305c0.617,-0.017 0.948,-0.158 0.993,-0.424c0.044,-0.266 -0.15,-1.506 -0.584,-3.719c-0.433,-2.214 -0.272,-3.378 0.481,-3.494Zm1.325,1.626c0.069,3.697 0.277,5.59 0.624,5.679l4.768,-0.327c-0.259,-0.314 -0.477,-2.142 -0.654,-5.485c-0.403,-0.382 -1.982,-0.337 -4.738,0.133Z" style="fill:#fff;fill-rule:nonzero;"/><path d="M119.342,18.6c0.682,0 1.361,3.523 2.036,10.57l0.511,0c4.4,-5.184 6.518,-8.111 6.354,-8.779c0.164,-0.655 0.416,-0.982 0.757,-0.982c0.73,0 1.576,4.338 2.538,13.014l-0.512,0.277c-0.975,0 -1.708,-3.087 -2.2,-9.26c-3.56,4.509 -5.523,7.089 -5.888,7.74c-0.365,0.652 -0.842,1.022 -1.432,1.11c-0.59,0.089 -1.056,-0.585 -1.397,-2.02c-0.341,-1.436 -0.752,-3.657 -1.233,-6.661c-0.481,-3.005 -0.326,-4.674 0.466,-5.009Z" style="fill:#fff;fill-rule:nonzero;"/><path d="M132.622,18.621c0.867,-0.027 1.317,1.958 1.351,5.955l4.481,0c1.726,0 2.79,-0.072 3.193,-0.215l-0.092,-0.87c0,-0.948 -0.045,-1.952 -0.133,-3.013c-0.089,-1.061 0.143,-1.629 0.695,-1.704c0.553,-0.075 1.003,2.654 1.351,8.186l0.522,5.115c-0.178,0.417 -0.447,0.625 -0.808,0.625c-0.628,0 -1.078,-2.258 -1.351,-6.774l-0.276,0c-3.056,0.184 -5.311,0.277 -6.763,0.277l-0.277,0l-0.542,0.266c0.566,3.417 0.663,5.417 0.292,6c-0.372,0.584 -0.785,0.295 -1.238,-0.864c-0.454,-1.16 -0.776,-3.569 -0.967,-7.229c-0.191,-3.659 -0.004,-5.578 0.562,-5.755Z" style="fill:#fff;fill-rule:nonzero;"/><path d="M145.381,18.6c0.682,0 1.361,3.523 2.036,10.57l0.512,0c4.4,-5.184 6.518,-8.111 6.354,-8.779c0.164,-0.655 0.416,-0.982 0.757,-0.982c0.73,0 1.576,4.338 2.537,13.014l-0.511,0.277c-0.976,0 -1.709,-3.087 -2.2,-9.26c-3.561,4.509 -5.523,7.089 -5.888,7.74c-0.365,0.652 -0.843,1.022 -1.433,1.11c-0.59,0.089 -1.055,-0.585 -1.396,-2.02c-0.341,-1.436 -0.752,-3.657 -1.233,-6.661c-0.481,-3.005 -0.326,-4.674 0.465,-5.009Z" style="fill:#fff;fill-rule:nonzero;"/><path d="M160.954,18.631c5.9,-0.075 8.881,0.283 8.942,1.074l0,0.307c0,0.43 -0.184,0.645 -0.552,0.645l-4.553,-0.184c0.088,1.869 0.487,5.839 1.197,11.909l-0.788,0.318l-0.276,0c-0.676,0 -1.385,-4.1 -2.128,-12.299c-3.111,0.239 -4.704,0.007 -4.779,-0.696c0,-0.538 0.979,-0.897 2.937,-1.074Z" style="fill:#fff;fill-rule:nonzero;"/><path d="M170.49,18.621c1.132,-0.334 1.773,0.051 1.923,1.156l0.481,4.727c4.461,-0.3 6.951,1.211 7.469,4.533l0,1.156c-0.327,1.31 -3.069,2.08 -8.226,2.312c-0.696,-0.921 -1.245,-5.549 -1.647,-13.884Zm2.322,7.622c0.096,2.824 0.328,4.236 0.696,4.236c2.149,0 3.793,-0.29 4.932,-0.869l0,-0.87c-0.873,-1.924 -2.749,-2.756 -5.628,-2.497Z" style="fill:#fff;fill-rule:nonzero;"/><path d="M184.804,18.641c2.142,-0.068 3.7,0.543 4.676,1.832c0.975,1.289 1.417,2.223 1.325,2.803c-0.092,0.58 -0.329,0.87 -0.711,0.87c-0.382,0 -0.89,-0.512 -1.525,-1.535c-0.634,-1.023 -1.657,-1.685 -3.069,-1.985c-1.542,0.3 -2.482,1.288 -2.819,2.962c-0.338,1.675 -0.247,3.353 0.271,5.034c0.518,1.682 1.634,2.41 3.346,2.185c2.237,-0.191 4.161,-0.839 5.77,-1.944c0.376,0.061 0.563,0.259 0.563,0.593l0,0.583c-1.385,1.569 -3.405,2.483 -6.062,2.742c-2.657,0.26 -4.372,-0.871 -5.147,-3.391c-0.774,-2.521 -0.844,-4.91 -0.209,-7.168c0.634,-2.257 1.831,-3.451 3.591,-3.581Z" style="fill:#fff;fill-rule:nonzero;"/><path d="M197.338,18.744l1.453,-0.164c0.661,0.034 1.21,0.036 1.647,0.005c0.436,-0.031 0.806,0.113 1.11,0.43c0.304,0.317 0.551,4.374 0.742,12.17c0.041,0.914 -0.247,1.428 -0.865,1.54c-0.617,0.113 -0.956,-1.898 -1.018,-6.031l-2.854,0.061l-3.193,5.996c-0.682,0.184 -1.084,-0.007 -1.207,-0.573c0.293,-1.426 1.102,-3.315 2.425,-5.669c-1.583,-0.948 -2.35,-2.286 -2.302,-4.015c0.047,-1.73 1.401,-2.98 4.062,-3.75Zm2.506,1.299c-3.144,0.143 -4.725,0.97 -4.742,2.481c-0.017,1.511 0.718,2.427 2.205,2.747l2.977,0.052c0.055,-2.197 -0.092,-3.957 -0.44,-5.28Z" style="fill:#fff;fill-rule:nonzero;"/><path d="M207.61,18.539c0.45,0 1.058,2.241 1.822,6.722l0.225,0c3.206,-4.161 4.955,-6.241 5.248,-6.241l0.226,0c0.306,0.048 0.46,0.208 0.46,0.481l0,0.481l-4.788,6.476c2.871,1.433 5.378,3.193 7.52,5.28l0,0.245c0,0.362 -0.379,0.601 -1.136,0.717c-1.48,-1.399 -3.687,-2.838 -6.62,-4.318l-0.91,-0.727l-0.225,0.481l0.685,3.602l-0.46,0.245l-0.225,0c-0.792,0 -1.37,-1.867 -1.735,-5.601c-0.365,-3.735 -0.547,-6.11 -0.547,-7.127l0,-0.235c0.048,-0.321 0.201,-0.481 0.46,-0.481Z" style="fill:#fff;fill-rule:nonzero;"/><path d="M226.099,18.447l0.215,0c3.683,6.412 5.985,10.941 6.906,13.588l-0.798,0.337l-2.64,-4.318l-4.553,0.266l-1.361,4.328l-0.982,-0.071c1.46,-9.42 2.531,-14.13 3.213,-14.13Zm0.215,2.732l-0.778,5.832l3.632,-0.225l-2.854,-5.607Z" style="fill:#fff;fill-rule:nonzero;"/><path d="M234.202,18.539c0.451,0 1.058,2.241 1.822,6.722l0.225,0c3.206,-4.161 4.955,-6.241 5.249,-6.241l0.225,0c0.307,0.048 0.46,0.208 0.46,0.481l0,0.481l-4.788,6.476c2.871,1.433 5.378,3.193 7.52,5.28l0,0.245c0,0.362 -0.379,0.601 -1.136,0.717c-1.48,-1.399 -3.687,-2.838 -6.62,-4.318l-0.91,-0.727l-0.225,0.481l0.685,3.602l-0.46,0.245l-0.225,0c-0.792,0 -1.37,-1.867 -1.735,-5.601c-0.365,-3.735 -0.547,-6.11 -0.547,-7.127l0,-0.235c0.048,-0.321 0.201,-0.481 0.46,-0.481Z" style="fill:#fff;fill-rule:nonzero;"/><path d="M245.969,18.539c0.893,0.15 1.453,0.986 1.678,2.507c0.382,6.071 0.771,9.143 1.166,9.218l6.16,0.021c-0.321,-2.674 -0.502,-5.6 -0.543,-8.779c0.028,-1.098 0.297,-1.985 0.809,-2.66c0.593,-0.293 1.081,-0.212 1.463,0.246l-0.256,2.803l0,1.391c0,2.599 0.147,4.864 0.44,6.794c1.446,0.205 2.193,0.925 2.241,2.159c-0.232,1.665 -0.737,2.874 -1.515,3.627c-0.777,0.754 -1.248,0.943 -1.412,0.568c0.669,-2.026 1.105,-3.424 1.31,-4.195l-8.543,0c-2.169,0 -3.254,-3.076 -3.254,-9.229c-0.164,-1.582 -0.246,-2.889 -0.246,-3.918c0.055,-0.369 0.222,-0.553 0.502,-0.553Z" style="fill:#fff;fill-rule:nonzero;"/><path d="M260.467,18.6c0.682,0 1.361,3.523 2.036,10.57l0.512,0c4.399,-5.184 6.517,-8.111 6.354,-8.779c0.163,-0.655 0.416,-0.982 0.757,-0.982c0.73,0 1.575,4.338 2.537,13.014l-0.511,0.277c-0.976,0 -1.709,-3.087 -2.2,-9.26c-3.561,4.509 -5.524,7.089 -5.889,7.74c-0.364,0.652 -0.842,1.022 -1.432,1.11c-0.59,0.089 -1.056,-0.585 -1.397,-2.02c-0.341,-1.436 -0.752,-3.657 -1.233,-6.661c-0.48,-3.005 -0.325,-4.674 0.466,-5.009Z" style="fill:#fff;fill-rule:nonzero;"/><path d="M273.86,18.6c0.682,0 1.361,3.523 2.036,10.57l0.512,0c4.4,-5.184 6.518,-8.111 6.354,-8.779c0.164,-0.655 0.416,-0.982 0.757,-0.982c0.73,0 1.576,4.338 2.537,13.014l-0.511,0.277c-0.976,0 -1.709,-3.087 -2.2,-9.26c-3.561,4.509 -5.523,7.089 -5.888,7.74c-0.365,0.652 -0.843,1.022 -1.433,1.11c-0.59,0.089 -1.055,-0.585 -1.396,-2.02c-0.341,-1.436 -0.752,-3.657 -1.233,-6.661c-0.481,-3.005 -0.326,-4.674 0.465,-5.009Z" style="fill:#fff;fill-rule:nonzero;"/></g></svg>