<?xml version="1.0" encoding="UTF-8" standalone="no"?><!DOCTYPE svg PUBLIC "-//W3C//DTD SVG 1.1//EN" "http://www.w3.org/Graphics/SVG/1.1/DTD/svg11.dtd"><svg width="100%" height="100%" viewBox="0 0 271 56" version="1.1" xmlns="http://www.w3.org/2000/svg" xmlns:xlink="http://www.w3.org/1999/xlink" xml:space="preserve" xmlns:serif="http://www.serif.com/" style="fill-rule:evenodd;clip-rule:evenodd;stroke-linecap:round;stroke-linejoin:round;stroke-miterlimit:1.5;"><path d="M1.5,1.5c0,0 7.536,39.918 3.596,48c-3.941,8.082 256.481,2 256.481,2l7.191,-49l-267.268,-1Z" style="fill:#fff;stroke:#1f1f1f;stroke-width:3px;"/><g><path d="M29.823,18.068c2.146,-0.069 3.708,0.543 4.686,1.835c0.977,1.292 1.42,2.228 1.328,2.81c-0.093,0.581 -0.33,0.871 -0.713,0.871c-0.383,0 -0.892,-0.513 -1.528,-1.538c-0.636,-1.025 -1.661,-1.688 -3.076,-1.989c-1.545,0.301 -2.487,1.29 -2.825,2.968c-0.338,1.678 -0.248,3.36 0.272,5.045c0.519,1.685 1.637,2.415 3.353,2.189c2.242,-0.191 4.17,-0.84 5.783,-1.948c0.376,0.062 0.564,0.26 0.564,0.595l0,0.584c-1.388,1.573 -3.413,2.489 -6.076,2.748c-2.662,0.26 -4.381,-0.873 -5.157,-3.399c-0.776,-2.526 -0.846,-4.92 -0.21,-7.183c0.635,-2.262 1.835,-3.459 3.599,-3.588Z" style="fill:#1f1f1f;fill-rule:nonzero;"/><path d="M38.703,17.965c0.451,0 1.059,2.246 1.825,6.737l0.225,0c3.213,-4.17 4.967,-6.255 5.261,-6.255l0.225,0c0.308,0.048 0.462,0.208 0.462,0.482l0,0.482l-4.799,6.49c2.878,1.436 5.39,3.2 7.536,5.292l0,0.246c0,0.362 -0.379,0.601 -1.138,0.717c-1.483,-1.401 -3.695,-2.843 -6.634,-4.327l-0.913,-0.728l-0.225,0.482l0.687,3.61l-0.462,0.246l-0.225,0c-0.793,0 -1.373,-1.872 -1.738,-5.614c-0.366,-3.743 -0.549,-6.124 -0.549,-7.142l0,-0.236c0.048,-0.321 0.202,-0.482 0.462,-0.482Z" style="fill:#1f1f1f;fill-rule:nonzero;"/><path d="M53.12,17.873l0.215,0c3.691,6.425 5.998,10.965 6.921,13.617l-0.8,0.338l-2.645,-4.327l-4.563,0.267l-1.364,4.337l-0.984,-0.072c1.463,-9.44 2.536,-14.16 3.22,-14.16Zm0.215,2.737l-0.779,5.845l3.64,-0.225l-2.861,-5.62Z" style="fill:#1f1f1f;fill-rule:nonzero;"/><path d="M61.507,17.965l0.287,0c0.759,0.164 1.017,0.854 0.774,2.071c-0.242,1.217 -0.005,2.595 0.713,4.133c0.718,1.538 2.56,2.372 5.527,2.502c-0.041,-2.742 -0.062,-4.717 -0.062,-5.927l0,-0.277c0.014,-1.559 0.282,-2.377 0.805,-2.456c0.523,-0.078 0.812,0.463 0.867,1.625c0.171,5.244 0.4,9.222 0.687,11.936c-0.089,0.39 -0.318,0.584 -0.687,0.584c-0.506,0 -0.971,-1.114 -1.395,-3.342c-3.26,-0.342 -5.47,-1.246 -6.629,-2.713c-1.159,-1.466 -1.699,-3.183 -1.62,-5.152c0.079,-1.969 0.323,-2.964 0.733,-2.984Z" style="fill:#1f1f1f;fill-rule:nonzero;"/><path d="M74.571,17.873l0.215,0c3.691,6.425 5.999,10.965 6.921,13.617l-0.799,0.338l-2.646,-4.327l-4.563,0.267l-1.364,4.337l-0.984,-0.072c1.463,-9.44 2.536,-14.16 3.22,-14.16Zm0.215,2.737l-0.779,5.845l3.64,-0.225l-2.861,-5.62Z" style="fill:#1f1f1f;fill-rule:nonzero;"/><path d="M85.071,18.057c5.913,-0.075 8.9,0.284 8.962,1.077l0,0.308c0,0.43 -0.185,0.646 -0.554,0.646l-4.563,-0.185c0.089,1.873 0.489,5.852 1.2,11.936l-0.79,0.317l-0.277,0c-0.677,0 -1.387,-4.108 -2.133,-12.325c-3.117,0.239 -4.713,0.007 -4.788,-0.697c0,-0.54 0.981,-0.899 2.943,-1.077Z" style="fill:#1f1f1f;fill-rule:nonzero;"/><path d="M94.627,18.047c1.135,-0.335 1.778,0.051 1.928,1.159l0.482,4.737c4.471,-0.301 6.966,1.213 7.485,4.542l0,1.159c-0.328,1.313 -3.076,2.085 -8.244,2.318c-0.697,-0.923 -1.247,-5.561 -1.651,-13.915Zm2.328,7.639c0.096,2.83 0.328,4.245 0.697,4.245c2.154,0 3.801,-0.29 4.943,-0.871l0,-0.872c-0.875,-1.928 -2.755,-2.762 -5.64,-2.502Z" style="fill:#1f1f1f;fill-rule:nonzero;"/><path d="M110.367,17.975c5.975,-0.041 9.099,-0.061 9.372,-0.061c0.26,0.376 0.807,3.917 1.641,10.623c0.335,1.845 0.502,2.953 0.502,3.322l-1.005,0c-0.622,0 -1.374,-3.825 -2.256,-11.474c0,-0.403 -0.164,-0.605 -0.492,-0.605l-7.013,0l0,0.605c0.205,1.893 0.605,5.243 1.199,10.049l0.216,1.579c-0.274,0.096 -0.578,0.143 -0.913,0.143c-0.854,0 -1.671,-4.542 -2.451,-13.627c0.301,-0.369 0.701,-0.554 1.2,-0.554Z" style="fill:#1f1f1f;fill-rule:nonzero;"/><path d="M123.061,17.965c5.784,-0.267 8.788,1.278 9.014,4.635l0,0.82c0,1.962 -1.549,3.056 -4.645,3.281l-1.908,0c0.363,1.566 0.544,2.564 0.544,2.994l0,1.918c0,0.362 -0.181,0.543 -0.544,0.543l-0.277,0c-0.868,0 -1.777,-4.638 -2.727,-13.914l0.543,-0.277Zm1.692,1.999l0,0.78c0,2.741 0.516,4.112 1.549,4.112l0.512,0c2.229,-0.123 3.343,-0.465 3.343,-1.026l0,-0.256c0,-1.873 -0.706,-3.006 -2.117,-3.399c-1.412,-0.393 -2.507,-0.463 -3.287,-0.211Z" style="fill:#1f1f1f;fill-rule:nonzero;"/><path d="M132.946,18.903c0.123,-0.502 0.903,-0.796 2.338,-0.882c1.436,-0.085 3.141,-0.09 5.117,-0.015c1.975,0.075 2.765,0.412 2.368,1.01c-0.396,0.598 -3.007,0.894 -7.834,0.887l0.134,3.896c2.426,-0.109 3.647,0.141 3.66,0.749c0.014,0.608 -0.623,0.913 -1.912,0.913c-1.289,0 -1.861,0.314 -1.718,0.943c-0.136,2.796 0.171,4.156 0.923,4.081l7.301,-0.133l0.215,0.482l0,0.246c0,0.553 -0.81,0.88 -2.43,0.979c-1.62,0.099 -3.264,0.14 -4.932,0.123c-1.668,-0.017 -2.541,-0.248 -2.62,-0.692c-0.078,-0.444 -0.23,-2.528 -0.456,-6.25c-0.226,-3.722 -0.277,-5.834 -0.154,-6.337Z" style="fill:#1f1f1f;fill-rule:nonzero;"/><path d="M147.42,18.109c1.138,-0.37 2.271,-0.286 3.399,0.251c1.128,0.536 1.692,1.772 1.692,3.707c-0.335,1.203 -0.503,1.876 -0.503,2.02c2.201,1.148 3.341,2.378 3.42,3.691c0.078,1.312 -0.171,2.346 -0.749,3.102c-0.577,0.755 -1.587,1.157 -3.03,1.205c-1.442,0.047 -2.987,-0.224 -4.634,-0.816c-1.648,-0.591 -2.588,-1.218 -2.82,-1.881l0,-0.257c0.615,-0.875 1.153,-1.184 1.615,-0.928c0.461,0.257 0.779,0.578 0.953,0.964c0.175,0.387 0.757,0.728 1.749,1.026c0.991,0.297 2.079,0.355 3.265,0.174c1.187,-0.181 1.797,-0.812 1.831,-1.892c-0.178,-2.256 -1.801,-3.384 -4.871,-3.384l-0.256,-0.502l0,-0.246c0,-0.178 0.42,-0.516 1.261,-1.015c0.841,-0.499 1.261,-0.959 1.261,-1.379c0,-0.421 -0.294,-0.968 -0.882,-1.641c-0.587,-0.673 -1.254,-0.88 -1.999,-0.62c-0.766,1.339 -1.389,1.917 -1.871,1.733c-0.482,-0.185 -0.693,-0.691 -0.631,-1.518c0.062,-0.827 0.661,-1.425 1.8,-1.794Z" style="fill:#1f1f1f;fill-rule:nonzero;"/><path d="M156.479,18.903c0.123,-0.502 0.902,-0.796 2.338,-0.882c1.435,-0.085 3.141,-0.09 5.116,-0.015c1.976,0.075 2.766,0.412 2.369,1.01c-0.396,0.598 -3.008,0.894 -7.834,0.887l0.133,3.896c2.427,-0.109 3.647,0.141 3.661,0.749c0.014,0.608 -0.624,0.913 -1.912,0.913c-1.289,0 -1.861,0.314 -1.718,0.943c-0.137,2.796 0.171,4.156 0.923,4.081l7.301,-0.133l0.215,0.482l0,0.246c0,0.553 -0.81,0.88 -2.43,0.979c-1.62,0.099 -3.264,0.14 -4.932,0.123c-1.668,-0.017 -2.541,-0.248 -2.62,-0.692c-0.079,-0.444 -0.231,-2.528 -0.456,-6.25c-0.226,-3.722 -0.277,-5.834 -0.154,-6.337Z" style="fill:#1f1f1f;fill-rule:nonzero;"/><path d="M168.271,18.047c0.868,-0.027 1.319,1.962 1.353,5.968l4.492,0c1.729,0 2.796,-0.072 3.199,-0.216l-0.092,-0.871c0,-0.95 -0.045,-1.957 -0.134,-3.02c-0.089,-1.063 0.144,-1.632 0.697,-1.707c0.554,-0.075 1.005,2.659 1.354,8.203l0.523,5.127c-0.178,0.417 -0.448,0.625 -0.81,0.625c-0.629,0 -1.08,-2.262 -1.354,-6.788l-0.276,0c-3.063,0.185 -5.322,0.277 -6.778,0.277l-0.277,0l-0.544,0.267c0.568,3.425 0.665,5.429 0.293,6.014c-0.373,0.584 -0.787,0.295 -1.241,-0.867c-0.455,-1.162 -0.778,-3.577 -0.969,-7.244c-0.191,-3.668 -0.004,-5.59 0.564,-5.768Z" style="fill:#1f1f1f;fill-rule:nonzero;"/><path d="M183.242,18.057c5.913,-0.075 8.9,0.284 8.961,1.077l0,0.308c0,0.43 -0.184,0.646 -0.553,0.646l-4.563,-0.185c0.089,1.873 0.489,5.852 1.199,11.936l-0.789,0.317l-0.277,0c-0.677,0 -1.388,-4.108 -2.133,-12.325c-3.117,0.239 -4.713,0.007 -4.788,-0.697c0,-0.54 0.981,-0.899 2.943,-1.077Z" style="fill:#1f1f1f;fill-rule:nonzero;"/><path d="M195.926,17.873l0.215,0c3.691,6.425 5.999,10.965 6.921,13.617l-0.799,0.338l-2.646,-4.327l-4.563,0.267l-1.364,4.337l-0.984,-0.072c1.463,-9.44 2.536,-14.16 3.22,-14.16Zm0.215,2.737l-0.779,5.845l3.64,-0.225l-2.861,-5.62Z" style="fill:#1f1f1f;fill-rule:nonzero;"/><path d="M203.985,17.965c0.896,0.15 1.456,0.988 1.682,2.512c0.383,6.084 0.772,9.164 1.169,9.239l6.173,0.02c-0.322,-2.679 -0.503,-5.612 -0.544,-8.797c0.028,-1.101 0.298,-1.99 0.81,-2.666c0.595,-0.294 1.084,-0.212 1.467,0.246l-0.257,2.809l0,1.395c0,2.604 0.147,4.874 0.441,6.808c1.449,0.205 2.198,0.927 2.246,2.164c-0.233,1.668 -0.739,2.88 -1.518,3.635c-0.779,0.755 -1.251,0.945 -1.415,0.569c0.67,-2.03 1.108,-3.432 1.313,-4.204l-8.562,0c-2.174,0 -3.261,-3.083 -3.261,-9.249c-0.164,-1.586 -0.246,-2.895 -0.246,-3.927c0.054,-0.369 0.222,-0.554 0.502,-0.554Z" style="fill:#1f1f1f;fill-rule:nonzero;"/><path d="M218.515,18.026c0.684,0 1.364,3.531 2.041,10.593l0.512,0c4.409,-5.196 6.532,-8.128 6.368,-8.798c0.164,-0.656 0.417,-0.984 0.759,-0.984c0.731,0 1.579,4.347 2.543,13.043l-0.513,0.276c-0.978,0 -1.712,-3.093 -2.205,-9.279c-3.568,4.518 -5.535,7.104 -5.901,7.757c-0.365,0.653 -0.844,1.023 -1.435,1.112c-0.592,0.089 -1.058,-0.586 -1.4,-2.025c-0.342,-1.439 -0.754,-3.664 -1.236,-6.675c-0.481,-3.011 -0.326,-4.685 0.467,-5.02Z" style="fill:#1f1f1f;fill-rule:nonzero;"/><path d="M231.261,18.878c0.341,-0.718 0.755,-1.045 1.24,-0.98c0.486,0.065 0.776,1.537 0.872,4.415c0.089,1.695 0.407,2.443 0.954,2.245c1.312,0 1.992,-0.567 2.04,-1.702c0.773,-3.083 2.379,-4.669 4.819,-4.758c2.441,-0.089 3.849,2 4.225,6.265l-0.082,1.692c-0.718,3.91 -2.522,5.784 -5.414,5.619c-1.853,-0.355 -3.169,-2.314 -3.948,-5.875l-2.194,0.431l0.492,5.701c-0.513,0.239 -0.974,0.266 -1.384,0.082c-0.41,-0.185 -0.797,-2.217 -1.159,-6.096c-0.362,-3.88 -0.516,-6.226 -0.461,-7.039Zm6.326,6.818c0.274,2.311 1.063,3.67 2.369,4.076c1.306,0.407 2.34,-0.15 3.102,-1.671c0.762,-1.521 1.042,-3.08 0.841,-4.676c-0.202,-1.596 -0.814,-2.656 -1.836,-3.179c-1.022,-0.522 -2.006,-0.391 -2.953,0.395c-0.947,0.786 -1.454,2.471 -1.523,5.055Z" style="fill:#1f1f1f;fill-rule:nonzero;"/></g></svg>