<?xml version="1.0" encoding="UTF-8" standalone="no"?><!DOCTYPE svg PUBLIC "-//W3C//DTD SVG 1.1//EN" "http://www.w3.org/Graphics/SVG/1.1/DTD/svg11.dtd"><svg width="100%" height="100%" viewBox="0 0 320 53" version="1.1" xmlns="http://www.w3.org/2000/svg" xmlns:xlink="http://www.w3.org/1999/xlink" xml:space="preserve" xmlns:serif="http://www.serif.com/" style="fill-rule:evenodd;clip-rule:evenodd;stroke-linejoin:round;stroke-miterlimit:1.41421;"><path d="M0,0c0,0 9.003,39.918 4.295,48c-4.707,8.082 306.383,2 306.383,2l8.59,-49l-319.268,-1Z" style="fill:#d82133;"/><g><path d="M32.035,18.549c5.962,-0.041 9.079,-0.061 9.352,-0.061c0.259,0.375 0.805,3.908 1.637,10.6c0.334,1.842 0.501,2.947 0.501,3.315l-1.003,0c-0.62,0 -1.371,-3.817 -2.251,-11.449c0,-0.403 -0.163,-0.604 -0.491,-0.604l-6.998,0l0,0.604c0.205,1.889 0.604,5.231 1.197,10.027l0.215,1.575c-0.273,0.096 -0.577,0.144 -0.911,0.144c-0.852,0 -1.668,-4.533 -2.445,-13.598c0.3,-0.369 0.699,-0.553 1.197,-0.553Z" style="fill:#fff;fill-rule:nonzero;"/><path d="M50.759,18.559c2.367,0 4.379,1.457 6.037,4.369c0.784,2.006 0.798,3.977 0.041,5.914c-0.758,1.937 -2.364,3.223 -4.82,3.858l-1.013,0c-2.564,-0.348 -4.384,-1.242 -5.458,-2.681c-1.074,-1.439 -1.446,-3.395 -1.115,-5.868c0.33,-2.473 1.69,-4.197 4.077,-5.172c1.009,-0.28 1.76,-0.42 2.251,-0.42Zm-4.011,4.195c-0.505,0.955 -0.759,2.181 -0.762,3.679c-0.004,1.497 0.585,2.614 1.765,3.351c1.18,0.736 2.749,0.99 4.706,0.762c1.958,-0.229 3.015,-1.605 3.172,-4.129c0.157,-2.523 -0.489,-4.207 -1.939,-5.049c-1.449,-0.842 -2.842,-1.061 -4.179,-0.655c-1.337,0.406 -2.258,1.086 -2.763,2.041Z" style="fill:#fff;fill-rule:nonzero;"/><path d="M60.157,18.918c0.753,-0.116 2.072,-0.236 3.954,-0.359c1.883,-0.122 3.034,-0.008 3.453,0.343c0.42,0.352 0.712,2.703 0.875,7.055c0.867,-0.136 1.491,-0.096 1.873,0.123c0.382,0.218 0.617,1.303 0.706,3.253c0.088,1.951 -0.041,3.017 -0.389,3.198c-0.348,0.181 -0.643,0.044 -0.885,-0.409c-0.242,-0.454 -0.449,-1.97 -0.619,-4.548l-9.731,0.573l0.543,3.836l0,0.236c0,0.32 -0.304,0.511 -0.911,0.573c-0.587,-1.385 -0.958,-3.029 -1.115,-4.932c0.286,-0.853 0.738,-1.287 1.356,-1.305c0.617,-0.017 0.948,-0.158 0.992,-0.424c0.044,-0.266 -0.15,-1.506 -0.583,-3.719c-0.433,-2.214 -0.273,-3.378 0.481,-3.494Zm1.325,1.626c0.068,3.697 0.276,5.59 0.624,5.679l4.768,-0.327c-0.259,-0.314 -0.478,-2.142 -0.655,-5.485c-0.402,-0.382 -1.982,-0.337 -4.737,0.133Z" style="fill:#fff;fill-rule:nonzero;"/><path d="M78.118,18.559c2.367,0 4.38,1.457 6.037,4.369c0.784,2.006 0.798,3.977 0.041,5.914c-0.757,1.937 -2.364,3.223 -4.819,3.858l-1.013,0c-2.565,-0.348 -4.384,-1.242 -5.459,-2.681c-1.074,-1.439 -1.446,-3.395 -1.115,-5.868c0.331,-2.473 1.69,-4.197 4.077,-5.172c1.01,-0.28 1.76,-0.42 2.251,-0.42Zm-4.01,4.195c-0.505,0.955 -0.759,2.181 -0.763,3.679c-0.003,1.497 0.585,2.614 1.765,3.351c1.18,0.736 2.749,0.99 4.707,0.762c1.958,-0.229 3.015,-1.605 3.172,-4.129c0.157,-2.523 -0.49,-4.207 -1.939,-5.049c-1.45,-0.842 -2.843,-1.061 -4.18,-0.655c-1.337,0.406 -2.258,1.086 -2.762,2.041Z" style="fill:#fff;fill-rule:nonzero;"/><path d="M85.342,18.713c6.071,-0.321 9.111,-0.249 9.121,0.215c0.011,0.464 -0.177,0.765 -0.562,0.905c-0.386,0.14 -2.707,0.278 -6.963,0.415l0.706,4.287c2.742,-0.075 4.664,0.295 5.766,1.11c1.101,0.815 1.662,1.736 1.683,2.762c0.02,1.027 -0.42,1.912 -1.32,2.656c-0.901,0.743 -2.981,1.289 -6.241,1.637c-1.044,-4.366 -1.774,-9.028 -2.19,-13.987Zm2.558,7.336l0.941,5.147c2.217,-0.403 3.607,-1.024 4.17,-1.863c0.562,-0.839 0.405,-1.609 -0.471,-2.312c-0.877,-0.703 -2.423,-1.027 -4.64,-0.972Z" style="fill:#fff;fill-rule:nonzero;"/><path d="M96.014,18.539c5.77,-0.266 8.768,1.276 8.993,4.625l0,0.818c0,1.958 -1.545,3.049 -4.635,3.274l-1.903,0c0.362,1.562 0.542,2.558 0.542,2.988l0,1.913c0,0.362 -0.18,0.543 -0.542,0.543l-0.276,0c-0.866,0 -1.774,-4.629 -2.722,-13.885l0.543,-0.276Zm1.688,1.995l0,0.778c0,2.735 0.515,4.103 1.545,4.103l0.511,0c2.224,-0.123 3.336,-0.464 3.336,-1.023l0,-0.256c0,-1.869 -0.704,-3 -2.113,-3.392c-1.409,-0.392 -2.502,-0.462 -3.279,-0.21Z" style="fill:#fff;fill-rule:nonzero;"/><path d="M108.599,18.447l0.214,0c3.684,6.412 5.986,10.941 6.907,13.588l-0.798,0.337l-2.64,-4.318l-4.553,0.266l-1.361,4.328l-0.982,-0.071c1.459,-9.42 2.53,-14.13 3.213,-14.13Zm0.214,2.732l-0.777,5.832l3.632,-0.225l-2.855,-5.607Z" style="fill:#fff;fill-rule:nonzero;"/><path d="M119.076,18.631c5.9,-0.075 8.881,0.283 8.942,1.074l0,0.307c0,0.43 -0.184,0.645 -0.552,0.645l-4.553,-0.184c0.088,1.869 0.487,5.839 1.197,11.909l-0.788,0.318l-0.276,0c-0.676,0 -1.385,-4.1 -2.129,-12.299c-3.11,0.239 -4.703,0.007 -4.778,-0.696c0,-0.538 0.979,-0.897 2.937,-1.074Z" style="fill:#fff;fill-rule:nonzero;"/><path d="M128.612,18.621c1.132,-0.334 1.773,0.051 1.923,1.156l0.481,4.727c4.461,-0.3 6.951,1.211 7.469,4.533l0,1.156c-0.327,1.31 -3.069,2.08 -8.226,2.312c-0.696,-0.921 -1.245,-5.549 -1.647,-13.884Zm2.322,7.622c0.096,2.824 0.328,4.236 0.696,4.236c2.149,0 3.793,-0.29 4.932,-0.869l0,-0.87c-0.873,-1.924 -2.749,-2.756 -5.628,-2.497Z" style="fill:#fff;fill-rule:nonzero;"/><path d="M145.212,18.918c0.754,-0.116 2.072,-0.236 3.955,-0.359c1.883,-0.122 3.034,-0.008 3.453,0.343c0.42,0.352 0.711,2.703 0.875,7.055c0.866,-0.136 1.49,-0.096 1.872,0.123c0.382,0.218 0.618,1.303 0.706,3.253c0.089,1.951 -0.041,3.017 -0.388,3.198c-0.348,0.181 -0.643,0.044 -0.885,-0.409c-0.243,-0.454 -0.449,-1.97 -0.619,-4.548l-9.731,0.573l0.543,3.836l0,0.236c0,0.32 -0.304,0.511 -0.911,0.573c-0.587,-1.385 -0.958,-3.029 -1.115,-4.932c0.286,-0.853 0.738,-1.287 1.355,-1.305c0.618,-0.017 0.948,-0.158 0.993,-0.424c0.044,-0.266 -0.15,-1.506 -0.583,-3.719c-0.434,-2.214 -0.273,-3.378 0.48,-3.494Zm1.325,1.626c0.069,3.697 0.277,5.59 0.625,5.679l4.768,-0.327c-0.26,-0.314 -0.478,-2.142 -0.655,-5.485c-0.403,-0.382 -1.982,-0.337 -4.738,0.133Z" style="fill:#fff;fill-rule:nonzero;"/><path d="M157.332,18.6c0.682,0 1.361,3.523 2.036,10.57l0.512,0c4.399,-5.184 6.517,-8.111 6.353,-8.779c0.164,-0.655 0.417,-0.982 0.758,-0.982c0.729,0 1.575,4.338 2.537,13.014l-0.512,0.277c-0.975,0 -1.708,-3.087 -2.199,-9.26c-3.561,4.509 -5.524,7.089 -5.889,7.74c-0.365,0.652 -0.842,1.022 -1.432,1.11c-0.59,0.089 -1.056,-0.585 -1.397,-2.02c-0.341,-1.436 -0.752,-3.657 -1.233,-6.661c-0.481,-3.005 -0.325,-4.674 0.466,-5.009Z" style="fill:#fff;fill-rule:nonzero;"/><path d="M173.288,18.682c1.136,-0.368 2.266,-0.285 3.392,0.251c1.125,0.535 1.688,1.768 1.688,3.699c-0.334,1.2 -0.501,1.872 -0.501,2.015c2.196,1.146 3.334,2.374 3.412,3.684c0.079,1.309 -0.17,2.341 -0.747,3.095c-0.576,0.753 -1.584,1.154 -3.023,1.202c-1.44,0.048 -2.981,-0.223 -4.625,-0.813c-1.644,-0.59 -2.582,-1.216 -2.814,-1.878l0,-0.256c0.614,-0.873 1.151,-1.181 1.612,-0.926c0.46,0.256 0.777,0.577 0.951,0.962c0.174,0.385 0.756,0.727 1.745,1.023c0.989,0.297 2.075,0.355 3.259,0.174c1.183,-0.181 1.792,-0.81 1.826,-1.888c-0.177,-2.251 -1.797,-3.376 -4.86,-3.376l-0.256,-0.501l0,-0.246c0,-0.177 0.42,-0.515 1.259,-1.013c0.839,-0.498 1.258,-0.957 1.258,-1.376c0,-0.42 -0.293,-0.965 -0.88,-1.637c-0.586,-0.672 -1.251,-0.878 -1.995,-0.619c-0.764,1.337 -1.386,1.913 -1.867,1.729c-0.481,-0.184 -0.691,-0.689 -0.629,-1.514c0.061,-0.826 0.659,-1.422 1.795,-1.791Z" style="fill:#fff;fill-rule:nonzero;"/><path d="M185.049,18.447l0.215,0c3.684,6.412 5.986,10.941 6.907,13.588l-0.798,0.337l-2.64,-4.318l-4.553,0.266l-1.361,4.328l-0.982,-0.071c1.459,-9.42 2.53,-14.13 3.212,-14.13Zm0.215,2.732l-0.777,5.832l3.632,-0.225l-2.855,-5.607Z" style="fill:#fff;fill-rule:nonzero;"/><path d="M199.445,15.828l0.758,0c0.341,0.054 0.511,0.235 0.511,0.542c-0.225,0.723 -0.986,1.084 -2.282,1.084l-2.547,0c-0.334,0 -0.502,-0.18 -0.502,-0.542l0,-0.266c0,-0.546 1.354,-0.818 4.062,-0.818Zm-6.098,2.772c0.682,0 1.361,3.523 2.036,10.57l0.512,0c4.4,-5.184 6.518,-8.111 6.354,-8.779c0.164,-0.655 0.416,-0.982 0.757,-0.982c0.73,0 1.576,4.338 2.537,13.014l-0.511,0.277c-0.976,0 -1.709,-3.087 -2.2,-9.26c-3.561,4.509 -5.523,7.089 -5.888,7.74c-0.365,0.652 -0.843,1.022 -1.433,1.11c-0.59,0.089 -1.055,-0.585 -1.396,-2.02c-0.341,-1.436 -0.752,-3.657 -1.233,-6.661c-0.481,-3.005 -0.326,-4.674 0.465,-5.009Z" style="fill:#fff;fill-rule:nonzero;"/><path d="M206.628,18.621c0.866,-0.027 1.317,1.958 1.351,5.955l4.481,0c1.726,0 2.79,-0.072 3.192,-0.215l-0.092,-0.87c0,-0.948 -0.044,-1.952 -0.133,-3.013c-0.088,-1.061 0.143,-1.629 0.696,-1.704c0.553,-0.075 1.003,2.654 1.351,8.186l0.521,5.115c-0.177,0.417 -0.446,0.625 -0.808,0.625c-0.627,0 -1.078,-2.258 -1.35,-6.774l-0.277,0c-3.056,0.184 -5.31,0.277 -6.763,0.277l-0.276,0l-0.542,0.266c0.566,3.417 0.663,5.417 0.291,6c-0.372,0.584 -0.784,0.295 -1.238,-0.864c-0.453,-1.16 -0.776,-3.569 -0.967,-7.229c-0.191,-3.659 -0.003,-5.578 0.563,-5.755Z" style="fill:#fff;fill-rule:nonzero;"/><path d="M219.213,25.568c2.237,-0.007 4.567,-0.01 6.988,-0.01c0.444,0.348 0.495,0.723 0.154,1.125c-2.449,0.198 -4.833,0.202 -7.152,0.011c-0.601,-0.423 -0.597,-0.798 0.01,-1.126Z" style="fill:#fff;fill-rule:nonzero;"/><path d="M227.787,18.58l0.44,0l5.034,4.952l0.225,0c2.299,-2.64 3.83,-3.96 4.594,-3.96c0.212,0 0.43,0.246 0.655,0.737l0,1.985c0,1.392 0.222,4.778 0.665,10.16l-0.44,0.246c-0.887,-0.137 -1.398,-3.687 -1.535,-10.652l-4.164,3.469c-1.657,-1.589 -3.192,-2.994 -4.604,-4.215l0,2.731c0,0.444 0.146,2.671 0.44,6.682l0,0.255c0,0.328 -0.147,0.492 -0.44,0.492l-0.215,0c-0.321,0 -0.686,-1.651 -1.095,-4.953l0,-3.714l0,-1.985l0,-1.739c0.048,-0.327 0.195,-0.491 0.44,-0.491Z" style="fill:#fff;fill-rule:nonzero;"/><path d="M243.022,18.447l0.215,0c3.683,6.412 5.985,10.941 6.906,13.588l-0.798,0.337l-2.64,-4.318l-4.553,0.266l-1.36,4.328l-0.983,-0.071c1.46,-9.42 2.531,-14.13 3.213,-14.13Zm0.215,2.732l-0.778,5.832l3.633,-0.225l-2.855,-5.607Z" style="fill:#fff;fill-rule:nonzero;"/><path d="M251.126,18.539c0.45,0 1.057,2.241 1.821,6.722l0.225,0c3.206,-4.161 4.955,-6.241 5.249,-6.241l0.225,0c0.307,0.048 0.46,0.208 0.46,0.481l0,0.481l-4.788,6.476c2.871,1.433 5.378,3.193 7.52,5.28l0,0.245c0,0.362 -0.379,0.601 -1.136,0.717c-1.48,-1.399 -3.686,-2.838 -6.62,-4.318l-0.91,-0.727l-0.225,0.481l0.685,3.602l-0.46,0.245l-0.225,0c-0.791,0 -1.37,-1.867 -1.735,-5.601c-0.364,-3.735 -0.547,-6.11 -0.547,-7.127l0,-0.235c0.048,-0.321 0.201,-0.481 0.461,-0.481Z" style="fill:#fff;fill-rule:nonzero;"/><path d="M262.79,19.475c0.122,-0.501 0.9,-0.794 2.332,-0.88c1.433,-0.085 3.135,-0.09 5.106,-0.015c1.971,0.075 2.759,0.411 2.364,1.008c-0.396,0.597 -3.002,0.892 -7.817,0.885l0.133,3.888c2.421,-0.109 3.639,0.14 3.652,0.747c0.014,0.607 -0.622,0.91 -1.908,0.91c-1.286,0 -1.857,0.314 -1.714,0.942c-0.136,2.789 0.171,4.147 0.921,4.072l7.285,-0.133l0.215,0.481l0,0.245c0,0.553 -0.808,0.879 -2.425,0.977c-1.617,0.099 -3.257,0.14 -4.921,0.123c-1.665,-0.017 -2.536,-0.247 -2.615,-0.69c-0.078,-0.444 -0.23,-2.523 -0.455,-6.237c-0.225,-3.714 -0.276,-5.821 -0.153,-6.323Z" style="fill:#fff;fill-rule:nonzero;"/><path d="M276.848,18.631c5.9,-0.075 8.881,0.283 8.942,1.074l0,0.307c0,0.43 -0.184,0.645 -0.552,0.645l-4.553,-0.184c0.088,1.869 0.487,5.839 1.197,11.909l-0.788,0.318l-0.276,0c-0.676,0 -1.385,-4.1 -2.128,-12.299c-3.111,0.239 -4.704,0.007 -4.779,-0.696c0,-0.538 0.979,-0.897 2.937,-1.074Z" style="fill:#fff;fill-rule:nonzero;"/></g></svg>