<?xml version="1.0" encoding="UTF-8" standalone="no"?><!DOCTYPE svg PUBLIC "-//W3C//DTD SVG 1.1//EN" "http://www.w3.org/Graphics/SVG/1.1/DTD/svg11.dtd"><svg width="100%" height="100%" viewBox="0 0 900 357" version="1.1" xmlns="http://www.w3.org/2000/svg" xmlns:xlink="http://www.w3.org/1999/xlink" xml:space="preserve" xmlns:serif="http://www.serif.com/" style="fill-rule:evenodd;clip-rule:evenodd;stroke-linecap:round;stroke-linejoin:round;stroke-miterlimit:1.5;"><g><path d="M16.625,319.318c0,0 145.927,-145.705 350.771,0.068" style="fill:none;stroke:#1f1f1f;stroke-width:3.54px;"/><path d="M868,327.919c0,0 -175.029,-205.48 -526,-25" style="fill:none;stroke:#1f1f1f;stroke-width:3.41px;"/></g><path d="M424.952,155.019c0,0 2.059,6.871 -0.47,13.036c-2.637,6.427 -8.742,11.988 -17.977,7.591c-3.706,-1.764 -7.916,-5.133 -12.608,-10.692c-27.599,-32.704 33.714,-113.955 76.604,-81.562c42.891,32.393 94.752,185.141 96.019,218.306c0,0 -17.332,33.073 -37.204,16.937c-19.872,-16.137 -63.47,-184.754 -63.47,-184.754c0,0 -0.914,-7.117 -7.2,-11.724c-7.011,-5.138 -17.004,-5.96 -24.334,0.674c-5.435,4.919 -9.482,12.753 -9.36,32.188Z" style="fill:#fff;stroke:#000;stroke-width:5px;"/><g><path d="M435.882,119.972c0,0 -10.842,-24.986 -28.266,-22.347" style="fill:none;stroke:#000;stroke-width:5px;"/><path d="M467.792,136.804c0,0 23.703,-19.727 18.01,-37.687" style="fill:none;stroke:#000;stroke-width:5px;"/><path d="M477.902,170.488c0,0 27.407,-26.663 23.421,-47.819" style="fill:none;stroke:#000;stroke-width:5px;"/><path d="M487.492,207.133c0,0 33.244,-26.94 30.579,-50.57" style="fill:none;stroke:#000;stroke-width:5px;"/><path d="M497.972,236.189c0,0 34.24,-30.898 31.574,-54.528" style="fill:none;stroke:#000;stroke-width:5px;"/><path d="M506.702,266.184c0,0 36.701,-33.699 34.035,-57.328" style="fill:none;stroke:#000;stroke-width:5px;"/><path d="M518.732,300.51c0,0 36.701,-33.699 34.035,-57.328" style="fill:none;stroke:#000;stroke-width:5px;"/><path d="M455.282,117.385c0,0 4.054,-30.413 -12.3,-39.661" style="fill:none;stroke:#000;stroke-width:5px;"/><path d="M425.032,135.155c0,0 -20.936,-14.582 -37.041,-0.195" style="fill:none;stroke:#000;stroke-width:5px;"/><path d="M423.542,153.789c0,0 -24.248,-3.635 -29.824,8.534" style="fill:none;stroke:#000;stroke-width:5px;"/></g><g><path d="M638.112,319.925c0,0 -64.391,-66.381 22.855,-107.527c87.246,-41.147 135.25,84.881 67.92,107.397c-67.331,22.516 -90.775,0.13 -90.775,0.13Z" style="fill:#fff;stroke:#000;stroke-width:5px;"/><path d="M637.452,235.585c0,0 -51.981,-53.587 18.45,-86.804c70.432,-33.216 109.185,68.523 54.83,86.7c-54.354,18.176 -73.28,0.104 -73.28,0.104Z" style="fill:#fff;stroke:#000;stroke-width:5px;"/><path d="M643.902,156.031c0,0 -43.29,-47.1 15.233,-76.167c58.524,-29.068 90.875,60.281 45.701,76.167c-45.174,15.886 -60.934,0 -60.934,0Z" style="fill:#fff;stroke:#000;stroke-width:5px;"/><path d="M679.002,27.164l-26.851,49.758c0,0 23.374,17.062 55.942,16.955l4.035,-55.92l-33.126,-10.793Z" style="fill:#fff;stroke:#000;stroke-width:5px;"/><path d="M650.112,114.981l-53.533,30.104l64.63,-15.583c0,0 1.576,-17.186 -11.097,-14.521Z" style="fill:#fff;stroke:#000;stroke-width:4px;"/><path d="M680.842,116.579c0,0 -3.603,3.068 2.32,4.452c5.923,1.384 7.221,-8.886 -2.32,-4.452Z" style="fill:#fff;stroke:#000;stroke-width:4px;"/><path d="M645.182,142.287c0,0 9.495,14.48 27.309,5.026" style="fill:#fff;stroke:#000;stroke-width:4px;"/><path d="M649.922,101.595c0,0 -3.602,3.068 2.321,4.451c5.923,1.384 7.221,-8.885 -2.321,-4.451Z" style="fill:#fff;stroke:#000;stroke-width:4px;"/><path d="M716.392,195.532l34.346,-47.437l-2.102,-16.838l2.102,16.838l8.662,-14.659l-8.662,14.659l19.631,-4.861" style="fill:none;stroke:#000;stroke-width:5px;"/><path d="M635.582,192.268l-56.563,-15.186l-14.984,7.965l14.984,-7.965l-16.783,-2.868l16.783,2.868l-11.538,-16.609" style="fill:none;stroke:#000;stroke-width:5px;"/></g><g><g><path d="M295.074,211.446c0,0 -3.82,84.86 -2.622,91.446c1.198,6.586 -113.035,1.628 -113.035,1.628c0,0 4.094,-88.282 1.119,-92.214c-2.976,-3.931 114.538,-0.86 114.538,-0.86Z" style="fill:#fff;stroke:#000;stroke-width:5px;"/><path d="M246.704,210.513c0,0 -2.63,84.037 -0.406,95.788l-23.431,-0.284c0,0 6.633,-82.032 1.161,-95.778" style="fill:none;stroke:#000;stroke-width:5px;"/></g><g><path d="M79.924,65.142c0,0 18.316,-9.088 18.717,-11.212c0.401,-2.124 77.477,107.113 77.477,107.113c0,0 -19.138,9.339 -17.834,12.754c1.303,3.415 -78.36,-108.655 -78.36,-108.655Z" style="fill:none;stroke:#000;stroke-width:5px;"/><path d="M112.775,111.221c0,0 17.353,-10.092 18.01,-13.965l15.945,22.296c0,0 -19.715,5.99 -18.524,13.247" style="fill:none;stroke:#000;stroke-width:5px;"/><path d="M120.234,121.65c0,0 -73.044,4.559 -40.74,-10.544c32.305,-15.105 12.953,0.777 40.74,10.544Z" style="fill:none;stroke:#000;stroke-width:5px;"/><path d="M118.736,122.721c0,0 -35.174,64.18 -7.771,41.359c27.402,-22.822 4.802,-12.055 7.771,-41.359Z" style="fill:none;stroke:#000;stroke-width:5px;"/></g></g></svg>