<?xml version="1.0" encoding="UTF-8" standalone="no"?><!DOCTYPE svg PUBLIC "-//W3C//DTD SVG 1.1//EN" "http://www.w3.org/Graphics/SVG/1.1/DTD/svg11.dtd"><svg width="100%" height="100%" viewBox="0 0 1777 357" version="1.1" xmlns="http://www.w3.org/2000/svg" xmlns:xlink="http://www.w3.org/1999/xlink" xml:space="preserve" xmlns:serif="http://www.serif.com/" style="fill-rule:evenodd;clip-rule:evenodd;stroke-linecap:round;stroke-linejoin:round;stroke-miterlimit:1.5;"><g><path d="M2,335.484c0,0 194.662,-205.48 585,-25" style="fill:none;stroke:#1f1f1f;stroke-width:4px;"/><path d="M1775,303.255c0,0 -259.882,-205.48 -781,-25" style="fill:none;stroke:#1f1f1f;stroke-width:4px;"/><path d="M539,354.338c0,0 68.981,-96.373 207.24,-60.428c29.444,7.655 62.03,21.311 97.76,43.176" style="fill:none;stroke:#1f1f1f;stroke-width:4px;"/><path d="M1057,335.484c0,0 -82.523,-141.79 -248,-17.251" style="fill:none;stroke:#1f1f1f;stroke-width:4px;"/></g><g><path d="M336.835,262.803c0,0 74.675,-14.805 58.237,-109.599c-16.438,-94.794 6.407,125.89 115.121,63.964c0,0 -60.409,100.509 -173.358,45.635Z" style="fill:#fff;stroke:#1f1f1f;stroke-width:5px;"/><path d="M341.978,205.937c0,0 56.633,-9.405 46.47,-81.241c-10.164,-71.835 1.872,95.038 85.268,50.916c0,0 -47.893,74.338 -131.738,30.325Z" style="fill:#fff;stroke:#1f1f1f;stroke-width:5px;"/><path d="M327.807,148.695c0,0 56.633,-9.404 46.469,-81.24c-10.163,-71.835 1.873,95.038 85.269,50.915c0,0 -47.893,74.339 -131.738,30.325Z" style="fill:#fff;stroke:#1f1f1f;stroke-width:5px;"/></g><g><path d="M483.613,298.184c0,0 59.407,11.334 75.529,-63.378c16.121,-74.711 -32.77,94.627 65.74,81.391c0,0 -74.422,56.037 -141.269,-18.013Z" style="fill:#fff;stroke:#000;stroke-width:5px;"/><path d="M504.335,257.833c0,0 44.511,9.938 58.417,-45.995c13.906,-55.934 -26.922,70.553 47.639,62.891c0,0 -57.41,40.489 -106.056,-16.896Z" style="fill:#fff;stroke:#000;stroke-width:5px;"/><path d="M510.943,211.455c0,0 44.511,9.938 58.417,-45.996c13.906,-55.934 -26.922,70.553 47.639,62.891c0,0 -57.41,40.489 -106.056,-16.895Z" style="fill:#fff;stroke:#000;stroke-width:5px;"/></g><path d="M1141.05,130.355c0,0 2.059,6.871 -0.47,13.036c-2.637,6.427 -8.742,11.988 -17.977,7.591c-3.706,-1.764 -7.916,-5.133 -12.608,-10.692c-27.599,-32.704 33.714,-113.955 76.604,-81.562c42.891,32.393 94.752,185.141 96.019,218.306c0,0 -17.332,33.073 -37.204,16.937c-19.872,-16.137 -63.47,-184.754 -63.47,-184.754c0,0 -0.914,-7.117 -7.2,-11.724c-7.011,-5.138 -17.004,-5.96 -24.334,0.674c-5.435,4.919 -9.482,12.753 -9.36,32.188Z" style="fill:#fff;stroke:#000;stroke-width:5px;"/><g><path d="M1151.98,95.308c0,0 -10.842,-24.986 -28.266,-22.347" style="fill:none;stroke:#000;stroke-width:5px;"/><path d="M1183.89,112.14c0,0 23.703,-19.727 18.01,-37.687" style="fill:none;stroke:#000;stroke-width:5px;"/><path d="M1194,145.824c0,0 27.407,-26.663 23.421,-47.819" style="fill:none;stroke:#000;stroke-width:5px;"/><path d="M1203.59,182.469c0,0 33.244,-26.94 30.579,-50.57" style="fill:none;stroke:#000;stroke-width:5px;"/><path d="M1214.07,211.525c0,0 34.24,-30.898 31.574,-54.528" style="fill:none;stroke:#000;stroke-width:5px;"/><path d="M1222.8,241.52c0,0 36.701,-33.699 34.035,-57.328" style="fill:none;stroke:#000;stroke-width:5px;"/><path d="M1234.83,275.846c0,0 36.701,-33.699 34.035,-57.328" style="fill:none;stroke:#000;stroke-width:5px;"/><path d="M1171.38,92.721c0,0 4.054,-30.413 -12.3,-39.661" style="fill:none;stroke:#000;stroke-width:5px;"/><path d="M1141.13,110.491c0,0 -20.936,-14.582 -37.041,-0.195" style="fill:none;stroke:#000;stroke-width:5px;"/><path d="M1139.64,129.125c0,0 -24.248,-3.635 -29.824,8.534" style="fill:none;stroke:#000;stroke-width:5px;"/></g><g><path d="M1354.21,295.261c0,0 -64.391,-66.381 22.855,-107.527c87.246,-41.147 135.25,84.881 67.92,107.397c-67.331,22.516 -90.775,0.13 -90.775,0.13Z" style="fill:#fff;stroke:#000;stroke-width:5px;"/><path d="M1353.55,210.921c0,0 -51.981,-53.587 18.45,-86.804c70.432,-33.216 109.185,68.523 54.83,86.7c-54.354,18.176 -73.28,0.104 -73.28,0.104Z" style="fill:#fff;stroke:#000;stroke-width:5px;"/><path d="M1360,131.367c0,0 -43.29,-47.1 15.233,-76.167c58.524,-29.068 90.875,60.281 45.701,76.167c-45.174,15.886 -60.934,0 -60.934,0Z" style="fill:#fff;stroke:#000;stroke-width:5px;"/><path d="M1395.1,2.5l-26.851,49.758c0,0 23.374,17.062 55.942,16.955l4.035,-55.92l-33.126,-10.793Z" style="fill:#fff;stroke:#000;stroke-width:5px;"/><path d="M1366.21,90.317l-53.533,30.104l64.63,-15.583c0,0 1.576,-17.186 -11.097,-14.521Z" style="fill:#fff;stroke:#000;stroke-width:4px;"/><path d="M1396.94,91.915c0,0 -3.603,3.068 2.32,4.452c5.923,1.384 7.221,-8.886 -2.32,-4.452Z" style="fill:#fff;stroke:#000;stroke-width:4px;"/><path d="M1361.28,117.623c0,0 9.495,14.48 27.309,5.026" style="fill:#fff;stroke:#000;stroke-width:4px;"/><path d="M1366.02,76.931c0,0 -3.602,3.068 2.321,4.451c5.923,1.384 7.221,-8.885 -2.321,-4.451Z" style="fill:#fff;stroke:#000;stroke-width:4px;"/><path d="M1432.49,170.868l34.346,-47.437l-2.102,-16.838l2.102,16.838l8.662,-14.659l-8.662,14.659l19.631,-4.861" style="fill:none;stroke:#000;stroke-width:5px;"/><path d="M1351.68,167.604l-56.563,-15.186l-14.984,7.965l14.984,-7.965l-16.783,-2.868l16.783,2.868l-11.538,-16.609" style="fill:none;stroke:#000;stroke-width:5px;"/></g><g><g><path d="M970.941,203.865c0,0 2.636,84.905 4.33,91.381c1.695,6.476 -112.585,10.207 -112.585,10.207c0,0 -2.622,-88.338 -5.887,-92.033c-3.266,-3.694 114.142,-9.555 114.142,-9.555Z" style="fill:#fff;stroke:#000;stroke-width:5px;"/><path d="M922.64,206.608c0,0 3.759,83.994 6.869,95.542l-23.385,1.496c0,0 0.385,-82.299 -6.115,-95.59" style="fill:none;stroke:#000;stroke-width:5px;"/></g><g><path d="M684.267,101.58c0,0 17.573,-10.452 17.812,-12.601c0.239,-2.148 85.387,100.921 85.387,100.921c0,0 -18.373,10.765 -16.814,14.071c1.559,3.306 -86.385,-102.391 -86.385,-102.391Z" style="fill:none;stroke:#000;stroke-width:5px;"/><path d="M720.523,145.032c0,0 16.536,-11.381 16.897,-15.293l17.592,21.021c0,0 -19.203,7.47 -17.464,14.615" style="fill:none;stroke:#000;stroke-width:5px;"/><path d="M728.752,154.864c0,0 -72.487,10.093 -41.423,-7.42c31.065,-17.514 12.975,-0.209 41.423,7.42Z" style="fill:none;stroke:#000;stroke-width:5px;"/><path d="M727.34,156.046c0,0 -30.199,66.666 -4.608,41.829c25.59,-24.837 3.873,-12.384 4.608,-41.829Z" style="fill:none;stroke:#000;stroke-width:5px;"/></g></g></svg>