<?xml version="1.0" encoding="UTF-8" standalone="no"?><!DOCTYPE svg PUBLIC "-//W3C//DTD SVG 1.1//EN" "http://www.w3.org/Graphics/SVG/1.1/DTD/svg11.dtd"><svg width="100%" height="100%" viewBox="0 0 1746 959" version="1.1" xmlns="http://www.w3.org/2000/svg" xmlns:xlink="http://www.w3.org/1999/xlink" xml:space="preserve" xmlns:serif="http://www.serif.com/" style="fill-rule:evenodd;clip-rule:evenodd;stroke-linecap:round;stroke-linejoin:round;stroke-miterlimit:1.5;"><g><g><path d="M1374.28,208.374c0,0 51.531,95.18 53.817,103.397c2.286,8.217 130.513,-60.941 130.513,-60.941c0,0 -53.749,-98.951 -52.522,-105.113c1.227,-6.161 -131.808,62.657 -131.808,62.657Z" style="fill:none;stroke:#000;stroke-width:5px;"/><path d="M1429.23,180.428c0,0 49.71,94.896 53.689,109.605l26.708,-13.345c0,0 -53.187,-90.373 -54.55,-109.175" style="fill:none;stroke:#000;stroke-width:5px;"/></g><g><path d="M1353.16,193.74c0,0 14.619,21.563 13.733,24.171c-0.887,2.608 153.094,-70.24 153.094,-70.24c0,0 -15.373,-22.356 -11.786,-25.327c3.587,-2.971 -155.041,71.396 -155.041,71.396Z" style="fill:#fff;stroke:#000;stroke-width:5px;"/><path d="M1418.49,163.223c0,0 12.92,22.074 11.22,26.782l31.666,-14.735c0,0 -18.114,-19.004 -12.242,-26.307" style="fill:none;stroke:#000;stroke-width:5px;"/><path d="M1433.3,156.331c0,0 -78.164,-50.853 -51.8,-13.845c26.364,37.007 14.854,7.259 51.8,13.845Z" style="fill:none;stroke:#000;stroke-width:5px;"/><path d="M1432.31,154.204c0,0 1.222,-93.244 17.31,-50.748c16.087,42.495 -2.231,16.381 -17.31,50.748Z" style="fill:none;stroke:#000;stroke-width:5px;"/></g></g><g><g><path d="M1018.39,203.259c0,0 -27.11,78.644 -30.574,84.209c-3.465,5.565 102.335,42.225 102.335,42.225c0,0 28.093,-81.859 32.219,-84.367c4.126,-2.507 -103.98,-42.067 -103.98,-42.067Z" style="fill:none;stroke:#1f1f1f;stroke-width:5px;"/><path d="M1062.77,219.845c0,0 -27.895,77.466 -34.156,87.363l21.437,8.187c0,0 23.527,-77.084 33.465,-87.628" style="fill:none;stroke:#1f1f1f;stroke-width:5px;"/></g><g><path d="M1015.7,183.696c0,0 -4.61,19.484 -6.548,20.338c-1.938,0.853 119.336,50.178 119.336,50.178c0,0 4.669,-20.324 8.215,-19.837c3.547,0.487 -121.003,-50.679 -121.003,-50.679Z" style="fill:#fff;stroke:#1f1f1f;stroke-width:5px;"/><path d="M1066.94,204.826c0,0 -5.784,18.788 -9.333,20.272l24.801,10.271c0,0 1.346,-20.133 8.532,-20.603" style="fill:none;stroke:#1f1f1f;stroke-width:5px;"/><path d="M1078.54,209.63c0,0 -11.83,-70.687 -19.082,-36.525c-7.252,34.161 3.61,12.183 19.082,36.525Z" style="fill:none;stroke:#1f1f1f;stroke-width:5px;"/><path d="M1079.23,207.964c0,0 53.43,-47.768 37.73,-16.574c-15.7,31.195 -10.435,7.251 -37.73,16.574Z" style="fill:none;stroke:#1f1f1f;stroke-width:5px;"/></g></g><g><path d="M1587.07,476.706c0,0 68.384,-33.456 28.19,-120.867c-40.193,-87.411 38.47,120.039 127.673,32.309c0,0 -32.619,112.638 -155.863,88.558Z" style="fill:none;stroke:#1f1f1f;stroke-width:5px;"/><path d="M1577.46,420.422c0,0 52.329,-23.611 24.087,-90.439c-28.242,-66.829 26.177,91.38 95.472,27.35c0,0 -27.231,84.133 -119.559,63.089Z" style="fill:#fff;stroke:#1f1f1f;stroke-width:5px;"/><path d="M1549.09,368.727c0,0 52.329,-23.61 24.087,-90.439c-28.242,-66.828 26.177,91.381 95.472,27.351c0,0 -27.232,84.133 -119.559,63.088Z" style="fill:#fff;stroke:#1f1f1f;stroke-width:5px;"/></g><g><path d="M1587.07,476.706c0,0 68.384,-33.456 28.19,-120.867c-40.193,-87.411 38.47,120.039 127.673,32.309c0,0 -32.619,112.638 -155.863,88.558Z" style="fill:none;stroke:#1f1f1f;stroke-width:5px;"/><path d="M1577.46,420.422c0,0 52.329,-23.611 24.087,-90.439c-28.242,-66.829 26.177,91.38 95.472,27.35c0,0 -27.231,84.133 -119.559,63.089Z" style="fill:#fff;stroke:#1f1f1f;stroke-width:5px;"/><path d="M1549.09,368.727c0,0 52.329,-23.61 24.087,-90.439c-28.242,-66.828 26.177,91.381 95.472,27.351c0,0 -27.232,84.133 -119.559,63.088Z" style="fill:#fff;stroke:#1f1f1f;stroke-width:5px;"/></g><g><path d="M1415.94,806.337c0,0 78.149,14.172 98.425,-84.132c20.275,-98.304 -41.899,124.656 87.305,106.095c0,0 -97.059,74.479 -185.73,-21.963Z" style="fill:none;stroke:#000;stroke-width:5px;"/><path d="M1442.67,753.101c0,0 58.571,12.517 76.163,-61.102c17.591,-73.618 -34.509,92.973 63.312,82.018c0,0 -74.905,53.858 -139.475,-20.916Z" style="fill:#fff;stroke:#000;stroke-width:5px;"/><path d="M1450.79,692.118c0,0 58.571,12.517 76.162,-61.102c17.591,-73.619 -34.508,92.973 63.313,82.017c0,0 -74.906,53.858 -139.475,-20.915Z" style="fill:#fff;stroke:#000;stroke-width:5px;"/></g><g><path d="M845.625,757.022c0,0 58.159,16.591 80.884,-56.383c22.726,-72.975 -41.084,91.323 58.213,86.933c0,0 -79.126,49.171 -139.097,-30.55Z" style="fill:none;stroke:#000;stroke-width:5px;"/><path d="M869.865,718.682c0,0 43.447,13.871 62.29,-40.598c18.843,-54.47 -33.112,67.868 41.836,66.891c0,0 -60.795,35.204 -104.126,-26.293Z" style="fill:#fff;stroke:#000;stroke-width:5px;"/><path d="M880.587,673.078c0,0 43.446,13.871 62.289,-40.598c18.843,-54.47 -33.111,67.869 41.836,66.892c0,0 -60.795,35.203 -104.125,-26.294Z" style="fill:#fff;stroke:#000;stroke-width:5px;"/></g><g><path d="M337.369,674.163l15.471,28.857l-16.22,24.274l29.765,-9.812l13.267,28.716l4.401,-31.942l29.482,-4.35l-28.936,-13.924l5.471,-33.382l-21.488,22.8l-31.213,-11.237Z" style="fill:#fff;stroke:#1f1f1f;stroke-width:4px;"/><path d="M305.217,666.209l19.702,6.284" style="fill:none;stroke:#1f1f1f;stroke-width:4px;"/><path d="M360.025,779.449l-2.553,-20.521" style="fill:none;stroke:#1f1f1f;stroke-width:4px;"/><path d="M437.101,658.248l-14.062,15.163" style="fill:none;stroke:#1f1f1f;stroke-width:4px;"/><path d="M334.31,640.121l5.448,19.949" style="fill:none;stroke:#1f1f1f;stroke-width:4px;"/><path d="M324.145,763.97l15.829,-13.307" style="fill:none;stroke:#1f1f1f;stroke-width:4px;"/><path d="M448.35,695.671l-20.373,-3.548" style="fill:none;stroke:#1f1f1f;stroke-width:4px;"/><path d="M314.033,643.534l9.284,11.718" style="fill:none;stroke:#1f1f1f;stroke-width:4px;"/><path d="M335.743,780.95l6.748,-13.341" style="fill:none;stroke:#1f1f1f;stroke-width:4px;"/><path d="M453.879,675.866l-14.553,3.423" style="fill:none;stroke:#1f1f1f;stroke-width:4px;"/></g><g><path d="M809.59,232.821l13.436,25.949l-14.785,21.454l26.688,-8.376l11.471,25.796l4.336,-28.448l26.365,-3.505l-25.644,-12.795l5.309,-29.719l-19.467,20.07l-27.709,-10.426Z" style="fill:#fff;stroke:#1f1f1f;stroke-width:4px;"/><path d="M781,225.312l17.501,5.859" style="fill:none;stroke:#1f1f1f;stroke-width:4px;"/><path d="M828.461,327.066l-2.016,-18.346" style="fill:none;stroke:#1f1f1f;stroke-width:4px;"/><path d="M898.791,219.895l-12.742,13.351" style="fill:none;stroke:#1f1f1f;stroke-width:4px;"/><path d="M807.296,202.403l4.605,17.872" style="fill:none;stroke:#1f1f1f;stroke-width:4px;"/><path d="M796.64,312.794l14.296,-11.673" style="fill:none;stroke:#1f1f1f;stroke-width:4px;"/><path d="M908.351,253.434l-18.135,-3.427" style="fill:none;stroke:#1f1f1f;stroke-width:4px;"/><path d="M789.157,205.19l8.135,10.575" style="fill:none;stroke:#1f1f1f;stroke-width:4px;"/><path d="M806.772,328.094l6.193,-11.818" style="fill:none;stroke:#1f1f1f;stroke-width:4px;"/><path d="M913.538,235.831l-13.03,2.868" style="fill:none;stroke:#1f1f1f;stroke-width:4px;"/></g><g><path d="M1496.74,456.093c-17.294,8.188 -31.478,72.783 27.652,64.368c59.13,-8.415 19.982,-86.922 -27.652,-64.368Z" style="fill:#fff;stroke:#1f1f1f;stroke-width:5px;"/><path d="M1485.41,470.858c0,0 44.54,11.15 60.632,-0.814c0,0 -22.43,41.149 -61.867,24.602c0,0 31.224,23.554 63.378,14.201" style="fill:#fff;stroke:#1f1f1f;stroke-width:5px;"/><path d="M1489.23,441.425l14.843,-5.007l6.834,15.232l-14.375,3.616l-7.302,-13.841Z" style="fill:#fff;stroke:#1f1f1f;stroke-width:5px;"/><path d="M1497.92,437.967c0,0 -54.323,-46.92 -26.716,-37.857c27.607,9.062 22.423,27.591 26.716,37.857Z" style="fill:#fff;stroke:#1f1f1f;stroke-width:5px;"/></g><g><path d="M1496.74,456.093c-17.294,8.188 -31.478,72.783 27.652,64.368c59.13,-8.415 19.982,-86.922 -27.652,-64.368Z" style="fill:#fff;stroke:#1f1f1f;stroke-width:5px;"/><path d="M1485.41,470.858c0,0 44.54,11.15 60.632,-0.814c0,0 -22.43,41.149 -61.867,24.602c0,0 31.224,23.554 63.378,14.201" style="fill:#fff;stroke:#1f1f1f;stroke-width:5px;"/><path d="M1489.23,441.425l14.843,-5.007l6.834,15.232l-14.375,3.616l-7.302,-13.841Z" style="fill:#fff;stroke:#1f1f1f;stroke-width:5px;"/><path d="M1497.92,437.967c0,0 -54.323,-46.92 -26.716,-37.857c27.607,9.062 22.423,27.591 26.716,37.857Z" style="fill:#fff;stroke:#1f1f1f;stroke-width:5px;"/></g><g><path d="M1650.25,589.12c-21.984,-5.682 -84.005,42.407 -23.721,79.68c60.284,37.272 84.274,-64.03 23.721,-79.68Z" style="fill:#fff;stroke:#1f1f1f;stroke-width:5px;"/><path d="M1602.1,637.703c0,0 41.901,-24.673 49.271,-47.299c0,0 17.742,60.482 -31.795,71.523c0,0 39.534,7.237 64.247,-23.882" style="fill:#fff;stroke:#1f1f1f;stroke-width:5px;"/><path d="M1654.55,570.044l17.332,6.718l-5.349,19.076l-15.848,-7.63l3.865,-18.164Z" style="fill:#fff;stroke:#1f1f1f;stroke-width:5px;"/><path d="M1665.09,573.492c0,0 -13.846,-84.048 4.426,-54.807c18.271,29.242 -0.535,42.189 -4.426,54.807Z" style="fill:#fff;stroke:#1f1f1f;stroke-width:5px;"/></g><g><path d="M1135.48,391.062c25.192,11.494 47.036,104.67 -38.695,93.704c-85.731,-10.966 -30.691,-125.363 38.695,-93.704Z" style="fill:#fff;stroke:#000;stroke-width:5px;"/><path d="M1143.8,474.055c0,0 -20.757,-55.545 -10.37,-82.64c0,0 -63.242,43.684 -24.784,92.175c0,0 -43.012,-23.495 -42.537,-71.951" style="fill:#fff;stroke:#000;stroke-width:5px;"/><path d="M1146.04,369.684l-21.578,-6.941l-9.577,22.18l20.872,4.938l10.283,-20.177Z" style="fill:#fff;stroke:#000;stroke-width:5px;"/><path d="M1133.41,364.859c0,0 77.643,-69.003 37.882,-55.325c-39.761,13.678 -31.881,40.382 -37.882,55.325Z" style="fill:#fff;stroke:#000;stroke-width:5px;"/></g><g><path d="M1135.48,391.062c25.192,11.494 47.036,104.67 -38.695,93.704c-85.731,-10.966 -30.691,-125.363 38.695,-93.704Z" style="fill:#fff;stroke:#000;stroke-width:5px;"/><path d="M1143.8,474.055c0,0 -20.757,-55.545 -10.37,-82.64c0,0 -63.242,43.684 -24.784,92.175c0,0 -43.012,-23.495 -42.537,-71.951" style="fill:#fff;stroke:#000;stroke-width:5px;"/><path d="M1146.04,369.684l-21.578,-6.941l-9.577,22.18l20.872,4.938l10.283,-20.177Z" style="fill:#fff;stroke:#000;stroke-width:5px;"/><path d="M1133.41,364.859c0,0 77.643,-69.003 37.882,-55.325c-39.761,13.678 -31.881,40.382 -37.882,55.325Z" style="fill:#fff;stroke:#000;stroke-width:5px;"/></g><g><path d="M902.955,406.656c0,0 -10.841,-24.986 -28.266,-22.347" style="fill:none;stroke:#000;stroke-width:5px;"/><path d="M934.864,423.488c0,0 23.704,-19.726 18.011,-37.687" style="fill:none;stroke:#000;stroke-width:5px;"/><path d="M944.969,457.173c0,0 27.408,-26.663 23.422,-47.82" style="fill:none;stroke:#000;stroke-width:5px;"/><path d="M954.561,493.818c0,0 33.245,-26.941 30.579,-50.57" style="fill:none;stroke:#000;stroke-width:5px;"/><path d="M965.045,522.873c0,0 34.24,-30.898 31.575,-54.528" style="fill:none;stroke:#000;stroke-width:5px;"/><path d="M973.775,552.868c0,0 36.7,-33.698 34.035,-57.328" style="fill:none;stroke:#000;stroke-width:5px;"/><path d="M985.797,587.194c0,0 36.701,-33.698 34.035,-57.328" style="fill:none;stroke:#000;stroke-width:5px;"/><path d="M922.347,404.07c0,0 4.053,-30.414 -12.301,-39.661" style="fill:none;stroke:#000;stroke-width:5px;"/><path d="M892.099,421.84c0,0 -20.935,-14.582 -37.04,-0.196" style="fill:none;stroke:#000;stroke-width:5px;"/><path d="M892.017,441.703c0,0 2.06,6.871 -0.469,13.036c-2.637,6.427 -8.742,11.989 -17.977,7.592c-3.706,-1.765 -7.916,-5.133 -12.608,-10.693c-27.6,-32.703 33.713,-113.954 76.604,-81.561c42.891,32.393 94.751,185.14 96.019,218.305c0,0 -17.333,33.074 -37.205,16.937c-19.871,-16.137 -63.47,-184.754 -63.47,-184.754c0,0 -0.914,-7.117 -7.2,-11.724c-7.01,-5.138 -17.004,-5.96 -24.334,0.674c-5.435,4.919 -9.482,12.753 -9.36,32.188Z" style="fill:none;stroke:#000;stroke-width:5px;"/><path d="M890.617,440.473c0,0 -24.249,-3.635 -29.824,8.535" style="fill:none;stroke:#000;stroke-width:5px;"/></g><g><path d="M1639.26,36.895c0,0 -11.105,-23.546 1.781,-34.395" style="fill:none;stroke:#000;stroke-width:5px;"/><path d="M1631.22,70.428c0,0 -29.118,4.579 -38.425,-10.839" style="fill:none;stroke:#000;stroke-width:5px;"/><path d="M1649.04,98.932c0,0 -36.436,2.864 -49.115,-13.344" style="fill:none;stroke:#000;stroke-width:5px;"/><path d="M1669.3,128.936c0,0 -40.317,6.881 -55.605,-9.939" style="fill:none;stroke:#000;stroke-width:5px;"/><path d="M1683.55,154.793c0,0 -43.788,5.099 -59.076,-11.721" style="fill:none;stroke:#000;stroke-width:5px;"/><path d="M1699.59,179.983c0,0 -47.351,5.099 -62.639,-11.721" style="fill:none;stroke:#000;stroke-width:5px;"/><path d="M1716.65,210.27c0,0 -47.35,5.098 -62.638,-11.721" style="fill:none;stroke:#000;stroke-width:5px;"/><path d="M1625.17,49.189c0,0 -24.398,-16.274 -20.723,-33.851" style="fill:none;stroke:#000;stroke-width:5px;"/><path d="M1657.01,38.677c0,0 2.734,-24.233 23.225,-26.724" style="fill:none;stroke:#000;stroke-width:5px;"/><path d="M1671.33,51.148c0,0 3.635,5.813 9.657,7.886c6.279,2.16 14.124,1.284 16.792,-8.121c1.07,-3.775 1.307,-8.923 0.274,-15.799c-6.076,-40.45 -103.1,-47.672 -106.893,3.563c-3.793,51.234 73.186,184.83 96.204,206.66c0,0 34.684,8.416 35.631,-16.034c0.947,-24.449 -92.641,-162.121 -92.641,-162.121c0,0 -4.534,-5.146 -3.878,-12.567c0.733,-8.275 6.446,-15.97 15.834,-17.049c6.961,-0.801 15.14,1.235 29.02,13.582Z" style="fill:none;stroke:#000;stroke-width:5px;"/><path d="M1671.33,49.366c0,0 12.685,-19.706 24.942,-16.034" style="fill:none;stroke:#000;stroke-width:5px;"/></g><g><path d="M1207.01,202.403c8.746,-34.427 1.784,-52.864 -3.473,-68.353c-5.257,-15.488 17.103,-75.583 76.288,-29.184c0,0 27.52,17.897 40.93,19.247c0,0 -15.566,77.161 -113.745,78.29l113.745,-78.29" style="fill:#fff;stroke:#000;stroke-width:5px;"/><path d="M1252.55,171.224c0,0 32.303,12.209 26.644,-17.947" style="fill:none;stroke:#000;stroke-width:5px;"/><path d="M1220.45,90.924c0,0 -83.632,-36.912 -46.217,-7.108c37.414,29.804 46.217,7.108 46.217,7.108Z" style="fill:none;stroke:#000;stroke-width:5px;"/><path d="M1220.76,91.896c0,0 -15.607,-90.074 4.272,-46.566c19.879,43.508 -4.272,46.566 -4.272,46.566Z" style="fill:none;stroke:#000;stroke-width:5px;"/></g><g><path d="M1380.78,772.979c-7.912,-35.797 -0.138,-54.592 5.785,-70.401c5.922,-15.808 -15.209,-78.523 -77.758,-32.563c0,0 -28.966,17.575 -42.844,18.536c0,0 13.572,80.101 114.817,84.428l-114.817,-84.428" style="fill:#fff;stroke:#000;stroke-width:5px;"/><path d="M1334.8,739.348c0,0 -33.717,11.554 -26.907,-19.373" style="fill:none;stroke:#000;stroke-width:5px;"/><path d="M1370.5,657.544c0,0 87.464,-35.384 47.907,-5.844c-39.557,29.541 -47.907,5.844 -47.907,5.844Z" style="fill:none;stroke:#000;stroke-width:5px;"/><path d="M1370.15,658.537c0,0 19.002,-92.418 -2.906,-48.175c-21.909,44.243 2.906,48.175 2.906,48.175Z" style="fill:none;stroke:#000;stroke-width:5px;"/></g><g><path d="M1302.09,580.774c0,0 -73.871,-55.639 5.973,-109.767c79.844,-54.128 146.738,62.973 83.693,95.618c-63.045,32.645 -89.666,14.149 -89.666,14.149Z" style="fill:#fff;stroke:#000;stroke-width:5px;"/><path d="M1288.41,497.548c0,0 -59.634,-44.915 4.822,-88.611c64.456,-43.697 118.458,50.836 67.563,77.19c-50.895,26.353 -72.385,11.421 -72.385,11.421Z" style="fill:#fff;stroke:#000;stroke-width:5px;"/><path d="M1282.5,417.952c0,0 -50.046,-39.848 3.286,-77.606c53.332,-37.757 99.095,45.522 56.917,68.195c-42.179,22.673 -60.203,9.411 -60.203,9.411Z" style="fill:#fff;stroke:#000;stroke-width:5px;"/><path d="M1297.27,285.211l-18.843,53.308c0,0 25.728,13.247 57.889,8.111l-4.65,-55.872l-34.396,-5.547Z" style="fill:#fff;stroke:#000;stroke-width:5px;"/><path d="M1282.3,376.435l-48.241,38.011l61.448,-25.377c0,0 -1.097,-17.224 -13.207,-12.634Z" style="fill:#fff;stroke:#000;stroke-width:4px;"/><path d="M1312.9,373.269c0,0 -3.085,3.588 2.98,4.04c6.066,0.452 5.762,-9.895 -2.98,-4.04Z" style="fill:#fff;stroke:#000;stroke-width:4px;"/><path d="M1281.64,404.177c0,0 11.618,12.839 27.758,0.747" style="fill:#fff;stroke:#000;stroke-width:4px;"/><path d="M1280.04,363.24c0,0 -3.085,3.587 2.981,4.04c6.065,0.452 5.762,-9.895 -2.981,-4.04Z" style="fill:#fff;stroke:#000;stroke-width:4px;"/><path d="M1360.21,445.784l26.608,-52.173l-4.678,-16.312l4.678,16.312l6.293,-15.821l-6.293,15.821l18.644,-7.835" style="fill:none;stroke:#000;stroke-width:5px;"/><path d="M1279.88,455.04l-58.23,-6.267l-13.574,10.183l13.574,-10.183l-17.025,-0.242l17.025,0.242l-13.965,-14.628" style="fill:none;stroke:#000;stroke-width:5px;"/></g><g><path d="M1302.09,580.774c0,0 -73.871,-55.639 5.973,-109.767c79.844,-54.128 146.738,62.973 83.693,95.618c-63.045,32.645 -89.666,14.149 -89.666,14.149Z" style="fill:#fff;stroke:#000;stroke-width:5px;"/><path d="M1288.41,497.548c0,0 -59.634,-44.915 4.822,-88.611c64.456,-43.697 118.458,50.836 67.563,77.19c-50.895,26.353 -72.385,11.421 -72.385,11.421Z" style="fill:#fff;stroke:#000;stroke-width:5px;"/><path d="M1282.5,417.952c0,0 -50.046,-39.848 3.286,-77.606c53.332,-37.757 99.095,45.522 56.917,68.195c-42.179,22.673 -60.203,9.411 -60.203,9.411Z" style="fill:#fff;stroke:#000;stroke-width:5px;"/><path d="M1297.27,285.211l-18.843,53.308c0,0 25.728,13.247 57.889,8.111l-4.65,-55.872l-34.396,-5.547Z" style="fill:#fff;stroke:#000;stroke-width:5px;"/><path d="M1282.3,376.435l-48.241,38.011l61.448,-25.377c0,0 -1.097,-17.224 -13.207,-12.634Z" style="fill:#fff;stroke:#000;stroke-width:4px;"/><path d="M1312.9,373.269c0,0 -3.085,3.588 2.98,4.04c6.066,0.452 5.762,-9.895 -2.98,-4.04Z" style="fill:#fff;stroke:#000;stroke-width:4px;"/><path d="M1281.64,404.177c0,0 11.618,12.839 27.758,0.747" style="fill:#fff;stroke:#000;stroke-width:4px;"/><path d="M1280.04,363.24c0,0 -3.085,3.587 2.981,4.04c6.065,0.452 5.762,-9.895 -2.981,-4.04Z" style="fill:#fff;stroke:#000;stroke-width:4px;"/><path d="M1360.21,445.784l26.608,-52.173l-4.678,-16.312l4.678,16.312l6.293,-15.821l-6.293,15.821l18.644,-7.835" style="fill:none;stroke:#000;stroke-width:5px;"/><path d="M1279.88,455.04l-58.23,-6.267l-13.574,10.183l13.574,-10.183l-17.025,-0.242l17.025,0.242l-13.965,-14.628" style="fill:none;stroke:#000;stroke-width:5px;"/></g><path d="M2,937.575c0,0 147.078,-205.48 442,-25" style="fill:none;stroke:#1f1f1f;stroke-width:4px;"/><path d="M1479,905.346c0,0 -208.971,-205.48 -628,-25" style="fill:none;stroke:#1f1f1f;stroke-width:4px;"/><path d="M396,956.429c0,0 68.981,-96.373 207.24,-60.428c29.444,7.655 62.03,21.311 97.76,43.177" style="fill:none;stroke:#1f1f1f;stroke-width:4px;"/><path d="M914,937.575c0,0 -82.523,-141.79 -248,-17.251" style="fill:none;stroke:#1f1f1f;stroke-width:4px;"/><g><g><path d="M219.749,764.867c0,0 -40.353,74.749 -44.767,79.782c-4.413,5.033 96.115,59.511 96.115,59.511c0,0 41.877,-77.825 46.451,-79.668c4.573,-1.842 -97.799,-59.625 -97.799,-59.625Z" style="fill:#fff;stroke:#000;stroke-width:5px;"/><path d="M261.716,788.936c0,0 -40.95,73.431 -48.899,82.366l20.243,11.803c0,0 36.485,-73.771 48.246,-82.747" style="fill:none;stroke:#000;stroke-width:5px;"/></g><g><path d="M568.483,688.285c0,0 -19.387,-6.496 -20.075,-8.545c-0.688,-2.05 -62.097,116.703 -62.097,116.703c0,0 20.235,6.633 19.41,10.195c-0.824,3.561 62.762,-118.353 62.762,-118.353Z" style="fill:none;stroke:#000;stroke-width:5px;"/><path d="M542.243,738.426c0,0 -18.57,-7.625 -19.75,-11.372l-12.745,24.269c0,0 20.348,3.236 20.16,10.588" style="fill:none;stroke:#000;stroke-width:5px;"/><path d="M536.281,749.777c0,0 72.982,-5.474 38.914,-16.018c-34.067,-10.543 -12.724,2.541 -38.914,16.018Z" style="fill:none;stroke:#000;stroke-width:5px;"/><path d="M537.912,750.633c0,0 43.621,58.766 13.354,39.907c-30.266,-18.86 -6.405,-11.285 -13.354,-39.907Z" style="fill:none;stroke:#000;stroke-width:5px;"/></g></g><g><path d="M1062.61,851.972c0,0 -52.884,-79.322 43.252,-104.744c96.135,-25.421 121.267,111.313 48.801,121.565c-72.466,10.253 -92.053,-16.821 -92.053,-16.821Z" style="fill:#fff;stroke:#000;stroke-width:5px;"/><path d="M1077.68,766.344c0,0 -42.692,-64.035 34.916,-84.557c77.608,-20.522 97.896,89.86 39.396,98.137c-58.5,8.276 -74.312,-13.58 -74.312,-13.58Z" style="fill:#fff;stroke:#000;stroke-width:5px;"/><path d="M1099.08,686.896c0,0 -35.092,-55.836 29.668,-74.375c64.761,-18.539 80.872,78.085 32.108,85.754c-48.765,7.669 -61.776,-11.379 -61.776,-11.379Z" style="fill:#fff;stroke:#000;stroke-width:5px;"/><path d="M1132.38,563.635l-19,55.102c0,0 26.627,13.451 59.739,7.901l-5.238,-57.558l-35.501,-5.445Z" style="fill:#fff;stroke:#000;stroke-width:5px;"/><path d="M1122.94,678.609c0,0 10.86,14.166 28.457,3.095" style="fill:#fff;stroke:#000;stroke-width:4px;"/><path d="M1128.49,659.134l2.41,63.266l16.132,-66.608c0,0 -15.019,-9.536 -18.542,3.342Z" style="fill:#fff;stroke:#000;stroke-width:4px;"/><path d="M1149.85,645.377c0,0 -4.225,2.438 1.522,4.947c5.746,2.509 8.98,-7.66 -1.522,-4.947Z" style="fill:#fff;stroke:#000;stroke-width:4px;"/><path d="M1124.49,638.448c0,0 -4.226,2.437 1.521,4.946c5.746,2.509 8.98,-7.66 -1.521,-4.946Z" style="fill:#fff;stroke:#000;stroke-width:4px;"/><path d="M1160.64,742.805l49.94,33.927l17.285,-2.685l-17.285,2.685l15.372,8.473l-15.372,-8.473l5.615,20.078" style="fill:none;stroke:#000;stroke-width:5px;"/><path d="M1090.65,711.933l-52.635,-29.574l-16.996,4.141l16.996,-4.141l-16.035,-7.139l16.035,7.139l-7.296,-19.53" style="fill:none;stroke:#000;stroke-width:5px;"/></g></svg>