<?xml version="1.0" encoding="UTF-8" standalone="no"?>
<!DOCTYPE svg PUBLIC "-//W3C//DTD SVG 1.1//EN" "http://www.w3.org/Graphics/SVG/1.1/DTD/svg11.dtd">
<svg width="100%" height="100%" viewBox="0 0 1746 940" version="1.1" xmlns="http://www.w3.org/2000/svg" xmlns:xlink="http://www.w3.org/1999/xlink" xml:space="preserve" xmlns:serif="http://www.serif.com/" style="fill-rule:evenodd;clip-rule:evenodd;stroke-linecap:round;stroke-linejoin:round;stroke-miterlimit:1.5;">
    <g transform="matrix(1,0,0,1,-197,-3.57129)">
        <g transform="matrix(1.00785,-0.503587,0.503587,1.00785,-449.724,-128.837)">
            <g transform="matrix(1,0,0,1,26.4447,606)">
                <g transform="matrix(0.854858,0,0,0.847919,228.247,87.3391)">
                    <path d="M1421,447C1421,447 1424.69,560.236 1423,569C1421.31,577.764 1572.5,573 1572.5,573C1572.5,573 1568.5,455.195 1572.5,450C1576.5,444.805 1421,447 1421,447Z" style="fill:none;stroke:black;stroke-width:5.21px;"/>
                </g>
                <g transform="matrix(0.854858,0,0,0.847919,228.247,87.3391)">
                    <path d="M1485,446.539C1485,446.539 1487.13,558.658 1484,574.293L1515,574.293C1515,574.293 1507.54,464.783 1515,446.539" style="fill:none;stroke:black;stroke-width:5.21px;"/>
                </g>
            </g>
            <g transform="matrix(0.694349,-0.719638,0.719638,0.694349,120.364,1928.04)">
                <g transform="matrix(0.674049,0.738687,-0.148908,0.135878,668.029,-755.475)">
                    <path d="M1421,447C1421,447 1424.69,560.236 1423,569C1421.31,577.764 1572.5,573 1572.5,573C1572.5,573 1568.5,455.195 1572.5,450C1576.5,444.805 1421,447 1421,447Z" style="fill:white;stroke:black;stroke-width:6.15px;"/>
                </g>
                <g transform="matrix(0.674049,0.738687,-0.148908,0.135878,668.029,-755.475)">
                    <path d="M1485,446.539C1485,446.539 1487.13,558.658 1484,574.293L1515,574.293C1515,574.293 1507.54,464.783 1515,446.539" style="fill:none;stroke:black;stroke-width:6.15px;"/>
                </g>
                <g transform="matrix(0.674049,0.738687,-0.738687,0.674049,804.52,-1286.15)">
                    <path d="M1799.5,548.539C1799.5,548.539 1755.64,478.347 1763,518C1770.36,557.653 1772.24,529.404 1799.5,548.539Z" style="fill:none;stroke:black;stroke-width:4.44px;"/>
                </g>
                <g transform="matrix(-0.750948,-0.660362,-0.660362,0.750948,3327.38,1187.85)">
                    <path d="M1799.5,548.539C1799.5,548.539 1755.64,478.347 1763,518C1770.36,557.653 1772.24,529.404 1799.5,548.539Z" style="fill:none;stroke:black;stroke-width:4.44px;"/>
                </g>
            </g>
        </g>
        <g transform="matrix(0.808935,0.308927,-0.308927,0.808935,357.99,-1114.59)">
            <g transform="matrix(1,0,0,1,26.4447,606)">
                <g transform="matrix(0.854858,0,0,0.847919,228.247,87.3391)">
                    <path d="M1421,447C1421,447 1424.69,560.236 1423,569C1421.31,577.764 1572.5,573 1572.5,573C1572.5,573 1568.5,455.195 1572.5,450C1576.5,444.805 1421,447 1421,447Z" style="fill:none;stroke:rgb(31,31,31);stroke-width:6.78px;"/>
                </g>
                <g transform="matrix(0.854858,0,0,0.847919,228.247,87.3391)">
                    <path d="M1485,446.539C1485,446.539 1487.13,558.658 1484,574.293L1515,574.293C1515,574.293 1507.54,464.783 1515,446.539" style="fill:none;stroke:rgb(31,31,31);stroke-width:6.78px;"/>
                </g>
            </g>
            <g transform="matrix(0.694349,-0.719638,0.719638,0.694349,120.364,1928.04)">
                <g transform="matrix(0.674049,0.738687,-0.148908,0.135878,668.029,-755.475)">
                    <path d="M1421,447C1421,447 1424.69,560.236 1423,569C1421.31,577.764 1572.5,573 1572.5,573C1572.5,573 1568.5,455.195 1572.5,450C1576.5,444.805 1421,447 1421,447Z" style="fill:white;stroke:rgb(31,31,31);stroke-width:8px;"/>
                </g>
                <g transform="matrix(0.674049,0.738687,-0.148908,0.135878,668.029,-755.475)">
                    <path d="M1485,446.539C1485,446.539 1487.13,558.658 1484,574.293L1515,574.293C1515,574.293 1507.54,464.783 1515,446.539" style="fill:none;stroke:rgb(31,31,31);stroke-width:8px;"/>
                </g>
                <g transform="matrix(0.674049,0.738687,-0.738687,0.674049,804.52,-1286.15)">
                    <path d="M1799.5,548.539C1799.5,548.539 1755.64,478.347 1763,518C1770.36,557.653 1772.24,529.404 1799.5,548.539Z" style="fill:none;stroke:rgb(31,31,31);stroke-width:5.77px;"/>
                </g>
                <g transform="matrix(-0.750948,-0.660362,-0.660362,0.750948,3327.38,1187.85)">
                    <path d="M1799.5,548.539C1799.5,548.539 1755.64,478.347 1763,518C1770.36,557.653 1772.24,529.404 1799.5,548.539Z" style="fill:none;stroke:rgb(31,31,31);stroke-width:5.77px;"/>
                </g>
            </g>
        </g>
        <g transform="matrix(1,0,0,1,1379.1,210.044)">
            <g transform="matrix(1.82078,-0.44802,0.44802,1.82078,-1840.2,249.166)">
                <path d="M1160,297C1160,297 1199.68,288.388 1190,238C1180.32,187.612 1194.63,305.065 1252,271C1252,271 1220.76,325.175 1160,297Z" style="fill:none;stroke:rgb(31,31,31);stroke-width:2.67px;"/>
            </g>
            <g transform="matrix(1.3829,-0.294924,0.294924,1.3829,-1296.4,145.339)">
                <path d="M1160,297C1160,297 1199.68,288.388 1190,238C1180.32,187.612 1194.63,305.065 1252,271C1252,271 1220.76,325.175 1160,297Z" style="fill:white;stroke:rgb(31,31,31);stroke-width:3.54px;"/>
            </g>
            <g transform="matrix(1.3829,-0.294924,0.294924,1.3829,-1324.78,93.6447)">
                <path d="M1160,297C1160,297 1199.68,288.388 1190,238C1180.32,187.612 1194.63,305.065 1252,271C1252,271 1220.76,325.175 1160,297Z" style="fill:white;stroke:rgb(31,31,31);stroke-width:3.54px;"/>
            </g>
        </g>
        <g transform="matrix(1.34441,0.607288,-0.607288,1.34441,271.804,-425.806)">
            <g transform="matrix(1.32544,-0.041301,0.041301,1.32544,-376.437,43.3876)">
                <path d="M1160,297C1160,297 1199.68,288.388 1190,238C1180.32,187.612 1194.63,305.065 1252,271C1252,271 1220.76,325.175 1160,297Z" style="fill:none;stroke:black;stroke-width:2.56px;"/>
            </g>
            <g transform="matrix(1,0,0,1,15,51.7885)">
                <path d="M1160,297C1160,297 1199.68,288.388 1190,238C1180.32,187.612 1194.63,305.065 1252,271C1252,271 1220.76,325.175 1160,297Z" style="fill:white;stroke:black;stroke-width:3.39px;"/>
            </g>
            <g transform="matrix(1,0,0,1,3,11.8484)">
                <path d="M1160,297C1160,297 1199.68,288.388 1190,238C1180.32,187.612 1194.63,305.065 1252,271C1252,271 1220.76,325.175 1160,297Z" style="fill:white;stroke:black;stroke-width:3.39px;"/>
            </g>
        </g>
        <g transform="matrix(0.97329,0.56086,-0.56086,0.97329,118.871,-276.23)">
            <g transform="matrix(1.32544,-0.041301,0.041301,1.32544,-376.437,43.3876)">
                <path d="M1160,297C1160,297 1199.68,288.388 1190,238C1180.32,187.612 1194.63,305.065 1252,271C1252,271 1220.76,325.175 1160,297Z" style="fill:none;stroke:black;stroke-width:3.36px;"/>
            </g>
            <g transform="matrix(1,0,0,1,15,51.7885)">
                <path d="M1160,297C1160,297 1199.68,288.388 1190,238C1180.32,187.612 1194.63,305.065 1252,271C1252,271 1220.76,325.175 1160,297Z" style="fill:white;stroke:black;stroke-width:4.45px;"/>
            </g>
            <g transform="matrix(1,0,0,1,3,11.8484)">
                <path d="M1160,297C1160,297 1199.68,288.388 1190,238C1180.32,187.612 1194.63,305.065 1252,271C1252,271 1220.76,325.175 1160,297Z" style="fill:white;stroke:black;stroke-width:4.45px;"/>
            </g>
        </g>
        <g transform="matrix(0.188512,-1.61266,1.61266,0.188512,-146.278,2590.81)">
            <g transform="matrix(0.354511,0.388776,-0.388776,0.354511,984.412,-311.863)">
                <path d="M1131,428L1126,466L1094,478L1129,489L1122,525.362L1148,498L1179,514L1161,481L1189,453L1153,460L1131,428Z" style="fill:white;stroke:rgb(31,31,31);stroke-width:4.68px;"/>
            </g>
            <g transform="matrix(0.241063,0.467668,-0.467668,0.241063,1144.88,-348.718)">
                <path d="M1094,400L1113,415" style="fill:none;stroke:rgb(31,31,31);stroke-width:4.68px;"/>
            </g>
            <g transform="matrix(0.323565,-0.414886,0.414886,0.323565,636.246,625.422)">
                <path d="M1094,400L1113,415" style="fill:none;stroke:rgb(31,31,31);stroke-width:4.68px;"/>
            </g>
            <g transform="matrix(-0.525783,0.0194245,-0.0194245,-0.525783,1818.81,528.507)">
                <path d="M1094,400L1113,415" style="fill:none;stroke:rgb(31,31,31);stroke-width:4.68px;"/>
            </g>
            <g transform="matrix(-0.261235,0.456707,-0.456707,-0.261235,1708.05,-119.875)">
                <path d="M1094,400L1113,415" style="fill:none;stroke:rgb(31,31,31);stroke-width:4.68px;"/>
            </g>
            <g transform="matrix(0.524148,0.0457545,-0.0457545,0.524148,607.967,18.1911)">
                <path d="M1094,400L1113,415" style="fill:none;stroke:rgb(31,31,31);stroke-width:4.68px;"/>
            </g>
            <g transform="matrix(-0.302362,-0.430583,0.430583,-0.302362,1372.3,941.005)">
                <path d="M1094,400L1113,415" style="fill:none;stroke:rgb(31,31,31);stroke-width:4.68px;"/>
            </g>
            <g transform="matrix(-0.0419995,0.3765,-0.380429,-0.0424377,1434.15,-131.808)">
                <path d="M1094,400L1113,415" style="fill:none;stroke:rgb(31,31,31);stroke-width:6.47px;"/>
            </g>
            <g transform="matrix(0.359436,-0.119676,0.120924,0.363186,711.933,271.866)">
                <path d="M1094,400L1113,415" style="fill:none;stroke:rgb(31,31,31);stroke-width:6.47px;"/>
            </g>
            <g transform="matrix(-0.322946,-0.198046,0.200112,-0.326316,1499.52,698.157)">
                <path d="M1094,400L1113,415" style="fill:none;stroke:rgb(31,31,31);stroke-width:6.47px;"/>
            </g>
        </g>
        <g transform="matrix(0.188852,-1.43669,1.43669,0.188852,374.727,1934.87)">
            <g transform="matrix(0.354511,0.388776,-0.388776,0.354511,984.412,-311.863)">
                <path d="M1131,428L1126,466L1094,478L1129,489L1122,525.362L1148,498L1179,514L1161,481L1189,453L1153,460L1131,428Z" style="fill:white;stroke:rgb(31,31,31);stroke-width:5.25px;"/>
            </g>
            <g transform="matrix(0.241063,0.467668,-0.467668,0.241063,1144.88,-348.718)">
                <path d="M1094,400L1113,415" style="fill:none;stroke:rgb(31,31,31);stroke-width:5.25px;"/>
            </g>
            <g transform="matrix(0.323565,-0.414886,0.414886,0.323565,636.246,625.422)">
                <path d="M1094,400L1113,415" style="fill:none;stroke:rgb(31,31,31);stroke-width:5.25px;"/>
            </g>
            <g transform="matrix(-0.525783,0.0194245,-0.0194245,-0.525783,1818.81,528.507)">
                <path d="M1094,400L1113,415" style="fill:none;stroke:rgb(31,31,31);stroke-width:5.25px;"/>
            </g>
            <g transform="matrix(-0.261235,0.456707,-0.456707,-0.261235,1708.05,-119.875)">
                <path d="M1094,400L1113,415" style="fill:none;stroke:rgb(31,31,31);stroke-width:5.25px;"/>
            </g>
            <g transform="matrix(0.524148,0.0457545,-0.0457545,0.524148,607.967,18.1911)">
                <path d="M1094,400L1113,415" style="fill:none;stroke:rgb(31,31,31);stroke-width:5.25px;"/>
            </g>
            <g transform="matrix(-0.302362,-0.430583,0.430583,-0.302362,1372.3,941.005)">
                <path d="M1094,400L1113,415" style="fill:none;stroke:rgb(31,31,31);stroke-width:5.25px;"/>
            </g>
            <g transform="matrix(-0.0419995,0.3765,-0.380429,-0.0424377,1434.15,-131.808)">
                <path d="M1094,400L1113,415" style="fill:none;stroke:rgb(31,31,31);stroke-width:7.25px;"/>
            </g>
            <g transform="matrix(0.359436,-0.119676,0.120924,0.363186,711.933,271.866)">
                <path d="M1094,400L1113,415" style="fill:none;stroke:rgb(31,31,31);stroke-width:7.25px;"/>
            </g>
            <g transform="matrix(-0.322946,-0.198046,0.200112,-0.326316,1499.52,698.157)">
                <path d="M1094,400L1113,415" style="fill:none;stroke:rgb(31,31,31);stroke-width:7.25px;"/>
            </g>
        </g>
        <g transform="matrix(0.969793,-0.243928,0.243928,0.969793,349.187,474.645)">
            <g transform="matrix(1.23516,0,0,1.23516,-382.102,-291.782)">
                <path d="M1368,490C1352.8,493.014 1328.91,540.93 1377,546C1425.09,551.07 1409.85,481.699 1368,490Z" style="fill:white;stroke:rgb(31,31,31);stroke-width:4.05px;"/>
            </g>
            <path d="M1293,325C1293,325 1333.48,346.677 1352,339C1352,339 1320.21,373.435 1286,347.768C1286,347.768 1310.54,378.227 1344,377" style="fill:white;stroke:rgb(31,31,31);stroke-width:5px;"/>
            <g transform="matrix(1.23516,0,0,1.23516,-382.102,-291.782)">
                <path d="M1365,477L1377.64,476L1380,489.309L1368,489.309L1365,477Z" style="fill:white;stroke:rgb(31,31,31);stroke-width:4.05px;"/>
            </g>
            <g transform="matrix(1.23516,0,0,1.23516,-382.102,-291.782)">
                <path d="M1372.5,476C1372.5,476 1339.11,428.433 1359,441C1378.89,453.567 1371.16,467.092 1372.5,476Z" style="fill:white;stroke:rgb(31,31,31);stroke-width:4.05px;"/>
            </g>
        </g>
        <g transform="matrix(1,0,0,1,1766.74,-246.557)">
            <g transform="matrix(1.32066,0.635844,-0.635844,1.32066,-1414.59,-677.709)">
                <path d="M1368,490C1352.8,493.014 1328.91,540.93 1377,546C1425.09,551.07 1409.85,481.699 1368,490Z" style="fill:white;stroke:rgb(31,31,31);stroke-width:3.41px;"/>
            </g>
            <g transform="matrix(0.771556,-0.901633,0.901633,0.771556,-1260.81,1803.72)">
                <path d="M1294.91,326.16C1294.91,326.16 1333.67,339.469 1352.19,331.791C1352.19,331.791 1323.19,376.288 1288.98,350.621C1288.98,350.621 1306,379.897 1339.47,378.67" style="fill:white;stroke:rgb(31,31,31);stroke-width:4.21px;"/>
            </g>
            <g transform="matrix(1.32066,0.635844,-0.635844,1.32066,-1414.59,-677.709)">
                <path d="M1365,477L1377.64,476L1380,489.309L1368,489.309L1365,477Z" style="fill:white;stroke:rgb(31,31,31);stroke-width:3.41px;"/>
            </g>
            <g transform="matrix(1.32066,0.635844,-0.635844,1.32066,-1414.59,-677.709)">
                <path d="M1372.5,476C1372.5,476 1339.11,428.433 1359,441C1378.89,453.567 1371.16,467.092 1372.5,476Z" style="fill:white;stroke:rgb(31,31,31);stroke-width:3.41px;"/>
            </g>
        </g>
        <g transform="matrix(-1.40824,-0.333103,-0.333103,1.40824,3278.3,388.789)">
            <g transform="matrix(1.23516,0,0,1.23516,-382.102,-291.782)">
                <path d="M1368,490C1352.8,493.014 1328.91,540.93 1377,546C1425.09,551.07 1409.85,481.699 1368,490Z" style="fill:white;stroke:black;stroke-width:2.8px;"/>
            </g>
            <g transform="matrix(0.256217,-0.966619,0.966619,0.256217,641.749,1536.05)">
                <path d="M1294.91,326.16C1294.91,326.16 1333.67,339.469 1352.19,331.791C1352.19,331.791 1323.19,376.288 1288.98,350.621C1288.98,350.621 1306,379.897 1339.47,378.67" style="fill:white;stroke:black;stroke-width:3.46px;"/>
            </g>
            <g transform="matrix(1.23516,0,0,1.23516,-382.102,-291.782)">
                <path d="M1365,477L1377.64,476L1380,489.309L1368,489.309L1365,477Z" style="fill:white;stroke:black;stroke-width:2.8px;"/>
            </g>
            <g transform="matrix(1.23516,0,0,1.23516,-382.102,-291.782)">
                <path d="M1372.5,476C1372.5,476 1339.11,428.433 1359,441C1378.89,453.567 1371.16,467.092 1372.5,476Z" style="fill:white;stroke:black;stroke-width:2.8px;"/>
            </g>
        </g>
        <g transform="matrix(1.23005,-1.40036,1.40036,1.23005,-3650.36,-400.861)">
            <path d="M1355,2202C1355,2202 1361.23,2188.78 1354,2182.69" style="fill:none;stroke:black;stroke-width:2.68px;"/>
            <g transform="matrix(0.228258,0.973601,-1.12899,0.264688,3536.26,318.749)">
                <path d="M1355,2202C1355,2202 1361.23,2188.78 1354,2182.69" style="fill:none;stroke:black;stroke-width:2.48px;"/>
            </g>
            <g transform="matrix(0.228258,0.973601,-1.43977,0.33755,4210.6,174.309)">
                <path d="M1355,2202C1355,2202 1361.23,2188.78 1354,2182.69" style="fill:none;stroke:black;stroke-width:2.13px;"/>
            </g>
            <g transform="matrix(0.228258,0.973601,-1.68027,0.393934,4728.81,66.9907)">
                <path d="M1355,2202C1355,2202 1363.93,2189.74 1356.69,2183.66" style="fill:none;stroke:black;stroke-width:1.9px;"/>
            </g>
            <g transform="matrix(0.228258,0.973601,-1.68027,0.393934,4720.81,81.5044)">
                <path d="M1355,2202C1355,2202 1363.4,2188.51 1356.16,2182.42" style="fill:none;stroke:black;stroke-width:1.9px;"/>
            </g>
            <g transform="matrix(0.228258,0.973601,-1.68027,0.393934,4713.81,95.6438)">
                <path d="M1354.54,2203.13C1354.54,2203.13 1363.4,2188.51 1356.16,2182.42" style="fill:none;stroke:black;stroke-width:1.9px;"/>
            </g>
            <g transform="matrix(0.228258,0.973601,-1.68027,0.393934,4704.23,112.644)">
                <path d="M1354.54,2203.13C1354.54,2203.13 1363.4,2188.51 1356.16,2182.42" style="fill:none;stroke:black;stroke-width:1.9px;"/>
            </g>
            <g transform="matrix(0.828582,0.559868,-0.645411,0.955181,1661.37,-653.029)">
                <path d="M1355,2202C1355,2202 1361.23,2188.78 1354,2182.69" style="fill:none;stroke:black;stroke-width:2.49px;"/>
            </g>
            <path d="M1345.04,2203C1345.04,2203 1343.5,2189.4 1332,2188" style="fill:none;stroke:black;stroke-width:2.68px;"/>
            <path d="M1337,2210C1337,2210 1334.96,2213.26 1331.58,2214.43C1328.06,2215.64 1323.65,2215.15 1322.15,2209.87C1321.55,2207.75 1321.42,2204.86 1322,2201C1325.41,2178.3 1379.87,2174.24 1382,2203C1384.13,2231.76 1340.92,2306.75 1328,2319C1328,2319 1308.53,2323.72 1308,2310C1307.47,2296.28 1360,2219 1360,2219C1360,2219 1362.55,2216.11 1362.18,2211.95C1361.77,2207.3 1358.56,2202.98 1353.29,2202.38C1349.38,2201.93 1344.79,2203.07 1337,2210Z" style="fill:none;stroke:black;stroke-width:2.68px;"/>
            <path d="M1337,2209C1337,2209 1329.88,2197.94 1323,2200" style="fill:none;stroke:black;stroke-width:2.68px;"/>
        </g>
        <g transform="matrix(-1.78156,0,0,1.78156,4250.27,-3882.52)">
            <path d="M1355,2202C1355,2202 1361.23,2188.78 1354,2182.69" style="fill:none;stroke:black;stroke-width:2.81px;"/>
            <g transform="matrix(0.228258,0.973601,-1.12899,0.264688,3536.26,318.749)">
                <path d="M1355,2202C1355,2202 1361.23,2188.78 1354,2182.69" style="fill:none;stroke:black;stroke-width:2.59px;"/>
            </g>
            <g transform="matrix(0.228258,0.973601,-1.43977,0.33755,4210.6,174.309)">
                <path d="M1355,2202C1355,2202 1361.23,2188.78 1354,2182.69" style="fill:none;stroke:black;stroke-width:2.22px;"/>
            </g>
            <g transform="matrix(0.228258,0.973601,-1.68027,0.393934,4728.81,66.9907)">
                <path d="M1355,2202C1355,2202 1363.93,2189.74 1356.69,2183.66" style="fill:none;stroke:black;stroke-width:1.99px;"/>
            </g>
            <g transform="matrix(0.228258,0.973601,-1.68027,0.393934,4720.81,81.5044)">
                <path d="M1355,2202C1355,2202 1363.4,2188.51 1356.16,2182.42" style="fill:none;stroke:black;stroke-width:1.99px;"/>
            </g>
            <g transform="matrix(0.228258,0.973601,-1.68027,0.393934,4713.81,95.6438)">
                <path d="M1354.54,2203.13C1354.54,2203.13 1363.4,2188.51 1356.16,2182.42" style="fill:none;stroke:black;stroke-width:1.99px;"/>
            </g>
            <g transform="matrix(0.228258,0.973601,-1.68027,0.393934,4704.23,112.644)">
                <path d="M1354.54,2203.13C1354.54,2203.13 1363.4,2188.51 1356.16,2182.42" style="fill:none;stroke:black;stroke-width:1.99px;"/>
            </g>
            <g transform="matrix(0.828582,0.559868,-0.645411,0.955181,1661.37,-653.029)">
                <path d="M1355,2202C1355,2202 1361.23,2188.78 1354,2182.69" style="fill:none;stroke:black;stroke-width:2.6px;"/>
            </g>
            <path d="M1345.04,2203C1345.04,2203 1343.5,2189.4 1332,2188" style="fill:none;stroke:black;stroke-width:2.81px;"/>
            <path d="M1337,2210C1337,2210 1334.96,2213.26 1331.58,2214.43C1328.06,2215.64 1323.65,2215.15 1322.15,2209.87C1321.55,2207.75 1321.42,2204.86 1322,2201C1325.41,2178.3 1379.87,2174.24 1382,2203C1384.13,2231.76 1340.92,2306.75 1328,2319C1328,2319 1308.53,2323.72 1308,2310C1307.47,2296.28 1360,2219 1360,2219C1360,2219 1362.55,2216.11 1362.18,2211.95C1361.77,2207.3 1358.56,2202.98 1353.29,2202.38C1349.38,2201.93 1344.79,2203.07 1337,2210Z" style="fill:none;stroke:black;stroke-width:2.81px;"/>
            <path d="M1337,2209C1337,2209 1329.88,2197.94 1323,2200" style="fill:none;stroke:black;stroke-width:2.81px;"/>
        </g>
        <g transform="matrix(2.09834,-0.675341,0.675341,2.09834,-1691.87,-3232.61)">
            <g transform="matrix(1,0,0,1,17,-150.818)">
                <path d="M842,2066C850.561,2052.35 850.118,2043.42 850,2036C849.882,2028.58 867.891,2005.74 887,2034C887,2034 896.397,2045.55 902,2048C902,2048 884.554,2079.16 842,2066L902,2048" style="fill:white;stroke:black;stroke-width:2.27px;"/>
            </g>
            <path d="M883,1908.05C883,1908.05 895.253,1917.81 897,1904" style="fill:none;stroke:black;stroke-width:2.27px;"/>
            <g transform="matrix(0.948579,0.31654,-0.31654,0.948579,639.374,-176.531)">
                <path d="M876,1864C876,1864 837.883,1847.66 855,1861C872.117,1874.34 876,1864 876,1864Z" style="fill:none;stroke:black;stroke-width:2.27px;"/>
            </g>
            <g transform="matrix(-0.518205,0.855256,0.855256,0.518205,-259.951,154.234)">
                <path d="M876,1864C876,1864 837.883,1847.66 855,1861C872.117,1874.34 876,1864 876,1864Z" style="fill:none;stroke:black;stroke-width:2.27px;"/>
            </g>
        </g>
        <g transform="matrix(-2.14289,-0.76427,-0.76427,2.14289,4882.24,-2670.97)">
            <g transform="matrix(1,0,0,1,17,-150.818)">
                <path d="M842,2066C850.561,2052.35 850.118,2043.42 850,2036C849.882,2028.58 867.891,2005.74 887,2034C887,2034 896.397,2045.55 902,2048C902,2048 884.554,2079.16 842,2066L902,2048" style="fill:white;stroke:black;stroke-width:2.2px;"/>
            </g>
            <path d="M883,1908.05C883,1908.05 895.253,1917.81 897,1904" style="fill:none;stroke:black;stroke-width:2.2px;"/>
            <g transform="matrix(0.948579,0.31654,-0.31654,0.948579,639.374,-176.531)">
                <path d="M876,1864C876,1864 837.883,1847.66 855,1861C872.117,1874.34 876,1864 876,1864Z" style="fill:none;stroke:black;stroke-width:2.2px;"/>
            </g>
            <g transform="matrix(-0.518205,0.855256,0.855256,0.518205,-259.951,154.234)">
                <path d="M876,1864C876,1864 837.883,1847.66 855,1861C872.117,1874.34 876,1864 876,1864Z" style="fill:none;stroke:black;stroke-width:2.2px;"/>
            </g>
        </g>
        <g transform="matrix(0.983466,-0.181093,0.181093,0.983466,-319.012,-536.75)">
            <g transform="matrix(1.22629,0,0,1.16163,-53.2983,-926.303)">
                <path d="M1336,2030C1336,2030 1284.97,1971.38 1357,1938C1429.03,1904.62 1465.38,2014.19 1410,2032C1354.62,2049.81 1336,2030 1336,2030Z" style="fill:white;stroke:black;stroke-width:4.19px;"/>
            </g>
            <g transform="matrix(0.989954,0,0,0.937756,264.061,-556.167)">
                <path d="M1336,2030C1336,2030 1284.97,1971.38 1357,1938C1429.03,1904.62 1465.38,2014.19 1410,2032C1354.62,2049.81 1336,2030 1336,2030Z" style="fill:white;stroke:black;stroke-width:5.19px;"/>
            </g>
            <g transform="matrix(0.82313,0,0,0.82313,495.537,-402.826)">
                <path d="M1336,2030C1336,2030 1284.97,1971.38 1357,1938C1429.03,1904.62 1465.38,2014.19 1410,2032C1354.62,2049.81 1336,2030 1336,2030Z" style="fill:white;stroke:black;stroke-width:6.07px;"/>
            </g>
            <g transform="matrix(1.0588,0.376919,-0.405568,1.13928,886.716,-1503.03)">
                <path d="M1415,1852L1406,1898C1406,1898 1430.48,1905.43 1458,1897L1446,1852L1415,1852Z" style="fill:white;stroke:black;stroke-width:4.28px;"/>
            </g>
            <g transform="matrix(0.82313,0,0,0.82313,439.473,-388.544)">
                <path d="M1413,1963L1347,1997.8L1426,1981C1426,1981 1428.48,1960.18 1413,1963Z" style="fill:white;stroke:black;stroke-width:4.86px;"/>
            </g>
            <g transform="matrix(0.82313,0,0,0.82313,447.099,-385.899)">
                <path d="M1441,1962.74C1441,1962.74 1436.53,1966.35 1443.67,1968.22C1450.82,1970.1 1452.73,1957.67 1441,1962.74Z" style="fill:white;stroke:black;stroke-width:4.86px;"/>
            </g>
            <g transform="matrix(0.82313,0,0,0.82313,449.441,-387.721)">
                <path d="M1394,1995C1394,1995 1405.06,2012.9 1427,2002" style="fill:white;stroke:black;stroke-width:4.86px;"/>
            </g>
            <g transform="matrix(0.82313,0,0,0.82313,416.595,-401.714)">
                <path d="M1441,1962.74C1441,1962.74 1436.53,1966.35 1443.67,1968.22C1450.82,1970.1 1452.73,1957.67 1441,1962.74Z" style="fill:white;stroke:black;stroke-width:4.86px;"/>
            </g>
            <g transform="matrix(0.82313,0,0,0.82313,447.795,-388.544)">
                <path d="M1480.73,2063L1524,2006.52L1522,1986L1524,2006.52L1535,1989L1524,2006.52L1548,2001.26" style="fill:none;stroke:black;stroke-width:6.07px;"/>
            </g>
            <g transform="matrix(-0.293352,-0.769082,0.769082,-0.293352,433.701,3048.12)">
                <path d="M1480.73,2063L1524,2006.52L1522,1986L1524,2006.52L1535,1989L1524,2006.52L1548,2001.26" style="fill:none;stroke:black;stroke-width:6.07px;"/>
            </g>
        </g>
        <g transform="matrix(1,0,0,1,0,-290.854)">
            <path d="M199,1232C199,1232 346.078,1026.52 641,1207" style="fill:none;stroke:rgb(31,31,31);stroke-width:4px;"/>
        </g>
        <g transform="matrix(-1.42081,0,0,1,1958.74,-323.083)">
            <path d="M199,1232C199,1232 346.078,1026.52 641,1207" style="fill:none;stroke:rgb(31,31,31);stroke-width:3.26px;"/>
        </g>
        <g transform="matrix(-0.561086,0,0,0.690045,1222.66,91.0103)">
            <path d="M199,1232C199,1232 346.078,1026.52 641,1207" style="fill:none;stroke:rgb(31,31,31);stroke-width:6.36px;"/>
        </g>
        <g transform="matrix(0.866406,0.176703,-0.176703,0.866406,166.52,-32.5523)">
            <g transform="matrix(0.947115,0.320895,-0.320895,0.947115,-758.734,-73.7197)">
                <g transform="matrix(0.854858,0,0,0.847919,228.247,87.3391)">
                    <path d="M1421,447C1421,447 1424.69,560.236 1423,569C1421.31,577.764 1572.5,573 1572.5,573C1572.5,573 1568.5,455.195 1572.5,450C1576.5,444.805 1421,447 1421,447Z" style="fill:white;stroke:black;stroke-width:6.64px;"/>
                </g>
                <g transform="matrix(0.854858,0,0,0.847919,228.247,87.3391)">
                    <path d="M1485,446.539C1485,446.539 1487.13,558.658 1484,574.293L1515,574.293C1515,574.293 1507.54,464.783 1515,446.539" style="fill:none;stroke:black;stroke-width:6.64px;"/>
                </g>
            </g>
            <g transform="matrix(0.521588,0.853198,-0.853198,0.521588,316.95,-848.159)">
                <g transform="matrix(0.674049,0.738687,-0.148908,0.135878,668.029,-755.475)">
                    <path d="M1421,447C1421,447 1424.69,560.236 1423,569C1421.31,577.764 1572.5,573 1572.5,573C1572.5,573 1568.5,455.195 1572.5,450C1576.5,444.805 1421,447 1421,447Z" style="fill:none;stroke:black;stroke-width:7.84px;"/>
                </g>
                <g transform="matrix(0.674049,0.738687,-0.148908,0.135878,668.029,-755.475)">
                    <path d="M1485,446.539C1485,446.539 1487.13,558.658 1484,574.293L1515,574.293C1515,574.293 1507.54,464.783 1515,446.539" style="fill:none;stroke:black;stroke-width:7.84px;"/>
                </g>
                <g transform="matrix(0.674049,0.738687,-0.738687,0.674049,804.52,-1286.15)">
                    <path d="M1799.5,548.539C1799.5,548.539 1755.64,478.347 1763,518C1770.36,557.653 1772.24,529.404 1799.5,548.539Z" style="fill:none;stroke:black;stroke-width:5.65px;"/>
                </g>
                <g transform="matrix(-0.750948,-0.660362,-0.660362,0.750948,3327.38,1187.85)">
                    <path d="M1799.5,548.539C1799.5,548.539 1755.64,478.347 1763,518C1770.36,557.653 1772.24,529.404 1799.5,548.539Z" style="fill:none;stroke:black;stroke-width:5.65px;"/>
                </g>
            </g>
        </g>
        <g transform="matrix(1.01849,0.159294,-0.159294,1.01849,-126.644,-855.218)">
            <g transform="matrix(1.22629,0,0,1.16163,-53.2983,-926.303)">
                <path d="M1336,2030C1336,2030 1284.97,1971.38 1357,1938C1429.03,1904.62 1465.38,2014.19 1410,2032C1354.62,2049.81 1336,2030 1336,2030Z" style="fill:white;stroke:black;stroke-width:4.06px;"/>
            </g>
            <g transform="matrix(0.989954,0,0,0.937756,264.061,-556.167)">
                <path d="M1336,2030C1336,2030 1284.97,1971.38 1357,1938C1429.03,1904.62 1465.38,2014.19 1410,2032C1354.62,2049.81 1336,2030 1336,2030Z" style="fill:white;stroke:black;stroke-width:5.03px;"/>
            </g>
            <g transform="matrix(0.82313,0,0,0.82313,495.537,-402.826)">
                <path d="M1336,2030C1336,2030 1284.97,1971.38 1357,1938C1429.03,1904.62 1465.38,2014.19 1410,2032C1354.62,2049.81 1336,2030 1336,2030Z" style="fill:white;stroke:black;stroke-width:5.89px;"/>
            </g>
            <g transform="matrix(1.12388,-0.00332492,0.00357764,1.20931,11.7495,-1089.93)">
                <path d="M1415,1852L1406,1898C1406,1898 1430.48,1905.43 1458,1897L1446,1852L1415,1852Z" style="fill:white;stroke:black;stroke-width:4.15px;"/>
            </g>
            <g transform="matrix(0.796337,-0.208303,0.208303,0.796337,91.2014,-41.7074)">
                <path d="M1394,1995C1394,1995 1405.06,2012.9 1427,2002" style="fill:white;stroke:black;stroke-width:4.71px;"/>
            </g>
            <g transform="matrix(0.236987,-0.788276,0.788276,0.236987,-262.991,1885.74)">
                <path d="M1413,1963L1347,1997.8L1426,1981C1426,1981 1428.48,1960.18 1413,1963Z" style="fill:white;stroke:black;stroke-width:4.71px;"/>
            </g>
            <g transform="matrix(0.82313,0,0,0.82313,451.537,-394.861)">
                <path d="M1441,1962.74C1441,1962.74 1436.53,1966.35 1443.67,1968.22C1450.82,1970.1 1452.73,1957.67 1441,1962.74Z" style="fill:white;stroke:black;stroke-width:4.71px;"/>
            </g>
            <g transform="matrix(0.82313,0,0,0.82313,426.198,-397.702)">
                <path d="M1441,1962.74C1441,1962.74 1436.53,1966.35 1443.67,1968.22C1450.82,1970.1 1452.73,1957.67 1441,1962.74Z" style="fill:white;stroke:black;stroke-width:4.71px;"/>
            </g>
            <g transform="matrix(0.173288,0.804682,-0.804682,0.173288,3066.09,-236.529)">
                <path d="M1480.73,2063L1524,2006.52L1522,1986L1524,2006.52L1535,1989L1524,2006.52L1548,2001.26" style="fill:none;stroke:black;stroke-width:5.89px;"/>
            </g>
            <g transform="matrix(-0.240846,-0.787106,0.787106,-0.240846,323.736,2955.74)">
                <path d="M1480.73,2063L1524,2006.52L1522,1986L1524,2006.52L1535,1989L1524,2006.52L1548,2001.26" style="fill:none;stroke:black;stroke-width:5.89px;"/>
            </g>
        </g>
    </g>
</svg>
