<?xml version="1.0" encoding="UTF-8" standalone="no"?><!DOCTYPE svg PUBLIC "-//W3C//DTD SVG 1.1//EN" "http://www.w3.org/Graphics/SVG/1.1/DTD/svg11.dtd"><svg width="100%" height="100%" viewBox="0 0 868 278" version="1.1" xmlns="http://www.w3.org/2000/svg" xmlns:xlink="http://www.w3.org/1999/xlink" xml:space="preserve" xmlns:serif="http://www.serif.com/" style="fill-rule:evenodd;clip-rule:evenodd;stroke-linecap:round;stroke-linejoin:round;stroke-miterlimit:1.5;"><g><path d="M865.758,2c0,0 -188.431,180.397 -410.367,216.908c-152.699,25.121 -333.065,-35.845 -453.391,-94.267" style="fill:none;stroke:#000;stroke-width:4px;"/><g><path d="M111.609,185.57l9.719,-19.737l11.663,5.743l-9.719,19.737l-11.663,-5.743Z" style="fill:#fff;stroke:#000;stroke-width:3px;"/><path d="M113.396,186.45c0,0 -24.17,11.112 -9.697,32.009c0,0 24.55,-4.542 17.486,-28.173" style="fill:none;stroke:#000;stroke-width:3px;"/></g><g><path d="M283.502,230.255l4.38,-21.559l12.739,2.588l-4.38,21.559l-12.739,-2.588Z" style="fill:#fff;stroke:#000;stroke-width:3px;"/><path d="M285.454,230.652c0,0 -20.549,16.893 -1.237,33.423c0,0 22.587,-10.636 9.745,-31.695" style="fill:none;stroke:#000;stroke-width:3px;"/></g><g><path d="M473.696,233.732l-1.46,-21.951l-12.971,0.863l1.46,21.951l12.971,-0.863Z" style="fill:#fff;stroke:#000;stroke-width:3px;"/><path d="M471.709,233.864c0,0 18.108,19.487 -3.239,33.289c0,0 -20.964,-13.558 -5.424,-32.712" style="fill:none;stroke:#000;stroke-width:3px;"/></g><g><path d="M622.743,186.026l-11.057,-19.02l11.239,-6.533l11.057,19.019l-11.239,6.534Z" style="fill:#fff;stroke:#000;stroke-width:3px;"/><path d="M624.465,185.025c0,0 -4.125,26.279 21.29,25.794c0,0 9.807,-22.959 -13.784,-30.158" style="fill:none;stroke:#000;stroke-width:3px;"/></g><g><path d="M760.518,97.191l-7.298,-20.754l12.264,-4.313l7.298,20.754l-12.264,4.313Z" style="fill:#fff;stroke:#000;stroke-width:3px;"/><path d="M762.398,96.53c0,0 -8.976,25.042 16.081,29.326c0,0 13.934,-20.716 -7.891,-32.206" style="fill:none;stroke:#000;stroke-width:3px;"/></g></g></svg>