<?xml version="1.0" encoding="UTF-8" standalone="no"?>
<!DOCTYPE svg PUBLIC "-//W3C//DTD SVG 1.1//EN" "http://www.w3.org/Graphics/SVG/1.1/DTD/svg11.dtd">
<svg width="100%" height="100%" viewBox="0 0 552 472" version="1.1" xmlns="http://www.w3.org/2000/svg" xmlns:xlink="http://www.w3.org/1999/xlink" xml:space="preserve" xmlns:serif="http://www.serif.com/" style="fill-rule:evenodd;clip-rule:evenodd;stroke-linecap:round;stroke-linejoin:round;stroke-miterlimit:1.5;">
    <g transform="matrix(1,0,0,1,-612.578,-4619.06)">
        <g transform="matrix(2.86394,0.200593,-0.200593,2.86394,-2296.82,3306.14)">
            <path d="M1131,428L1126,466L1094,478L1129,489L1122,525.362L1148,498L1179,514L1161,481L1189,453L1153,460L1131,428Z" style="fill:white;stroke:rgb(31,31,31);stroke-width:7.26px;"/>
        </g>
        <g transform="matrix(2.71294,0.939322,-0.939322,2.71294,-1801.85,2556.39)">
            <path d="M1094,400L1113,415" style="fill:none;stroke:rgb(31,31,31);stroke-width:7.26px;"/>
        </g>
        <g transform="matrix(-0.284284,-2.85684,2.85684,-0.284284,-142.726,8318.75)">
            <path d="M1094,400L1113,415" style="fill:none;stroke:rgb(31,31,31);stroke-width:7.26px;"/>
        </g>
        <g transform="matrix(-2.00337,2.05642,-2.05642,-2.00337,4162.74,3483.33)">
            <path d="M1094,400L1113,415" style="fill:none;stroke:rgb(31,31,31);stroke-width:7.26px;"/>
        </g>
        <g transform="matrix(0.687909,2.78732,-2.78732,0.687909,1283.96,1339.69)">
            <path d="M1094,400L1113,415" style="fill:none;stroke:rgb(31,31,31);stroke-width:7.26px;"/>
        </g>
        <g transform="matrix(2.24233,-1.79286,1.79286,2.24233,-2540.79,6027.06)">
            <path d="M1094,400L1113,415" style="fill:none;stroke:rgb(31,31,31);stroke-width:5.81px;"/>
        </g>
        <g transform="matrix(-2.8154,-0.562056,0.562056,-2.8154,3952.46,6793.68)">
            <path d="M1094,400L1113,415" style="fill:none;stroke:rgb(31,31,31);stroke-width:7.26px;"/>
        </g>
        <g transform="matrix(1.25175,1.64507,-1.66224,1.26481,157.33,2323.84)">
            <path d="M1094,400L1113,415" style="fill:none;stroke:rgb(31,31,31);stroke-width:10.03px;"/>
        </g>
        <g transform="matrix(0.968931,-1.82601,1.84507,0.97904,-1175.04,6637.45)">
            <path d="M1094,400L1113,415" style="fill:none;stroke:rgb(31,31,31);stroke-width:10.03px;"/>
        </g>
        <g transform="matrix(-2.02113,0.433823,-0.438349,-2.04221,3540.5,5355.57)">
            <path d="M1094,400L1113,415" style="fill:none;stroke:rgb(31,31,31);stroke-width:10.03px;"/>
        </g>
    </g>
</svg>
