<?xml version="1.0" encoding="UTF-8" standalone="no"?>
<!DOCTYPE svg PUBLIC "-//W3C//DTD SVG 1.1//EN" "http://www.w3.org/Graphics/SVG/1.1/DTD/svg11.dtd">
<svg width="100%" height="100%" viewBox="0 0 89 121" version="1.1" xmlns="http://www.w3.org/2000/svg" xmlns:xlink="http://www.w3.org/1999/xlink" xml:space="preserve" xmlns:serif="http://www.serif.com/" style="fill-rule:evenodd;clip-rule:evenodd;stroke-linecap:round;stroke-linejoin:round;stroke-miterlimit:1.5;">
    <g transform="matrix(1,0,0,1,-1368.89,-4715.84)">
        <g transform="matrix(1,0,0,1,2.27374e-13,41)">
            <g transform="matrix(0.577666,-0.657647,0.657647,0.577666,-836.774,4316.87)">
                <path d="M1355,2202C1355,2202 1361.23,2188.78 1354,2182.69" style="fill:none;stroke:black;stroke-width:5.14px;"/>
            </g>
            <g transform="matrix(0.772143,0.412303,-0.478108,0.895379,1415.63,2175.39)">
                <path d="M1355,2202C1355,2202 1361.23,2188.78 1354,2182.69" style="fill:none;stroke:black;stroke-width:4.75px;"/>
            </g>
            <g transform="matrix(0.772143,0.412303,-0.609718,1.14185,1710.18,1648.47)">
                <path d="M1355,2202C1355,2202 1361.23,2188.78 1354,2182.69" style="fill:none;stroke:black;stroke-width:4.07px;"/>
            </g>
            <g transform="matrix(0.772143,0.412303,-0.711567,1.33259,1938.96,1245.68)">
                <path d="M1355,2202C1355,2202 1363.93,2189.74 1356.69,2183.66" style="fill:none;stroke:black;stroke-width:3.64px;"/>
            </g>
            <g transform="matrix(0.772143,0.412303,-0.711567,1.33259,1943.88,1259.33)">
                <path d="M1355,2202C1355,2202 1363.4,2188.51 1356.16,2182.42" style="fill:none;stroke:black;stroke-width:3.64px;"/>
            </g>
            <g transform="matrix(0.772143,0.412303,-0.711567,1.33259,1949.13,1272.1)">
                <path d="M1354.54,2203.13C1354.54,2203.13 1363.4,2188.51 1356.16,2182.42" style="fill:none;stroke:black;stroke-width:3.64px;"/>
            </g>
            <g transform="matrix(0.772143,0.412303,-0.711567,1.33259,1954.78,1288.22)">
                <path d="M1354.54,2203.13C1354.54,2203.13 1363.4,2188.51 1356.16,2182.42" style="fill:none;stroke:black;stroke-width:3.64px;"/>
            </g>
            <g transform="matrix(0.84684,-0.221498,0.25534,0.976228,-306.517,2847.04)">
                <path d="M1355,2202C1355,2202 1361.23,2188.78 1354,2182.69" style="fill:none;stroke:black;stroke-width:4.76px;"/>
            </g>
            <g transform="matrix(0.577666,-0.657647,0.657647,0.577666,-836.774,4316.87)">
                <path d="M1345.04,2203C1345.04,2203 1343.5,2189.4 1332,2188" style="fill:none;stroke:black;stroke-width:5.14px;"/>
            </g>
            <g transform="matrix(0.577666,-0.657647,0.657647,0.577666,-836.774,4316.87)">
                <path d="M1337,2210C1337,2210 1334.96,2213.26 1331.58,2214.43C1328.06,2215.64 1323.65,2215.15 1322.15,2209.87C1321.55,2207.75 1321.42,2204.86 1322,2201C1325.41,2178.3 1379.87,2174.24 1382,2203C1384.13,2231.76 1340.92,2306.75 1328,2319C1328,2319 1308.53,2323.72 1308,2310C1307.47,2296.28 1360,2219 1360,2219C1360,2219 1362.55,2216.11 1362.18,2211.95C1361.77,2207.3 1358.56,2202.98 1353.29,2202.38C1349.38,2201.93 1344.79,2203.07 1337,2210Z" style="fill:none;stroke:black;stroke-width:5.14px;"/>
            </g>
            <g transform="matrix(0.577666,-0.657647,0.657647,0.577666,-836.774,4316.87)">
                <path d="M1337,2209C1337,2209 1329.88,2197.94 1323,2200" style="fill:none;stroke:black;stroke-width:5.14px;"/>
            </g>
        </g>
    </g>
</svg>
