<?xml version="1.0" encoding="UTF-8" standalone="no"?><!DOCTYPE svg PUBLIC "-//W3C//DTD SVG 1.1//EN" "http://www.w3.org/Graphics/SVG/1.1/DTD/svg11.dtd"><svg width="100%" height="100%" viewBox="0 0 105 116" version="1.1" xmlns="http://www.w3.org/2000/svg" xmlns:xlink="http://www.w3.org/1999/xlink" xml:space="preserve" xmlns:serif="http://www.serif.com/" style="fill-rule:evenodd;clip-rule:evenodd;stroke-linecap:round;stroke-linejoin:round;stroke-miterlimit:1.5;"><g><g><path d="M22.959,28.846c0,0 -18.091,52.482 -20.403,56.195c-2.312,3.714 68.291,28.178 68.291,28.178c0,0 18.747,-54.627 21.501,-56.3c2.753,-1.674 -69.389,-28.073 -69.389,-28.073Z" style="fill:none;stroke:#1f1f1f;stroke-width:5px;"/><path d="M52.574,39.914c0,0 -18.616,51.696 -22.794,58.3l14.306,5.464c0,0 15.7,-51.441 22.332,-58.477" style="fill:none;stroke:#1f1f1f;stroke-width:5px;"/></g><g><path d="M21.163,15.791c0,0 -3.077,13.002 -4.37,13.572c-1.293,0.569 79.637,33.485 79.637,33.485c0,0 3.116,-13.562 5.482,-13.237c2.367,0.325 -80.749,-33.82 -80.749,-33.82Z" style="fill:#fff;stroke:#1f1f1f;stroke-width:5px;"/><path d="M55.352,29.892c0,0 -3.859,12.537 -6.228,13.528l16.55,6.854c0,0 0.899,-13.435 5.694,-13.749" style="fill:none;stroke:#1f1f1f;stroke-width:5px;"/><path d="M63.093,33.098c0,0 -7.894,-47.172 -12.734,-24.375c-4.839,22.797 2.409,8.13 12.734,24.375Z" style="fill:none;stroke:#1f1f1f;stroke-width:5px;"/><path d="M63.554,31.986c0,0 35.655,-31.878 25.178,-11.061c-10.477,20.818 -6.963,4.839 -25.178,11.061Z" style="fill:none;stroke:#1f1f1f;stroke-width:5px;"/></g></g></svg>